<svg id="Layer_5" enable-background="new 0 0 62 62" height="512" viewBox="0 0 62 62" width="512" xmlns="http://www.w3.org/2000/svg"><g><g><g><path d="m1 47v-30h38.84c.12.28.25.55.39.81l-1.13 2.26 2.83 2.83 2.26-1.13c.26.14.53.27.81.39v13.22c0-2.42-1.96-4.38-4.38-4.38-.9 0-1.62.72-1.62 1.62 0 .25.06.5.17.72 1.2 2.41 1.83 5.06 1.83 7.75v2.42c0 1.26.39 2.48 1.12 3.49z" fill="#e6e9ed"/></g><g><path d="m39.84 17h-38.84v-12h39.03l-.93.93 1.13 2.26c-.34.63-.62 1.3-.82 2.01l-2.41.8v4l2.41.8c.12.41.26.81.43 1.2z" fill="#ff826e"/></g><g><path d="m21 9h4v4h-4z" fill="#e6e9ed"/></g><g><path d="m13 9h4v4h-4z" fill="#e6e9ed"/></g><g><path d="m5 9h4v4h-4z" fill="#e6e9ed"/></g><g><path d="m27 33h8v10h-8z" fill="#ff826e"/></g><g><path d="m5 21h18v14h-18z" fill="#4fc1e9"/></g><g><path d="m39.84 17c-.17-.39-.31-.79-.43-1.2l-2.41-.8v-4l2.41-.8c.2-.71.48-1.38.82-2.01l-1.13-2.26.93-.93 1.9-1.9 2.26 1.13c.63-.34 1.3-.62 2.01-.82l.8-2.41h4l.8 2.41c.71.2 1.38.48 2.01.82l2.26-1.13 2.83 2.83-1.13 2.26c.34.63.62 1.3.82 2.01l2.41.8v4l-2.41.8c-.2.71-.48 1.38-.82 2.01l1.13 2.26-2.83 2.83-2.26-1.13c-.63.34-1.3.62-2.01.82l-.8 2.41h-2v-5c0-.37-.1-.71-.27-1.01.09.01.18.01.27.01 3.31 0 6-2.69 6-6s-2.69-6-6-6-6 2.69-6 6c0 2.25 1.24 4.21 3.06 5.23-.63.34-1.06 1.01-1.06 1.77v2.16c-.28-.12-.55-.25-.81-.39l-2.26 1.13-2.83-2.83 1.13-2.26c-.14-.26-.27-.53-.39-.81z" fill="#ffc729"/></g><g><path d="m49 7c3.31 0 6 2.69 6 6s-2.69 6-6 6c-.09 0-.18 0-.27-.01-.09-.15-.2-.28-.32-.4-.36-.37-.86-.59-1.41-.59-.34 0-.66.08-.94.23-1.82-1.02-3.06-2.98-3.06-5.23 0-3.31 2.69-6 6-6zm2 6c0-1.1-.9-2-2-2s-2 .9-2 2 .9 2 2 2 2-.9 2-2z" fill="#fcd770"/></g><g><path d="m59 50v11h-16v-6-5c0-.55.45-1 1-1h14c.55 0 1 .45 1 1z" fill="#e6e9ed"/></g><g><path d="m57 33c0-1.1.9-2 2-2 .56 0 1.06.22 1.42.59.36.36.58.86.58 1.41v10.51c0 1.6-.63 3.12-1.76 4.25l-1.24 1.24h-14l-1.24-1.24c-.24-.24-.45-.49-.64-.76-.73-1.01-1.12-2.23-1.12-3.49v-2.42c0-2.69-.63-5.34-1.83-7.75-.11-.22-.17-.47-.17-.72 0-.9.72-1.62 1.62-1.62 2.42 0 4.38 1.96 4.38 4.38v-13.22-2.16c0-.76.43-1.43 1.06-1.77.28-.15.6-.23.94-.23.55 0 1.05.22 1.41.59.12.12.23.25.32.4.17.3.27.64.27 1.01v5 6c0-1.1.9-2 2-2 .55 0 1.05.22 1.41.59.37.36.59.86.59 1.41v1c0-1.1.9-2 2-2 .55 0 1.05.22 1.41.59.37.36.59.86.59 1.41z" fill="#f0d0b4"/></g></g><g><path d="m49 10c-1.654 0-3 1.346-3 3s1.346 3 3 3 3-1.346 3-3-1.346-3-3-3zm0 4c-.552 0-1-.449-1-1s.448-1 1-1 1 .449 1 1-.448 1-1 1z"/><path d="m62 15.721v-5.441l-2.606-.869c-.145-.422-.313-.832-.504-1.226l1.227-2.453-3.848-3.848-2.455 1.226c-.394-.19-.803-.359-1.225-.504l-.868-2.606h-5.441l-.87 2.606c-.422.145-.831.313-1.225.504l-2.454-1.227-2.116 2.117h-39.615v44h41.629c.134.16.273.316.422.465l.348.348c-.247.333-.399.741-.399 1.187v4h-2.101c-.465-2.279-2.484-4-4.899-4h-2c-2.414 0-4.434 1.721-4.899 4h-2.202c-.465-2.279-2.484-4-4.899-4h-2c-2.414 0-4.434 1.721-4.899 4h-2.202c-.465-2.279-2.485-4-4.899-4h-2c-2.757 0-5 2.243-5 5s2.243 5 5 5h2c2.414 0 4.434-1.721 4.899-4h2.202c.465 2.279 2.484 4 4.899 4h2c2.414 0 4.434-1.721 4.899-4h2.202c.465 2.279 2.484 4 4.899 4h2c2.414 0 4.434-1.721 4.899-4h2.101v6h18v-12c0-.446-.152-.854-.399-1.187l.348-.348c1.322-1.322 2.051-3.08 2.051-4.95v-10.515c0-1.653-1.345-2.999-2.999-3 0 0 0 0-.001 0-.526 0-1.026.147-1.472.4-.532-.839-1.463-1.4-2.528-1.4-.537 0-1.034.153-1.471.401-.532-.839-1.464-1.401-2.529-1.401-.352 0-.686.072-1 .184v-2.184h1.721l.869-2.606c.422-.145.831-.313 1.225-.504l2.454 1.227 3.848-3.848-1.227-2.453c.19-.394.359-.804.504-1.226zm-55 42.279h-2c-1.654 0-3-1.346-3-3s1.346-3 3-3h2c1.302 0 2.402.839 2.816 2h-1.816v2h1.816c-.414 1.161-1.514 2-2.816 2zm14 0h-2c-1.302 0-2.402-.839-2.816-2h1.816v-2h-1.816c.414-1.161 1.514-2 2.816-2h2c1.302 0 2.402.839 2.816 2h-1.816v2h1.816c-.414 1.161-1.514 2-2.816 2zm14 0h-2c-1.302 0-2.402-.839-2.816-2h1.816v-2h-1.816c.414-1.161 1.514-2 2.816-2h2c1.302 0 2.402.839 2.816 2h-1.816v2h1.816c-.414 1.161-1.514 2-2.816 2zm-33-12v-28h32v-2h-32v-10h36.018l1.092 2.185c-.19.394-.359.804-.504 1.226l-2.606.868v5.441l2.606.869c.145.422.313.833.504 1.226l-1.227 2.453 3.848 3.848 2.269-1.134v8.248c-.927-.756-2.094-1.23-3.382-1.23-1.443 0-2.618 1.175-2.618 2.619 0 .403.096.808.276 1.171 1.128 2.255 1.724 4.78 1.723 7.301v2.423c0 .865.162 1.703.46 2.487h-38.459zm45-29c-.282 0-.55.052-.809.125-1.358-.927-2.191-2.465-2.191-4.125 0-2.757 2.243-5 5-5s5 2.243 5 5c0 2.684-2.145 4.893-4.785 4.994-.55-.606-1.335-.994-2.215-.994zm11 43h-14v-10h14zm-7-30c.552 0 1 .449 1 1v1 6h2v-6c0-.551.448-1 1-1s1 .449 1 1v1 4 1h2v-1-4c0-.267.104-.518.293-.707s.44-.293.707-.293c.552 0 1 .449 1 1v10.515c0 1.336-.521 2.592-1.465 3.536l-.949.949h-13.172l-.949-.95c-.945-.944-1.466-2.2-1.466-3.537v-2.422c.001-2.83-.668-5.664-1.934-8.195-.043-.086-.065-.182-.065-.277 0-.341.277-.619.618-.619 1.864 0 3.382 1.518 3.382 3.382v1.618 1h2v-1-1.618-15.382c0-.551.448-1 1-1s1 .449 1 1v11 7h2v-7c0-.551.448-1 1-1zm6.781-14.981-.146.503c-.187.64-.437 1.247-.743 1.804l-.253.46 1.044 2.088-1.809 1.809-2.089-1.043-.459.252c-.558.307-1.165.557-1.805.743l-.503.146-.739 2.219h-.279v-4c0-.027-.007-.052-.008-.079 3.39-.484 6.008-3.399 6.008-6.921 0-3.86-3.141-7-7-7s-7 3.14-7 7c0 2.083.941 4.028 2.502 5.344-.316.475-.502 1.044-.502 1.656v.746l-1.874.936-1.809-1.809 1.044-2.088-.253-.46c-.307-.558-.557-1.165-.743-1.804l-.146-.503-2.219-.739v-2.559l2.219-.74.146-.503c.187-.639.437-1.246.743-1.804l.253-.46-1.044-2.088 1.809-1.809 2.089 1.043.459-.252c.558-.307 1.165-.557 1.805-.743l.503-.146.739-2.218h2.559l.739 2.219.503.146c.64.187 1.247.437 1.805.743l.459.252 2.089-1.043 1.809 1.809-1.044 2.088.253.46c.307.558.557 1.165.743 1.804l.146.503 2.218.74v2.559z"/><path d="m4 14h6v-6h-6zm2-4h2v2h-2z"/><path d="m12 14h6v-6h-6zm2-4h2v2h-2z"/><path d="m20 14h6v-6h-6zm2-4h2v2h-2z"/><path d="m4 36h20v-16h-20zm2-14h16v12h-16z"/><path d="m4 38h20v2h-20z"/><path d="m4 42h20v2h-20z"/><path d="m26 44h10v-12h-10zm2-10h6v8h-6z"/><path d="m26 28h10v2h-10z"/><path d="m26 24h10v2h-10z"/><path d="m26 20h10v2h-10z"/></g></g></svg>