<svg xmlns="http://www.w3.org/2000/svg" viewBox="0 0 179 59.4"><g fill="#393c50"><path d="M26.4 0H0v58.7c1.2.4 2.5.7 3.8.7 5.9 0 10.8-4.9 10.8-10.8v-34h21.9c.4-1.2.7-2.5.7-3.8C37.2 4.9 32.3 0 26.4 0z"/><circle cx="25.7" cy="31" r="8.1"/></g><path d="M56 25.8v.8h5.8v3.8H56v14.9h-4.5v-15h-2.9v-3.8h2.9v-.9c0-4.7 3-7.3 7.4-7.3 1.7 0 3.4.4 5 1.3l-1.4 3.5c-1.2-.5-2.2-.8-3-.8-2.2.1-3.5 1.3-3.5 3.5zm25 11.7H66.8c.6 2.6 2.5 4.3 5.7 4.3 2.3 0 4.3-.7 6.1-1.9l1.8 3.2c-2.3 1.7-5 2.6-8.1 2.6-7 0-10.1-4.8-10.1-9.7 0-2.8.9-5.1 2.7-7 1.8-1.9 4.2-2.8 7-2.8 2.7 0 4.9.9 6.6 2.5 1.7 1.7 2.6 3.9 2.6 6.8 0 .5 0 1.2-.1 2zm-14.2-3.4h9.9c-.4-2.6-2.3-4.2-4.8-4.2-2.6 0-4.5 1.6-5.1 4.2zm34.7-5.2c1.8 1.9 2.7 4.2 2.7 7s-.9 5.1-2.7 7c-1.7 1.9-4 2.8-6.6 2.8-2.4 0-4.4-1-6-2.9v2.5h-4.4V19.1H89V29c1.6-1.9 3.6-2.8 5.9-2.8 2.7-.1 4.9.9 6.6 2.7zm-3.4 3c-1-1.1-2.3-1.6-3.9-1.6s-2.9.5-3.9 1.6-1.5 2.4-1.5 4 .5 3 1.5 4c1 1.1 2.3 1.6 3.9 1.6s2.9-.5 3.9-1.6 1.5-2.4 1.5-4c.1-1.6-.5-2.9-1.5-4zm27.2 5.6h-14.2c.6 2.6 2.5 4.3 5.7 4.3 2.3 0 4.3-.7 6.1-1.9l1.8 3.2c-2.3 1.7-5 2.6-8.1 2.6-7 0-10.1-4.8-10.1-9.7 0-2.8.9-5.1 2.7-7 1.8-1.9 4.2-2.8 7-2.8 2.7 0 4.9.9 6.6 2.5 1.7 1.7 2.6 3.9 2.6 6.8 0 .5 0 1.2-.1 2zm-14.2-3.4h9.9c-.4-2.6-2.3-4.2-4.8-4.2-2.6 0-4.5 1.6-5.1 4.2zm21.8 11.1h-4.5V19.1h4.5v26.1zm6.2-19.2c0-4.9 2.7-7.5 6.9-7.5 1.7 0 3.3.4 4.8 1.2l-1.3 3.5c-1.1-.5-2-.7-2.8-.7-2 0-3.1 1.2-3.1 3.4v.8h5.8v3.8h-5.8v14.9h-4.5V30.3h-2.9v-3.8h2.9V26zm15.6-7.3c1.6 0 2.8 1.2 2.8 2.8 0 1.6-1.2 2.8-2.8 2.8-1.6 0-2.8-1.2-2.8-2.8-.1-1.5 1.2-2.8 2.8-2.8zm-2.3 26.5V26.6h4.5v18.6h-4.5zm9 0V26.6h4.4v2.6c1-1.9 3.2-3.1 5.9-3.1 2 0 3.8.7 5.2 2 1.4 1.3 2.1 3.2 2.1 5.7v11.4h-4.5V35.1c0-3.1-1.6-4.9-4.1-4.9-2.6 0-4.5 2.1-4.5 5v10h-4.5z" fill="#e83f4b"/></svg>