<svg id="Logo" xmlns="http://www.w3.org/2000/svg" viewBox="0 0 1722.79 445.48"><title>Firestone_Corp_C_BldgProd_PMS</title><path d="M118.46,415h16V377.67h39.62V363.19H134.46V339.57h42V325.09h-58Zm69.21,0h15.24V354H187.67Zm7.49-90.8a9.38,9.38,0,0,0-6.92,2.73,8.9,8.9,0,0,0,0,12.83,9.38,9.38,0,0,0,6.92,2.73,10,10,0,0,0,7.05-2.61,8.91,8.91,0,0,0,0-13.08A10.09,10.09,0,0,0,195.16,324.2Zm53.72,28.32a20,20,0,0,0-10.79,2.92,19.15,19.15,0,0,0-7.24,8.26h-.25V354H215.36v61H230.6V382.36a19.33,19.33,0,0,1,.57-3.81,15.1,15.1,0,0,1,2.28-5.08,15.71,15.71,0,0,1,5-4.5,16.28,16.28,0,0,1,8.57-2,21.5,21.5,0,0,1,3.62.31c1.22.22,2.48.49,3.75.83V353.41c-.94-.26-1.85-.47-2.74-.64A14.44,14.44,0,0,0,248.88,352.52Zm62.8,8.64a24.79,24.79,0,0,0-9-6.42,29.67,29.67,0,0,0-11.62-2.22,36.74,36.74,0,0,0-13,2.28,31.33,31.33,0,0,0-10.54,6.48,30.9,30.9,0,0,0-7.05,10.1,34.53,34.53,0,0,0,0,26.29,30.33,30.33,0,0,0,17.59,16.57,36.52,36.52,0,0,0,13,2.29,35.22,35.22,0,0,0,13.84-2.8,30.92,30.92,0,0,0,11.94-9.4l-10.92-8.25a26.79,26.79,0,0,1-6.8,5.91,18.24,18.24,0,0,1-9.59,2.34,16.69,16.69,0,0,1-11-3.8,15.53,15.53,0,0,1-5.33-10.67h46.48v-4.19a44.05,44.05,0,0,0-2.09-14.16A29.58,29.58,0,0,0,311.68,361.16Zm-38.54,17.27A17.53,17.53,0,0,1,278,367.89q4-3.94,10.86-3.94,7.23,0,11.3,3.87t4.19,10.61ZM368,382.17a31.53,31.53,0,0,0-7.94-2.92c-2.84-.63-5.48-1.25-7.94-1.84a26.39,26.39,0,0,1-6.09-2.16,4.27,4.27,0,0,1-2.42-4.06,5.17,5.17,0,0,1,2.93-4.95,12.68,12.68,0,0,1,6-1.53,14,14,0,0,1,11.94,6.22l10.16-9.14a19.74,19.74,0,0,0-9.65-7.18,36,36,0,0,0-21.08-.95,23.82,23.82,0,0,0-7.88,3.56,18.49,18.49,0,0,0-5.52,6.16,17.76,17.76,0,0,0-2.1,8.82q0,5.85,2.42,9.15a16.56,16.56,0,0,0,6.09,5.14,30.69,30.69,0,0,0,7.94,2.67c2.84.55,5.48,1.14,7.94,1.78a21.57,21.57,0,0,1,6.09,2.47,5.68,5.68,0,0,1,1.46,7.81,7.94,7.94,0,0,1-2.47,2.23,11.47,11.47,0,0,1-3.3,1.27,16.67,16.67,0,0,1-3.43.38,15.16,15.16,0,0,1-8.19-2.1,28.41,28.41,0,0,1-6.29-5.4l-10.16,9.53a24.85,24.85,0,0,0,10.67,7.37,40.5,40.5,0,0,0,13.08,2,44.28,44.28,0,0,0,9.4-1,27.23,27.23,0,0,0,8.44-3.3,18.5,18.5,0,0,0,6.1-6,17.08,17.08,0,0,0,2.35-9.21q0-6-2.42-9.4A17.55,17.55,0,0,0,368,382.17Zm40.38-45.78H393.15V354H380.58v13h12.57v27.94a47.49,47.49,0,0,0,.83,9.39,15.3,15.3,0,0,0,3,6.8,13.14,13.14,0,0,0,6.09,4.06,31.15,31.15,0,0,0,10,1.34,48.89,48.89,0,0,0,6.16-.45,19.52,19.52,0,0,0,5.91-1.58V401.67a9.43,9.43,0,0,1-3.81,1.46,24.41,24.41,0,0,1-4.45.44q-5.08,0-6.79-2.66a13.24,13.24,0,0,1-1.72-7.24V367h16.77V354H408.39Zm79.76,24.89a31.33,31.33,0,0,0-10.54-6.48,37.95,37.95,0,0,0-25.91,0,31.14,31.14,0,0,0-10.54,6.48,30.6,30.6,0,0,0-7.05,10.1,34.53,34.53,0,0,0,0,26.29,30.33,30.33,0,0,0,17.59,16.57,37.79,37.79,0,0,0,25.91,0,30.33,30.33,0,0,0,17.59-16.57,34.53,34.53,0,0,0,0-26.29A30.9,30.9,0,0,0,488.15,361.28Zm-6.8,30.1a17.2,17.2,0,0,1-3.55,5.84,18,18,0,0,1-26.29,0,17.22,17.22,0,0,1-3.56-5.84,20.18,20.18,0,0,1,0-13.71,17.27,17.27,0,0,1,3.56-5.85,18,18,0,0,1,26.29,0,17.24,17.24,0,0,1,3.55,5.85,20,20,0,0,1,0,13.71Zm76.9-31.5a19.7,19.7,0,0,0-6.92-5.33,24,24,0,0,0-10.35-2q-7.62,0-12.07,3.36a21.45,21.45,0,0,0-6.6,7.94h-.26V354H507.58v61h15.24V381.73a22,22,0,0,1,.76-5.84,13.84,13.84,0,0,1,2.47-5,12.6,12.6,0,0,1,4.32-3.43,14.69,14.69,0,0,1,6.42-1.26,9.64,9.64,0,0,1,6.22,1.84,10.91,10.91,0,0,1,3.36,4.57,20.32,20.32,0,0,1,1.34,5.84c.17,2.08.25,4,.25,5.65V415H563.2V376.52a35.23,35.23,0,0,0-1.14-9A20.26,20.26,0,0,0,558.25,359.88Zm67.88,1.28a24.82,24.82,0,0,0-9-6.42,29.6,29.6,0,0,0-11.62-2.22,36.64,36.64,0,0,0-13,2.28A31.14,31.14,0,0,0,582,361.28a30.6,30.6,0,0,0-7,10.1,34.53,34.53,0,0,0,0,26.29,30.33,30.33,0,0,0,17.59,16.57,36.43,36.43,0,0,0,13,2.29,35.27,35.27,0,0,0,13.85-2.8,30.82,30.82,0,0,0,11.93-9.4l-10.92-8.25a26.75,26.75,0,0,1-6.79,5.91,18.27,18.27,0,0,1-9.59,2.34,16.69,16.69,0,0,1-11.05-3.8,15.45,15.45,0,0,1-5.33-10.67h46.48v-4.19a43.77,43.77,0,0,0-2.1-14.16A29.56,29.56,0,0,0,626.13,361.16Zm-38.54,17.27a17.53,17.53,0,0,1,4.89-10.54q4-3.94,10.85-3.94,7.24,0,11.31,3.87t4.19,10.61Zm155.57-3.75A21,21,0,0,0,737,370a23.23,23.23,0,0,0-7.81-2.35v-.25a24.06,24.06,0,0,0,11.3-7.11,18.47,18.47,0,0,0,4.32-12.58,20.31,20.31,0,0,0-8.7-17.46,25.85,25.85,0,0,0-8.83-3.94,42.4,42.4,0,0,0-10-1.2h-35V415h32.38a61.6,61.6,0,0,0,12.51-1.27A32.64,32.64,0,0,0,738,409.48a23.11,23.11,0,0,0,7.69-7.88,23.58,23.58,0,0,0,2.92-12.25,21.93,21.93,0,0,0-5.46-14.67Zm-45-35.88h13.21q9.14,0,13.27,2.86t4.13,8.7a9.88,9.88,0,0,1-4,8.19q-4,3.12-12,3.11H698.2Zm32.51,56.33a12.73,12.73,0,0,1-4.82,4,19.93,19.93,0,0,1-6.42,1.78,61.58,61.58,0,0,1-6.54.38H698.2V375.38h15.37q9.78,0,14.41,2.79t4.64,9.91A11.72,11.72,0,0,1,730.71,395.13Zm67.06-7.81a22,22,0,0,1-.77,5.84,13.56,13.56,0,0,1-2.47,4.95,12.28,12.28,0,0,1-4.32,3.43,14.5,14.5,0,0,1-6.41,1.27,9.59,9.59,0,0,1-6.29-1.84,11.2,11.2,0,0,1-3.3-4.57,20.32,20.32,0,0,1-1.34-5.84c-.17-2.08-.25-4-.25-5.66V354H757.38v38.48a35.17,35.17,0,0,0,1.14,9,21,21,0,0,0,3.81,7.68,18.59,18.59,0,0,0,6.93,5.34,24.53,24.53,0,0,0,10.35,2q7.62,0,12.06-3.37a21.37,21.37,0,0,0,6.6-7.94h.26V415H813V354H797.77Zm35.17-63.12a9.38,9.38,0,0,0-6.92,2.73,8.9,8.9,0,0,0,0,12.83,9.38,9.38,0,0,0,6.92,2.73,10,10,0,0,0,7-2.61,8.91,8.91,0,0,0,0-13.08A10.09,10.09,0,0,0,832.94,324.2ZM825.45,415h15.24V354H825.45Zm27.94,0h15.24V319H853.39Zm75.18-53.21h-.38a21.19,21.19,0,0,0-2.92-3.11,23.67,23.67,0,0,0-4.32-3,26.14,26.14,0,0,0-5.84-2.28,29.53,29.53,0,0,0-7.62-.89A28.43,28.43,0,0,0,895.55,355a27.73,27.73,0,0,0-9.33,6.79,31.2,31.2,0,0,0-6,10.16A36,36,0,0,0,878,384.52a37.93,37.93,0,0,0,2,12.58,29,29,0,0,0,6,10.16,28.25,28.25,0,0,0,9.46,6.79,30.59,30.59,0,0,0,12.64,2.48A28.88,28.88,0,0,0,920.19,414a19.59,19.59,0,0,0,8.89-8.13h.26V415h14.47V319H928.57Zm-.69,29.59a17.38,17.38,0,0,1-3.56,5.84,18,18,0,0,1-26.29,0,17.22,17.22,0,0,1-3.56-5.84,20.18,20.18,0,0,1,0-13.71,17.27,17.27,0,0,1,3.56-5.85,17.87,17.87,0,0,1,5.65-4.06,19.24,19.24,0,0,1,15,0,17.87,17.87,0,0,1,5.65,4.06,17.43,17.43,0,0,1,3.56,5.85,20.18,20.18,0,0,1,0,13.71ZM956.26,415H971.5V354H956.26Zm7.49-90.8a9.38,9.38,0,0,0-6.92,2.73,8.9,8.9,0,0,0,0,12.83,9.38,9.38,0,0,0,6.92,2.73,10.08,10.08,0,0,0,7-2.61,8.91,8.91,0,0,0,0-13.08A10.12,10.12,0,0,0,963.75,324.2Zm70.87,35.68a19.7,19.7,0,0,0-6.92-5.33,24,24,0,0,0-10.36-2q-7.62,0-12.06,3.36a21.35,21.35,0,0,0-6.6,7.94h-.26V354H983.94v61h15.24V381.73a22,22,0,0,1,.77-5.84,13.68,13.68,0,0,1,2.47-5,12.5,12.5,0,0,1,4.32-3.43,14.62,14.62,0,0,1,6.41-1.26,9.65,9.65,0,0,1,6.23,1.84,10.91,10.91,0,0,1,3.36,4.57,20.32,20.32,0,0,1,1.34,5.84c.16,2.08.25,4,.25,5.65V415h15.24V376.52a35.23,35.23,0,0,0-1.14-9A20.41,20.41,0,0,0,1034.62,359.88Zm65.4,3.31h-.25a19.63,19.63,0,0,0-8.89-8.13,28.89,28.89,0,0,0-12.07-2.54,30.5,30.5,0,0,0-12.64,2.48,28.35,28.35,0,0,0-9.46,6.79,29.26,29.26,0,0,0-6,10.16,38.17,38.17,0,0,0-2,12.57,34.14,34.14,0,0,0,2.16,12.19,28.86,28.86,0,0,0,6.16,9.91,29.64,29.64,0,0,0,9.59,6.67,30.38,30.38,0,0,0,12.45,2.48,29.41,29.41,0,0,0,11.17-2.23,20.07,20.07,0,0,0,8.76-6.66h.26v4.44a34,34,0,0,1-1,8.32,16.17,16.17,0,0,1-3.18,6.41,14.78,14.78,0,0,1-6,4.19,24.44,24.44,0,0,1-9.21,1.53,27.12,27.12,0,0,1-11.43-2.29A37.06,37.06,0,0,1,1059,423l-9.14,12.45a36,36,0,0,0,14.09,7.87,58.9,58.9,0,0,0,16.13,2.16,41.9,41.9,0,0,0,15.37-2.54,28.3,28.3,0,0,0,10.73-7.17,28.91,28.91,0,0,0,6.29-11.31,51.23,51.23,0,0,0,2-14.92V354H1100Zm-1.27,28.06a16,16,0,0,1-3.62,5.66,17.53,17.53,0,0,1-5.71,3.74,19.62,19.62,0,0,1-7.56,1.4,18.07,18.07,0,0,1-7.11-1.4,17.69,17.69,0,0,1-5.72-3.81,17.1,17.1,0,0,1-3.74-5.59,17.47,17.47,0,0,1-1.34-6.85,20,20,0,0,1,1.34-7.43,16.43,16.43,0,0,1,3.68-5.72,16.81,16.81,0,0,1,5.65-3.68,19.5,19.5,0,0,1,7.37-1.33q8.37,0,13.2,4.95t4.83,12.95A19.56,19.56,0,0,1,1098.75,391.25Zm117.73-60.64a30.73,30.73,0,0,0-10.61-4.25,60.32,60.32,0,0,0-12.51-1.27h-30.22V415h16V377.79h11.43a88.53,88.53,0,0,0,13.65-1,32.82,32.82,0,0,0,11.49-3.88,20.85,20.85,0,0,0,7.88-8.06q2.92-5.2,2.92-13.72a26,26,0,0,0-2.73-12.51A21.92,21.92,0,0,0,1216.48,330.61Zm-8.7,27.88a12.19,12.19,0,0,1-5.08,3.81,21.81,21.81,0,0,1-6.8,1.52q-3.68.26-7.11.26h-9.65V338.8h11.43a60.77,60.77,0,0,1,6.6.38,19.48,19.48,0,0,1,6.23,1.72,11.84,11.84,0,0,1,4.57,3.81,11.25,11.25,0,0,1,1.78,6.67A11.39,11.39,0,0,1,1207.78,358.49Zm60.64-6a20,20,0,0,0-10.8,2.92,19.22,19.22,0,0,0-7.24,8.26h-.25V354h-15.24v61h15.24V382.36a19.33,19.33,0,0,1,.57-3.81,15.13,15.13,0,0,1,2.29-5.08,15.56,15.56,0,0,1,5-4.5,16.3,16.3,0,0,1,8.57-2,21.33,21.33,0,0,1,3.62.31c1.23.22,2.48.49,3.75.83V353.41c-.93-.26-1.84-.47-2.73-.64A14.52,14.52,0,0,0,1268.42,352.52Zm66.93,8.76a31.33,31.33,0,0,0-10.54-6.48,37.95,37.95,0,0,0-25.91,0,31.14,31.14,0,0,0-10.54,6.48,30.6,30.6,0,0,0-7,10.1,34.53,34.53,0,0,0,0,26.29,30.33,30.33,0,0,0,17.59,16.57,37.79,37.79,0,0,0,25.91,0,30.33,30.33,0,0,0,17.59-16.57,34.53,34.53,0,0,0,0-26.29A30.9,30.9,0,0,0,1335.35,361.28Zm-6.8,30.1a17.2,17.2,0,0,1-3.55,5.84,18,18,0,0,1-26.29,0,17.22,17.22,0,0,1-3.56-5.84,20.18,20.18,0,0,1,0-13.71,17.27,17.27,0,0,1,3.56-5.85,18,18,0,0,1,26.29,0,17.24,17.24,0,0,1,3.55,5.85,20,20,0,0,1,0,13.71Zm75-29.59h-.38a21.19,21.19,0,0,0-2.92-3.11,23.33,23.33,0,0,0-4.32-3,26.14,26.14,0,0,0-5.84-2.28,29.53,29.53,0,0,0-7.62-.89,28.43,28.43,0,0,0-11.94,2.48,27.73,27.73,0,0,0-9.33,6.79,31.38,31.38,0,0,0-6,10.16,36,36,0,0,0-2.16,12.57,37.93,37.93,0,0,0,2,12.58,29,29,0,0,0,6,10.16,28.25,28.25,0,0,0,9.46,6.79,30.59,30.59,0,0,0,12.64,2.48,28.81,28.81,0,0,0,12.06-2.54,19.59,19.59,0,0,0,8.89-8.13h.26V415h14.47V319h-15.24Zm-.69,29.59a17.22,17.22,0,0,1-3.56,5.84,18,18,0,0,1-26.29,0,17.22,17.22,0,0,1-3.56-5.84,20.18,20.18,0,0,1,0-13.71,17.27,17.27,0,0,1,3.56-5.85,17.87,17.87,0,0,1,5.65-4.06,19.24,19.24,0,0,1,15,0,17.87,17.87,0,0,1,5.65,4.06,17.27,17.27,0,0,1,3.56,5.85,20.18,20.18,0,0,1,0,13.71Zm67.24-4.06a22,22,0,0,1-.76,5.84,13.58,13.58,0,0,1-2.48,4.95,12.19,12.19,0,0,1-4.32,3.43,14.47,14.47,0,0,1-6.41,1.27,9.59,9.59,0,0,1-6.29-1.84,11.2,11.2,0,0,1-3.3-4.57,20.31,20.31,0,0,1-1.33-5.84c-.17-2.08-.26-4-.26-5.66V354H1429.7v38.48a34.74,34.74,0,0,0,1.15,9,20.67,20.67,0,0,0,3.81,7.68,18.55,18.55,0,0,0,6.92,5.34,24.57,24.57,0,0,0,10.35,2q7.62,0,12.06-3.37a21.31,21.31,0,0,0,6.61-7.94h.25V415h14.48V354h-15.24Zm44.39-15.5a17.39,17.39,0,0,1,13.14-5.58,12,12,0,0,1,6,1.65,24.34,24.34,0,0,1,5.59,4.44l10.54-10.54a26.72,26.72,0,0,0-10.35-7.05,33.24,33.24,0,0,0-11.75-2.22,36.64,36.64,0,0,0-12.95,2.28,31.14,31.14,0,0,0-10.54,6.48,30.6,30.6,0,0,0-7.05,10.1,34.41,34.41,0,0,0,0,26.29,30.33,30.33,0,0,0,17.59,16.57,36.43,36.43,0,0,0,12.95,2.29,31.14,31.14,0,0,0,4.83-.45,35.86,35.86,0,0,0,5.84-1.46,35.42,35.42,0,0,0,6-2.66,23.47,23.47,0,0,0,5.27-3.94l-10.16-10.92a14.3,14.3,0,0,1-5.21,4.25,15,15,0,0,1-6.6,1.46,17.77,17.77,0,0,1-7.49-1.52,17.52,17.52,0,0,1-5.65-4.07,17.07,17.07,0,0,1-3.56-5.84,20,20,0,0,1,0-13.71A17.11,17.11,0,0,1,1514.48,371.82Zm69.4-35.43h-15.24V354h-12.57v13h12.57v27.94a47.49,47.49,0,0,0,.83,9.39,15.4,15.4,0,0,0,3,6.8,13.23,13.23,0,0,0,6.1,4.06,31.15,31.15,0,0,0,10,1.34,48.89,48.89,0,0,0,6.16-.45,19.37,19.37,0,0,0,5.9-1.58V401.67a9.31,9.31,0,0,1-3.81,1.46,24.23,24.23,0,0,1-4.44.44q-5.09,0-6.79-2.66a13.24,13.24,0,0,1-1.72-7.24V367h16.76V354h-16.76Zm71.5,51.18a17.55,17.55,0,0,0-6.09-5.4,31.67,31.67,0,0,0-7.94-2.92c-2.84-.63-5.49-1.25-7.94-1.84a26.32,26.32,0,0,1-6.1-2.16,4.27,4.27,0,0,1-2.41-4.06,5.16,5.16,0,0,1,2.92-4.95,12.74,12.74,0,0,1,6-1.53,14,14,0,0,1,11.94,6.22l10.16-9.14a19.79,19.79,0,0,0-9.65-7.18,36,36,0,0,0-21.08-.95,23.82,23.82,0,0,0-7.88,3.56,18.38,18.38,0,0,0-5.52,6.16,17.76,17.76,0,0,0-2.1,8.82q0,5.85,2.41,9.15a16.59,16.59,0,0,0,6.1,5.14,30.56,30.56,0,0,0,7.94,2.67c2.83.55,5.48,1.14,7.93,1.78a21.52,21.52,0,0,1,6.1,2.47,5.71,5.71,0,0,1,1.46,7.81,7.87,7.87,0,0,1-2.48,2.23,11.25,11.25,0,0,1-3.3,1.27,16.6,16.6,0,0,1-3.43.38,15.2,15.2,0,0,1-8.19-2.1,28.37,28.37,0,0,1-6.28-5.4l-10.16,9.53a24.82,24.82,0,0,0,10.66,7.37,40.5,40.5,0,0,0,13.08,2,44.14,44.14,0,0,0,9.4-1,27.29,27.29,0,0,0,8.45-3.3,18.47,18.47,0,0,0,6.09-6,17,17,0,0,0,2.35-9.21Q1657.79,391,1655.38,387.57Z" fill="#231f20"/><path d="M226.85,0c-38.07,25.91-66.63,16.92-105.76,8.46C62.4-4.23,11.1,1.06,0,83,27.49,64.51,59.75,62.4,74.56,67.16c-20.62,31.2-33.24,50.6-16.39,114.22,4.75,18,12.16,41.24-9.88,68.39,38.43,2.47,91.84-13.93,79.32-94.83,11.46-10.05,27.85-6.35,37.73,2.11l20.26-44.94c-20.61-16.92-43.88-11.64-65,6.34-6.34-17.45-7.93-35.95,3.18-47.59C178.73,78.26,227.38,64.51,226.85,0Zm83,108.4c.53-35.43-.53-47.06-19-61.87l-68.4,24.16c21.16,13.22,18.69,23.61,18.16,63.1-.54,40.21-3,55.69,24.33,70.32l64.51-22.73C304.06,168.16,309.34,143.83,309.87,108.4ZM431.74,71.77c-2.34-10.27-7.25-17.3-17.16-25.24L349.36,70.68C370.51,83.91,368,94.3,367.51,133.79c-.54,40.21-3,55.69,24.33,70.33l61.34-22.75c-27.32-9.86-20.63-38.85-19.71-70.84l14.59-5,20.45,30.67,51.82-29.61L485.79,48.47Zm232.78-23.3c-29.62-.35-110.34,10.22-123.39,63.81-14.8,60.82,49.71,116.34,143.13,85.31l27.5-45.83c-17.27,11.29-68.39,22.92-85,1.42l89.89-40.9Zm-58.17,82.85c-8.81-19-2.82-39.13,13.75-43.72l22.21,26.8Zm292.95,1.76-56.4-34.9c-14.28-10.4-1.76-21.15,7.4-14.81l43,25,19-17.28L834.09,47.42,763.93,88.66c-11.56,7-29.26,18,2.47,37.72l59.07,36.07c14.61,11.17,3,23.16-9,15.4l-46.73-28L749.48,168l80,45.48,72.62-39.84C917.28,164.46,925.39,147.18,899.3,133.08ZM1026.94,16.51,925.54,91.34h34.37v73.24c1.06,19,4.77,30.67,22.21,40.18l67.69-24.85c-15.86-8.46-22.87-13.75-22.87-32.25V91.34h38.73V54.06h-38.73Zm158.77,29.62c-88.83,24.32-100.47,51.29-95.71,85.66,5.78,41.78,42.83,64.51,101,75.62,66.1-24.33,87.53-41.69,85.13-88.31C1274,77.85,1219.55,57.76,1185.71,46.13Zm13.75,119c-30.67-3.71-51.56-53.68-31.2-82C1207.39,97.68,1213.74,144.22,1199.46,165.11Zm296.13-8.82V103.76l-.36-1.05c0-29.61-21.86-61.7-55-47.59l-52.88,19c-2.34-10.27-5.45-16.92-15.37-24.86l-65.22,24.15c21.15,13.22,19.74,23.62,19.22,63.1-.54,40.22-3.5,55.71,19.06,69.81l63.11-21.85c-9.84-6-16.28-9.52-16.28-26.09v-55l23-7c7.41,3.18,15.52,10.58,15.52,29.62v44.41c0,16.57,4.93,26.44,21.86,36.66l63.45-22.91C1501.23,178.86,1495.59,171.81,1495.59,156.29Zm137.31-2.11,89.89-40.9-52.18-63.8c-29.61-.36-110.34,10.22-123.38,63.8-14.81,60.83,49.71,116.34,143.13,85.31l27.5-45.82C1700.58,164.05,1649.46,175.68,1632.9,154.18Zm-6.7-65.57,22.21,26.79-36,16.92C1603.63,113.28,1609.63,93.19,1626.2,88.61Z" fill="#e1251b"/></svg>