<svg id="Layer_1" data-name="Layer 1" xmlns="http://www.w3.org/2000/svg" viewBox="0 0 362.05 85.04"><defs><style>.cls-1{fill:#ffffff}</style></defs><path class="cls-1" d="M243.78 23.5l-6.22 18h-3.7l-6.22-18H231l4.72 13.7 4.72-13.7h3.35zM248.68 21.74h.4v19.53h-3.16V22zM263.17 41.54a4 4 0 01-3.17-1.47 8.15 8.15 0 01-1.62 1 5 5 0 01-2.16.43 5.22 5.22 0 01-3-.84 4.11 4.11 0 01-1.59-3.63 3.61 3.61 0 011.05-2.87 5.75 5.75 0 013.86-1c.76 0 1.63 0 2.87.11v-.7a2.51 2.51 0 00-.81-2.05 3 3 0 00-1.93-.57 9.58 9.58 0 00-3.75 1l-.74-2.75a12.38 12.38 0 015.13-1.2 6 6 0 013.69 1 4.22 4.22 0 011.57 3.59v5.21a1.78 1.78 0 00.59 1.44 3.13 3.13 0 001.48.65zm-3.76-5.93a17.08 17.08 0 00-3.4.16 1.34 1.34 0 00-1.21 1.42 1.75 1.75 0 002 1.78 3.2 3.2 0 001.62-.43 2.26 2.26 0 001-2.08v-.85zM277.07 41.54a4 4 0 01-3.14-1.47 8.15 8.15 0 01-1.62 1 5 5 0 01-2.16.43 5.22 5.22 0 01-3-.84 4.1 4.1 0 01-1.59-3.63 3.61 3.61 0 011.05-2.87 5.75 5.75 0 013.86-1c.76 0 1.63 0 2.87.11v-.7a2.51 2.51 0 00-.81-2.05 3 3 0 00-1.93-.57 9.57 9.57 0 00-3.75 1l-.74-2.75a12.38 12.38 0 015.1-1.2 6 6 0 013.66 1 4.22 4.22 0 011.56 3.59v5.21a1.78 1.78 0 00.59 1.44 3.13 3.13 0 001.48.65zm-3.76-5.93a17.09 17.09 0 00-3.4.16 1.34 1.34 0 00-1.21 1.42 1.75 1.75 0 002 1.78 3.2 3.2 0 001.62-.43 2.26 2.26 0 001-2.08v-.85zM280.38 27.27h2.67l.31 1.09a8.2 8.2 0 014.47-1.36 5.37 5.37 0 013.55 1.17 4.78 4.78 0 011.54 3.8v9.29h-3.16v-8.35a2.69 2.69 0 00-1-2.23 3.52 3.52 0 00-2.21-.65 5.9 5.9 0 00-3 .86v10.38h-3.16v-14zM308 41.27h-2.39l-.57-1.05a5.93 5.93 0 01-3.76 1.32 5.5 5.5 0 01-4.49-2 7.47 7.47 0 01-1.47-4.64 8 8 0 012.12-5.92 7.42 7.42 0 015.35-1.98 16.38 16.38 0 012.06.13V22l2.67-.27h.48v19.54zm-3.16-11a9.47 9.47 0 00-2.24-.3 3.91 3.91 0 00-2.89 1.03 4.54 4.54 0 00-1.11 3.26 5 5 0 00.86 2.9 3 3 0 002.54 1.35 5.71 5.71 0 002.87-.86v-7.41zM321.76 37.65v3.06a9.51 9.51 0 01-4 .84 7.43 7.43 0 01-5.06-1.81 7.11 7.11 0 01-2.16-5.46 7.6 7.6 0 012-5.41 6 6 0 014.33-1.87 6.56 6.56 0 012.06.34 4.92 4.92 0 012.4 1.75 7.1 7.1 0 011.15 4.25v2.1H314a3.67 3.67 0 001.59 2.39 4.65 4.65 0 002.55.69 7.6 7.6 0 003.52-.92zM319.59 33a3.38 3.38 0 00-.92-2.24A2.42 2.42 0 00317 30a2.79 2.79 0 00-1.85.69 3.88 3.88 0 00-1.21 2.31h5.65zM333.32 30.75a4.47 4.47 0 00-2.37-.7 4.62 4.62 0 00-2.82 1v10.2H325v-14h2.67l.33 1.17a5.47 5.47 0 013.52-1.42 8.15 8.15 0 011.42.12 4.72 4.72 0 011.38.43zM346.31 37.65v3.06a9.51 9.51 0 01-4 .84 7.43 7.43 0 01-5.06-1.81 7.11 7.11 0 01-2.16-5.46 7.6 7.6 0 012-5.41 6 6 0 014.33-1.87 6.56 6.56 0 012.06.34 4.92 4.92 0 012.4 1.75 7.1 7.1 0 011.12 4.25v2.1h-8.5a3.67 3.67 0 001.59 2.39 4.65 4.65 0 002.55.69 7.6 7.6 0 003.52-.92zM344.14 33a3.38 3.38 0 00-.92-2.24 2.42 2.42 0 00-1.71-.67 2.79 2.79 0 00-1.85.69 3.88 3.88 0 00-1.17 2.22h5.65zM349.51 27.27h2.67l.31 1.09A8.2 8.2 0 01357 27a5.37 5.37 0 013.55 1.17A4.78 4.78 0 01362 32v9.29h-3.16v-8.38a2.69 2.69 0 00-1-2.23 3.52 3.52 0 00-2.21-.65 5.9 5.9 0 00-3 .86v10.38h-3.16v-14zM232.53 49.78a.81.81 0 011.61 0 .81.81 0 01-.81.79.83.83 0 01-.8-.79zm.22 2.12h1.15v7.78h-1.15V51.9zM235.94 58.39a5.49 5.49 0 001.79.39c.82 0 2-.37 2-1.26a1 1 0 00-.58-.9c-.46-.29-1.27-.53-2-.91A2 2 0 01236 53.8c0-1.48 1.23-2 2.64-2a6 6 0 011.58.22v1a7.75 7.75 0 00-1.72-.25c-.68 0-1.32.2-1.32.91a1.1 1.1 0 00.61.94c.49.32 1.42.59 2.17 1a1.64 1.64 0 011 1.72 2.22 2.22 0 01-1 1.88 3.93 3.93 0 01-2.17.61 4.51 4.51 0 01-1.77-.35v-1.09zM246.58 55.81a4.36 4.36 0 011-2.88 3.4 3.4 0 015.15 0 4.64 4.64 0 010 5.71 3.39 3.39 0 01-2.6 1.18 3.28 3.28 0 01-2.56-1.18 4.35 4.35 0 01-.99-2.83zm1.16-.06a3.49 3.49 0 00.61 2.11 2.19 2.19 0 001.83.89 2.13 2.13 0 001.77-.83 3.41 3.41 0 00.6-2.08 3.63 3.63 0 00-.6-2.12 2.13 2.13 0 00-1.81-.88 2.16 2.16 0 00-1.78.84 3.42 3.42 0 00-.62 2.07zM255.51 51.9h.78l.22.72a6.58 6.58 0 011.12-.59 3.41 3.41 0 011.21-.28 2.79 2.79 0 011.93.65 3 3 0 01.82 2.3v5h-1.16v-4.93a2.09 2.09 0 00-.49-1.54 1.67 1.67 0 00-1.21-.41 2.92 2.92 0 00-1.08.24 7.06 7.06 0 00-1 .51v6.11h-1.16V51.9zM269.82 59.69h-.73l-.24-.69a3.22 3.22 0 01-2.19.83 3 3 0 01-2.44-1.23 4.75 4.75 0 01-.91-2.92 4.07 4.07 0 011-2.79 3.81 3.81 0 013-1.14 7.36 7.36 0 011.44.16V49l1.09-.15h.07v10.84zm-1.16-6.56a4.24 4.24 0 00-1.52-.31 2.57 2.57 0 00-1.92.74 3.08 3.08 0 00-.76 2.22 3.63 3.63 0 00.55 2.07 2.08 2.08 0 001.8.91 2.15 2.15 0 001.84-.85v-4.79zM277.62 56.08h-4.85a2.55 2.55 0 002.57 2.67 4.63 4.63 0 002.1-.55v1.07a4.91 4.91 0 01-2.23.55c-2.26 0-3.61-1.6-3.61-4.13 0-2.26 1-3.94 3.34-3.94 2 0 2.66 1.49 2.66 3.28v1zm-1.14-1c0-1.21-.33-2.2-1.54-2.2a2.23 2.23 0 00-2.11 2.2h3.66zM279.38 51.9h.78l.27.88a2.51 2.51 0 011.91-1 3.56 3.56 0 01.65.07 2.9 2.9 0 01.64.2l-.4 1a2.78 2.78 0 00-1.07-.24 2 2 0 00-1.61 1v5.81h-1.16V51.9zM285 51.9h.78l.22.72a6.6 6.6 0 011.12-.59 3.41 3.41 0 011.21-.28 2.79 2.79 0 011.93.65 3 3 0 01.82 2.3v5h-1.16v-4.93a2.09 2.09 0 00-.49-1.54 1.67 1.67 0 00-1.21-.41 2.92 2.92 0 00-1.08.24 7 7 0 00-1 .51v6.11H285V51.9zM298.81 56.08H294a2.55 2.55 0 002.57 2.67 4.63 4.63 0 002.1-.55v1.07a4.91 4.91 0 01-2.23.55c-2.26 0-3.61-1.6-3.61-4.13 0-2.26 1-3.94 3.34-3.94 2 0 2.66 1.49 2.66 3.28v1zm-1.14-1c0-1.21-.33-2.2-1.54-2.2A2.23 2.23 0 00294 55h3.66zM306.15 59.68H305v-4.92a2.33 2.33 0 00-.4-1.51 1.28 1.28 0 00-1-.43 3.07 3.07 0 00-1.84.73v6.12h-1.16V51.9h.73l.26.71a7.23 7.23 0 011.21-.66 2.62 2.62 0 011-.2 2.19 2.19 0 011.78.84 6.78 6.78 0 011.12-.57 3.37 3.37 0 011.17-.27 2.79 2.79 0 011.93.65 3 3 0 01.82 2.3v5h-1.16v-4.93a2.09 2.09 0 00-.49-1.54 1.67 1.67 0 00-1.21-.41 3.77 3.77 0 00-1.75.58 4.33 4.33 0 01.18 1.3v5zM318.31 56.08h-4.85a2.55 2.55 0 002.54 2.67 4.63 4.63 0 002.1-.55v1.07a4.91 4.91 0 01-2.23.55c-2.26 0-3.61-1.6-3.61-4.13 0-2.26 1-3.94 3.34-3.94 2 0 2.66 1.49 2.66 3.28v1zm-1.14-1c0-1.21-.33-2.2-1.54-2.2a2.23 2.23 0 00-2.11 2.2h3.66zM320.07 51.9h.78l.22.72a6.6 6.6 0 011.12-.59 3.41 3.41 0 011.21-.28 2.79 2.79 0 011.93.65 3 3 0 01.82 2.3v5H325v-4.93a2.09 2.09 0 00-.49-1.54 1.67 1.67 0 00-1.21-.41 2.92 2.92 0 00-1.08.24 7 7 0 00-1 .51v6.11h-1.16V51.9z"/><path class="cls-1" transform="rotate(-18.78 213.354 42.52)" d="M213.08-2.32h.43v89.68h-.43z"/><path class="cls-1" d="M199.24 42.34c-2.08-1.59-3.06 0-4.37-.09-1.11-.09-2.15-1.88-3-1.45-1.64.83.66 3.78 1.65 4.38a24.08 24.08 0 002.27 1.14 3.32 3.32 0 012 3 5.74 5.74 0 01-.08 1.45c-.6 2.55-5.06 4.86-7.63 3.11a5.8 5.8 0 01-2.69-3.79c-.69-3.35-3.11-5.81-3.88-9.09-.47-2-.82-4.09-1.34-6.1s-1.07-4.12-1.51-6a53.29 53.29 0 00-1.83-6c-2.45-6.39-3.56-5.93-3.56-5.93s.89 1.77 4.13 17.44c.13.64 1.31 7.54 2.17 9.82.31.81.84 2.55 1.2 3.32 1 2.25 3.75 5.65 3.93 8.72.1 1.77.31 3.24.35 4.58a14.33 14.33 0 00.46 2.7c.66 1.87 6 7.91 11.73 7.91v-4.52c-5.66 0-11-3.17-11.13-3.51a12.37 12.37 0 01.68-3.28 5.36 5.36 0 014.6-3.75c2.74-.2 4.4.6 5.85.6V42.34zM174.65 25.74c-.21 3.43-5.51 8.11-7.17 11.12a22.13 22.13 0 00-2.06 5.48 14.62 14.62 0 001.19 9c1.75 4.21-.24 5.75 1.13 4.9 1.7-1.38 1.44-4.61 1.31-6.63a28.74 28.74 0 010-5.44c.47-3.65 2.68-7.56 4.56-10.3a9.4 9.4 0 001-8.15M175.72 35.47s.56 2.71-1.83 9.69c-6.26 18.26 5.7 20 9.11 24.28 0 0 1.32-1.86-4.11-7.81-2-2.17-3.77-7-2.21-13.81 2.25-9.91-1-12.35-1-12.35M163.87 23.5a8.79 8.79 0 01-.31-2.9c.29-4.29 4.19-6 5.16-6.67 0 0 1.75-1.2 2-2.41 0 0 1.79 4.52-2.32 7.1a11.69 11.69 0 00-4.5 4.88M173.7 19.35c.22.44 1.84 2.8-4.78 8.26S164.38 37 164.38 37s-7-3.92 1.07-10.69 6.45-8.14 6.45-8.14a2 2 0 011.79 1.22M182.28 21.44c1.14.15 1.87 3.71 4.51 4.49 1.94.57 4 .26 4.47 1.43a1 1 0 00.71 1.78c.74-2.08 1.11-10.14-9.69-7.7zm3.56 1.6c.1-.26.23-.05.52-.23a3.21 3.21 0 011.13-.93 2 2 0 011.19.07c.22.06.09.63-.08.78-.36.26-1.41-.17-1.41.62 0 1.3 1.75 0 2.65 0 .43 3.17-4.78 2.3-4-.35zM10.24 23.78h-7l-1.31 3.71H0l5.47-15.92H8l5.48 15.92h-1.96zM3.81 22h5.84l-2.92-8.43zM26.18 27.52h-.72l-1.11-.86a5.76 5.76 0 01-3.52 1.08 6.84 6.84 0 01-5.3-2.37 9 9 0 01-2-5.93 8.52 8.52 0 011.93-5.73 7.62 7.62 0 016-2.38 15.07 15.07 0 011.91.13 12.82 12.82 0 011.82.36v1.72h-.1a10.82 10.82 0 00-1.8-.39 12.9 12.9 0 00-1.69-.12 6 6 0 00-4.63 1.82 6.46 6.46 0 00-1.53 4.42A7.24 7.24 0 0017 24a5.2 5.2 0 004 2 4.76 4.76 0 002.23-.53 3.85 3.85 0 001.08-.85v-4h-3.4v-1.87h5.27v8.77zM28.81 11.57h9.59v1.74h-7.72v5.35h7.72v1.74h-7.72v5.35h7.72v1.74h-9.59V11.57zM42.81 15.07v12.42h-1.87V11.57h1.94l7.69 12.31V11.57h1.87v15.92h-1.86zM54.31 11.57H66v1.74h-4.9v14.18h-1.86V13.31h-4.93v-1.74zM66.72 25.34a10 10 0 003.5.66c1.84 0 3.65-.66 3.65-2.62a2.48 2.48 0 00-1.4-2.26c-.76-.48-3.79-1.91-4.45-2.45a3.67 3.67 0 01-1.26-3c0-3 2.14-4.29 4.93-4.29a10.07 10.07 0 012.8.42v1.59a14.49 14.49 0 00-2.76-.39c-1.76 0-3.23.57-3.23 2.43a1.92 1.92 0 00.69 1.61c.79.7 3.26 1.7 4.46 2.56s2 1.55 2 3.32c0 3.16-2.65 4.77-5.68 4.77a7.44 7.44 0 01-3.25-.7v-1.65zM89.31 25.52v1.72a13 13 0 01-1.81.36 12.71 12.71 0 01-1.86.13 7.55 7.55 0 01-6-2.37 9 9 0 01-2-6.09 8.54 8.54 0 012-5.67 7.7 7.7 0 015.93-2.28 14.64 14.64 0 011.86.13 13 13 0 011.81.36v1.72h-.08a11 11 0 00-1.81-.39 12.59 12.59 0 00-1.68-.12 6 6 0 00-4.63 1.79 6.78 6.78 0 00-1.55 4.65 6.8 6.8 0 001.53 4.64 5.94 5.94 0 004.71 1.9 12.59 12.59 0 001.68-.12 11 11 0 001.81-.39zM101.37 20.46H93.6v7h-1.87V11.57h1.87v7h7.77v-7h1.87v15.92h-1.87v-7zM115.22 23.78h-7l-1.28 3.71H105l5.47-15.92H113l5.48 15.92h-1.98zM108.78 22h5.85l-2.92-8.47zM120.18 27.49V11.57h3.13a11.32 11.32 0 015.88 1.21 4.34 4.34 0 012 4 4.93 4.93 0 01-1.11 3.36 5.88 5.88 0 01-2.88 1.76 14.23 14.23 0 01-4 .51H122v5.12h-1.87zM122 13.33v7.27h1.5a9 9 0 004.19-.76A2.93 2.93 0 00129.3 17a3.1 3.1 0 00-1.67-2.94 8.72 8.72 0 00-4.08-.76H122zM4.1 33.84v15.92H1.27V33.84H4.1zM9.57 39.17v10.59H6.74V33.84h2.83l6.62 10.59V33.84H19v15.92h-2.81zM24.49 39.17v10.59h-2.83V33.84h2.83l6.62 10.59V33.84h2.83v15.92h-2.83zM36.23 41.78a8.52 8.52 0 012.14-5.83 7.37 7.37 0 015.54-2.36 7.15 7.15 0 015.47 2.36 8.71 8.71 0 012.05 5.83 8.52 8.52 0 01-2.13 5.83A7.36 7.36 0 0143.78 50a7.15 7.15 0 01-5.47-2.38 8.66 8.66 0 01-2.08-5.84zm2.83-.12a6.28 6.28 0 001.24 4 4.44 4.44 0 003.61 1.61 4.3 4.3 0 003.5-1.52 6 6 0 001.2-3.85 5.9 5.9 0 00-1.52-4.18 4.68 4.68 0 00-3.35-1.43 4.47 4.47 0 00-3.23 1.37 5.57 5.57 0 00-1.45 4zM65.76 33.84L60.19 50h-3.31l-5.57-16.16h3l4.23 12.27 4.23-12.27h3zM67.2 33.84h9.46v2.72H70v3.93h6.45v2.71H70V47h6.63v2.72H67.2V33.84zM79.19 49.76V33.84h4.57a10.85 10.85 0 013.25.47 5.72 5.72 0 012.73 1.75 5.27 5.27 0 011.15 3.52 4.9 4.9 0 01-.76 2.75 5.18 5.18 0 01-2 1.74 8.28 8.28 0 001.7 2.3A6.85 6.85 0 0092.17 48v.13L90.91 50a4.12 4.12 0 01-2.34-.89 9 9 0 01-2-2 9.15 9.15 0 01-1.21-2.19 10.07 10.07 0 01-1.61.1H82v4.76h-2.81zM82 36.55v5.73h1.79a5.66 5.66 0 003.36-.76 2.32 2.32 0 00.88-2 2.51 2.51 0 00-.88-2.11 5.35 5.35 0 00-3.36-.82H82zM94 33.84h9.46v2.72h-6.65v3.93h6.45v2.71h-6.45V47h6.63v2.72H94V33.84zM108.8 39.17v10.59H106V33.84h2.83l6.62 10.59V33.84h2.83v15.92h-2.83zM139.61 48.14L137.67 50l-1.84-1.82a6.22 6.22 0 01-4.51 1.82 5.41 5.41 0 01-3.62-1.23 4.39 4.39 0 01-1.44-3.42 5.23 5.23 0 012.43-4.47 5.37 5.37 0 01-.85-1.4 5.06 5.06 0 01-.43-2 3.69 3.69 0 013.93-3.85 5 5 0 012.83.83 3.28 3.28 0 011.4 2.83 4.11 4.11 0 01-.89 2.6 5.74 5.74 0 01-1.91 1.55l2.69 2.71a15.8 15.8 0 001-3.53h.1l2.27 1a14.91 14.91 0 01-1.4 4.38zm-9.07-5.23a3.85 3.85 0 00-1.09.94 2.44 2.44 0 00-.47 1.47 2.07 2.07 0 002.36 2.11 3.26 3.26 0 002.57-1.17zm-.54-5.45a3.23 3.23 0 001 2.08 4.41 4.41 0 001.24-.68 1.77 1.77 0 00.72-1.4 1.17 1.17 0 00-.54-1.06 2.06 2.06 0 00-1.05-.27 1.22 1.22 0 00-1.11.5 1.46 1.46 0 00-.26.83zM.42 64a8.52 8.52 0 012.14-5.83 7.37 7.37 0 015.54-2.36 7.15 7.15 0 015.47 2.36A8.71 8.71 0 0115.63 64a8.52 8.52 0 01-2.13 5.83A7.36 7.36 0 018 72.26a7.15 7.15 0 01-5.5-2.38A8.66 8.66 0 01.42 64zm2.83-.12a6.28 6.28 0 001.24 4 4.44 4.44 0 003.61 1.61A4.3 4.3 0 0011.61 68a6 6 0 001.2-3.85A5.9 5.9 0 0011.28 60a4.68 4.68 0 00-3.35-1.43 4.47 4.47 0 00-3.23 1.37 5.57 5.57 0 00-1.45 3.99zM20.75 61.44V72h-2.82V56.1h2.83l6.61 10.6V56.1h2.83V72h-2.83zM32.85 72V56.1h5.28a8.66 8.66 0 016.18 2.33A7.74 7.74 0 0146.59 64a8.07 8.07 0 01-2 5.47A8.22 8.22 0 0138.26 72h-5.41zm2.83-13.2v10.5h2.11a5.87 5.87 0 004.61-1.78A5.28 5.28 0 0043.65 64a5 5 0 00-1.52-3.61 6.43 6.43 0 00-4.55-1.62h-1.9zM48.89 56.1h9.46v2.72h-6.64v3.93h6.45v2.72h-6.45v3.83h6.63V72h-9.45V56.1zM60.88 72V56.1h4.57a10.85 10.85 0 013.25.47 5.72 5.72 0 012.73 1.75 5.27 5.27 0 011.15 3.52 4.9 4.9 0 01-.76 2.75 5.18 5.18 0 01-2 1.74 8.28 8.28 0 001.7 2.3 6.85 6.85 0 002.31 1.62v.13l-1.23 1.88a4.12 4.12 0 01-2.34-.89 9 9 0 01-2-2 9.15 9.15 0 01-1.21-2.19 10.07 10.07 0 01-1.61.1h-1.73V72h-2.83zm2.83-13.2v5.73h1.79a5.66 5.66 0 003.36-.76 2.32 2.32 0 00.88-2 2.51 2.51 0 00-.88-2.11 5.35 5.35 0 00-3.36-.82h-1.79zM78.5 61.44V72h-2.83V56.1h2.83l6.62 10.6V56.1h2.83V72h-2.83zM90.59 56.1H100v2.72h-6.58v3.93h6.45v2.72h-6.45v3.83H100V72h-9.41V56.1zM116.06 72h-2.83v-9.85L110.67 67H108l-2.57-4.83V72h-2.83V56.1h2.83l3.91 7.38 3.91-7.38h2.83V72zM118.71 56.1h9.46v2.72h-6.63v3.93H128v2.72h-6.45v3.83h6.63V72h-9.46V56.1zM133.53 61.44V72h-2.83V56.1h2.83l6.62 10.59V56.1H143V72h-2.83z"/></svg>