<svg fill="none" xmlns="http://www.w3.org/2000/svg" viewBox="0 0 63 25"><path d="M62.193.415v23.821h-7.277V.412l7.277.003zM17.911.485v2.804C16.761 1.354 13.889 0 10.967 0 4.837.002 0 5.467 0 12.343c0 6.875 4.838 12.385 10.967 12.385 2.97 0 5.798-1.355 6.944-3.29v2.798h7.276V.485h-7.276zM12.48 18.667a6.199 6.199 0 01-3.47-1.063 6.294 6.294 0 01-2.299-2.83 6.367 6.367 0 01-.355-3.645 6.327 6.327 0 011.71-3.23 6.224 6.224 0 013.197-1.725 6.185 6.185 0 013.607.36 6.257 6.257 0 012.802 2.324 6.363 6.363 0 01.576 5.918 6.31 6.31 0 01-1.354 2.045 6.237 6.237 0 01-2.025 1.367c-.758.317-1.57.48-2.39.48zM40.022 6.53l-4.096 5.724 4.096 5.796 4.096-5.796-4.096-5.723z" fill="#7B36FE"/><path opacity=".6" d="M44.117 12.254L52.428.42h-8.032l-4.373 6.11 4.096 5.723z" fill="#7B36FE"/><path opacity=".8" d="M35.926 12.254l4.096-5.723L35.648.42h-8.032l8.31 11.833z" fill="#7B36FE"/><path opacity=".6" d="M35.926 12.254l-8.31 11.98h8.032l4.374-6.184-4.096-5.796z" fill="#7B36FE"/><path opacity=".8" d="M44.117 12.254l8.31 11.98h-8.032l-4.373-6.184 4.096-5.796z" fill="#7B36FE"/></svg>