<?xml version="1.0" encoding="utf-8"?>
<!-- Generator: Adobe Illustrator 14.0.0, SVG Export Plug-In . SVG Version: 6.00 Build 43363)  -->
<!DOCTYPE svg PUBLIC "-//W3C//DTD SVG 1.1//EN" "http://www.w3.org/Graphics/SVG/1.1/DTD/svg11.dtd">
<svg version="1.1" id="H_x26_M" xmlns:svg="http://www.w3.org/2000/svg"
	 xmlns="http://www.w3.org/2000/svg" xmlns:xlink="http://www.w3.org/1999/xlink" x="0px" y="0px" width="400px" height="300px"
	 viewBox="154.331 83.746 400 300" enable-background="new 154.331 83.746 400 300" xml:space="preserve">
<path id="H_x26_M_3_" fill="#CC071E" d="M403.032,162.591c8.577-4.212,12.826-3.66,12.923,0.61
	c0.113,5.546-0.706,12.921-1.297,18.257c-3.184,29.005-8.501,52.707-8.9,82.487c14.007-36.264,25.747-61.469,40.88-92.511
	c4.803-9.891,7.87-8.042,11.816-9.796c15.361-6.841,15.934-2.649,13.932,5.718c-7.452,30.989-26.529,128.56-29.445,143.584
	c-0.839,4.346-5.564,2.503-6.784,0.804c-5.471-7.566-11.646-7.685-10.96-12.716c3.432-25.049,15.78-87.896,19.002-102.704
	c-16.409,33.642-33.43,75.697-42.177,99.544c-1.849,5.063-5.222,4.692-7.319,0.987c-2.953-5.204-8.689-7.861-9.642-14.012
	c-2.993-19.553,3.43-56.824,4.324-80.403c-8.937,25.757-23.937,75.765-30.511,98.358c-2.708,9.349-11.741,7.824-9.34-1.289
	c9.987-37.915,31.503-104.978,40.805-129.086C392.532,164.744,398.268,164.935,403.032,162.591"/>
<path id="H_x26_M_2_" fill="#CC071E" d="M348.563,157.941c-2.896-0.706-11.302,3.831-16.467,4.727
	c-1.639,0.286-3.201,2.02-3.754,3.259c-8.271,19.001-15.685,37.114-22.108,53.615c-8.214,1.403-17.819,3.25-28.568,5.664
	c7.699-19.75,15.475-39.23,23.06-57.964c3.735-9.225-6.099-10.101-9.91-0.763c-4.956,12.141-14.237,34.887-24.51,61.398
	c-7.547,1.851-15.551,3.966-23.918,6.383c-6.079,1.756-6.327,3.375-3.697,7.021c1.448,2.03,4.441,1.825,5.813,3.271
	c3.545,3.75,5.698,8.234,12.044,8.912c-5.66,15.143-11.32,30.757-16.448,45.791c-3.221,9.438,5.947,11.369,9.473,1.383
	c5.679-16.1,11.664-32.393,17.819-48.638c5.127-1.192,17.533-3.864,28.987-6.349c-9.091,24.918-15.076,43.841-17.343,53.052
	c-0.419,1.772,0.286,2.755,0.667,3.478c3.068,4.466,5.984,4.647,9.929,10.17c1.068,1.505,4.65,2.318,5.87-1.39
	c8.424-25.445,17.096-49.319,25.176-70.722c3.354-0.735,9.396-2.192,13.093-7.71c6.575-9.793,8.462-7.807,10.045-10.784
	c1.982-3.737,0.666-7.246-6.347-6.378c0,0-2.65,0.188-7.548,0.747c7.776-20.021,14.58-37.003,19.478-49.943
	C351.08,161.79,351.288,158.588,348.563,157.941"/>
<path id="H_x26_M_1_" fill="#CC071E" d="M337.09,287.793c1.811,4.575,7.472,3.189,5.317-2.333
	c-2.191-5.626-7.642-22.563-9.071-28.021c-1.944-7.352,6.48-5.341,2.211-0.534c-3.659,4.134-6.099,5.79-12.864,13.648
	c-6.538,7.588-4.765,17.434,2.229,19.609c7.89,2.453,14.846-6.24,19.153-12.62c4.173-6.176,0.134-9.799-4.078-6.148
	c-2.707,2.349-5.832,5.954-8.996,7.898c-2.573,1.565-4.594-0.115-1.163-4.839c3.983-5.468,8.443-10.049,11.758-15.217
	c6.767-10.53-6.613-16.599-12.368-9.76c-3.087,3.646-2.306,7.226-1.468,10.298C329.104,264.696,334.135,280.404,337.09,287.793"/>
</svg>
