<?xml version="1.0"?>
<svg xmlns="http://www.w3.org/2000/svg" viewBox="0 0 64 64" width="512" height="512"><title>Brand-corporate-design-development-identity</title><g id="FillOutline"><rect x="14" y="7" width="36" height="54" style="fill:#56a8c6"/><rect x="7" y="33" width="32" height="28" style="fill:#80c5d4"/><rect x="25" y="43" width="32" height="18" style="fill:#56a8c6"/><rect x="39" y="11" width="18" height="10" style="fill:#80c5d4"/><path d="M43,33H57a0,0,0,0,1,0,0v6a0,0,0,0,1,0,0H45a2,2,0,0,1-2-2V33A0,0,0,0,1,43,33Z" style="fill:#fbb03b"/><path d="M57,43h0a6,6,0,0,1-6,6H31a6,6,0,0,1-6-6H57Z" style="fill:#196aaf"/><polygon points="57 29 36 29 32 27 36 25 57 25 57 29" style="fill:#fbb03b"/><rect x="43" y="25" width="14" height="4" style="fill:#196aaf"/><rect x="47" y="33" width="10" height="6" style="fill:#196aaf"/><path d="M57,22a1,1,0,0,0,1-1V11a1,1,0,0,0-1-1H51V7a1,1,0,0,0-1-1H14a1,1,0,0,0-1,1V32H7a1,1,0,0,0-1,1V61a1,1,0,0,0,1,1H57a1,1,0,0,0,1-1V43a1,1,0,0,0-1-1H51V40h6a1,1,0,0,0,1-1V33a1,1,0,0,0-1-1H51V30h6a1,1,0,0,0,1-1V25a1,1,0,0,0-1-1H51V22Zm-1-2H40V12H56Zm0,40H26V47.89A6.977,6.977,0,0,0,31,50H51a6.977,6.977,0,0,0,5-2.11ZM26.1,44H55.9A5.009,5.009,0,0,1,51,48H31A5.009,5.009,0,0,1,26.1,44ZM56,38H48V34h8ZM45,38a1,1,0,0,1-1-1V34h2v4ZM56,28H44V26H56ZM36.236,28l-2-1,2-1H42v2ZM49,24H36a1,1,0,0,0-.447.105L31.764,26H30v2h1.764L35.553,29.9A1,1,0,0,0,36,30H49v2H43a1,1,0,0,0-1,1v4a3,3,0,0,0,3,3h4v2H25a1,1,0,0,0-1,1V60H8V34H38v6h2V33a1,1,0,0,0-1-1H15V8H49v2H39a1,1,0,0,0-1,1V21a1,1,0,0,0,1,1H49Z"/><rect x="42" y="14" width="2" height="2"/><rect x="17" y="10" width="2" height="2"/><rect x="10" y="36" width="2" height="2"/><rect x="21" y="10" width="8" height="2"/><rect x="14" y="36" width="8" height="2"/><rect x="28" y="56" width="2" height="2"/><rect x="32" y="56" width="8" height="2"/><rect x="46" y="14" width="8" height="2"/><rect x="2" y="43" width="2" height="16"/><path d="M13,4H30V2H13A4,4,0,0,0,9,6v7h2V6A2,2,0,0,1,13,4Z"/><rect x="32" y="2" width="2" height="2"/><rect x="60" y="26" width="2" height="20"/></g></svg>
