<?xml version="1.0" encoding="utf-8"?>
<!-- Generator: Adobe Illustrator 23.0.3, SVG Export Plug-In . SVG Version: 6.00 Build 0)  -->
<svg version="1.1" id="logosvg.com" xmlns="http://www.w3.org/2000/svg" xmlns:xlink="http://www.w3.org/1999/xlink" x="0px"
	 y="0px" viewBox="0 0 400 300" style="enable-background:new 0 0 400 300;" xml:space="preserve">
<style type="text/css">
	.st0{fill:#009CDE;}
</style>
<path id="blue" class="st0" d="M98.93195,134.92491l0.18572-0.37144l-0.49527-0.80482l0.24766-0.61909l0.37144-0.68103
	l1.11437-0.55717l0.49531,0.61909l-0.49531,0.24762l0.24766,0.49532l0.24761,0.18571l-0.18572,0.18573l-1.17627-0.80482
	l-0.43337,0.681l0.86671,1.11436l-0.37144,0.74294l-1.2382,0.37144l-0.06194-0.55717L98.93195,134.92491z M136.01602,143.53041
	c-0.99054-4.8909-3.65266-9.2865-7.55298-12.38199c-2.60023-2.16685-3.28127-2.72406-4.27181-4.08609
	c3.7146,12.50583,9.47222,12.56776,11.94862,22.03998c0.37149-4.8909,10.5247-13.0011,0.92865-26.62129
	C139.54491,128.79584,135.83031,137.46324,136.01602,143.53041z M118.37167,115.91853
	c3.40505,11.1438,11.39146,8.6674,16.77763,20.3065c-0.55721-3.90031,3.90033-16.46808-6.56248-24.1449
	c3.52888,4.27177,2.47641,12.25818,4.51947,17.45863C129.0202,120.80944,120.29091,119.38551,118.37167,115.91853z
	 M60.60965,127.49571c0.06189-0.24762,0.12383-0.55717,0.18572-0.80482c-0.30955,0.0619-0.55717,0.12383-0.86672,0.0619
	L60.60965,127.49571z M120.60046,114.68033c2.41447,2.90978,6.62434,4.58136,9.10075,7.49113
	c-1.79537-8.54357-8.35786-15.53943-16.1585-17.21097C117.38113,107.80833,118.18595,111.77059,120.60046,114.68033z
	 M88.46915,108.42744l1.05247,0.0619l0.43338-0.37144l-0.80486-0.37144l-2.16685-0.06194l-0.55717,0.37148l-1.2382-0.12383v0.30955
	c0.80482,0.0619,1.60965,0.12383,2.22874,0.24762L88.46915,108.42744z M295.31049,135.23447
	c0-6.93393,3.65268-12.32008,9.59607-12.32008c5.01468,0,9.2865,2.90974,9.2865,12.4439v1.11436h-13.43448
	c0,3.96227,1.60965,6.37672,5.94333,6.37672c3.40506,0,5.07663-1.05244,6.12912-1.79536l0.18573,4.33369
	c-2.16687,0.99055-4.58133,1.48582-6.93393,1.48582C298.59171,146.87354,295.31049,141.4874,295.31049,135.23447z
	 M300.69662,132.88188h8.04831c0-4.08604-1.36203-6.19099-3.90033-6.19099
	C301.87296,126.69089,300.69662,129.78639,300.69662,132.88188z M91.13127,122.2953
	c-2.04302-0.86676-4.20987-1.42397-6.37672-1.73351c0,0.49531,0,0.92865,0,1.42396c2.04302,0.30956,4.02415,0.86672,5.88145,1.60965
	C90.88366,123.16201,91.06938,122.72863,91.13127,122.2953z M188.76335,134.80109
	c0.06194-9.47223,5.5719-11.94862,10.27708-11.94862c4.76709,0,10.21515,2.47639,10.21515,11.94862
	c0,9.78181-5.44806,12.01056-10.21515,12.01056C194.27336,146.81165,188.76335,144.52097,188.76335,134.80109z M194.58292,134.86302
	c0,3.90031,0.86671,8.04829,4.45752,8.04829c3.59077,0,4.45753-4.14798,4.45753-8.04829c0-3.90033-0.80482-7.98641-4.45753-7.98641
	C195.38774,126.87661,194.58292,130.96269,194.58292,134.86302z M344.77658,112.63731h-5.57193v33.86478h5.57193V112.63731z
	 M232.10036,112.63731h-5.63379v33.86478h5.63379V112.63731z M128.09155,139.75388
	c-0.55717,11.32957,5.81955,13.31065,5.38618,23.21626c2.66211-6.87199,13.12492-8.85313,9.22456-25.32117
	c0.06194,6.31482-5.5719,9.96748-7.92447,19.87309C135.27313,146.31636,130.93944,145.14006,128.09155,139.75388z M78.935,128.30054
	c0.86675-0.24762,1.67158-0.43334,2.53833-0.6191l1.67158-0.43334c0.0619-4.14798,0.49527-21.91615,0.49527-22.03999
	c0.37145-2.84785,3.28123-10.95808-2.47639-10.95808c-5.5719,0-3.21933,8.29595-2.78595,11.02001
	C78.37783,105.39383,78.8112,124.02876,78.935,128.30054z M84.25928,153.62173h-0.12383c0,0.30956-0.0619,1.73347-0.0619,2.47641
	c0.80482-0.43338,1.36199-0.80482,1.36199-1.42393C85.43555,154.30273,84.94028,153.93129,84.25928,153.62173z M77.69679,140.80637
	c-0.06189-1.42393-0.06189-2.97168-0.06189-3.21933h-0.0619c-1.2382,0.74292-1.8573,1.60968-1.91924,2.78595
	c0,1.2382,0.74293,2.04306,2.04306,2.78595c0,0,0-0.18573,0-0.55717l-0.80486-0.86674l0.43337-0.80482L77.69679,140.80637z
	 M72.6821,112.26586c1.42393-0.74293,2.90978-1.30013,4.3956-1.7954c0,1.48586,0.06193,3.21933,0.06193,5.07663
	c-1.54774,0.55721-2.84788,1.60964-3.83842,2.90977c-0.92865,1.30009-4.20987,3.34312-6.37672,4.58132
	c-1.91924,1.11441-2.97171,1.1763-3.46698,1.05247c-0.37145,0.30955-1.42392,1.2382-2.60023,3.90032
	c0.12383-0.68099,0.30955-1.36199,0.55721-2.04302c0,0-1.42392,0.68103-2.4764,0.18572
	c1.11437,0.18576,2.22878-0.24762,2.97167-1.11437c0.37148-0.43338,0.68103-0.99055,0.80486-1.54775
	c0,0-0.18576-0.74293,0.55717-1.98112c0.49527-0.80482,0.5572-2.41447,1.2382-3.40505
	c0.68103-0.92865,1.36203-1.8573,2.10496-2.72401C68.90561,112.88496,71.13435,112.76114,72.6821,112.26586z M69.71043,116.78529
	l-1.54774-0.0619l-1.36203,2.22875l1.11437-0.24766L69.71043,116.78529z M81.28761,157.02679
	c0.43334-0.12384,0.80482-0.24767,1.2382-0.37144c0-1.17632,0.37144-17.76819,0.43334-20.73985
	c-1.30009,0.30954-2.60019,0.68098-3.83839,1.11436c0.06189,2.22874,0.37144,18.75873,0.37144,20.55414
	C80.1113,157.39824,80.7304,157.15062,81.28761,157.02679z M68.28651,140.24919c0,6.12907,4.89087,8.35785,9.65794,9.84367
	c0-1.73347-0.0619-3.52884-0.12383-5.26236c-2.16685-0.99054-3.59077-2.29066-3.59077-4.45752s1.36203-3.40506,3.40505-4.33371
	c0.43337-0.18571,0.92865-0.37144,1.48586-0.55716c1.17626-0.43338,2.53829-0.74294,3.90032-1.11438l1.48586-0.37148
	c6.68627-1.60965,14.2393-3.7146,14.17737-12.69155c0-4.51942-3.28123-9.47222-11.26763-11.2057
	c-0.80482-0.12383-1.60964-0.24766-2.41447-0.30955c0,0.68099-0.06193,2.22874-0.06193,2.22874
	c0,0.49527-0.0619,2.29067-0.0619,2.66212c0.49527,0.06194,1.05247,0.12383,1.54775,0.18576
	c4.64325,1.11437,6.31483,3.7765,6.31483,6.37672c0,4.27177-3.65271,5.88145-8.11024,7.11966l-1.48582,0.37144
	c-1.36203,0.30954-2.78595,0.68103-4.14798,1.05247c-0.49527,0.12383-0.99054,0.24765-1.48586,0.43338
	C72.55827,131.70558,68.28651,134.12009,68.28651,140.24919z M80.48274,164.33217c-0.37144,0.12383-0.80482,0.30954-0.80482,0.43336
	c0,0,0.37148,19.06828,0.37148,19.43973c0,3.90036,1.98109,3.96225,1.98109,0c0-0.24762,0.43338-20.61603,0.43338-20.61603
	s-0.55717,0.18576-0.86672,0.30956C81.41139,163.96072,80.85423,164.20833,80.48274,164.33217z M91.75037,154.73611
	c0-4.45753-3.59077-6.2529-7.55302-7.61493c-0.0619,1.42392-0.0619,3.46695-0.12379,4.89091
	c1.67154,0.61909,2.78595,1.42392,2.78595,2.72401c0,1.60968-1.67158,2.47639-2.90977,2.97166
	c-0.49528,0.18576-1.2382,0.43338-1.48586,0.49532c-0.99055,0.30956-1.98109,0.61909-2.97167,0.99054
	c-0.49528,0.18573-0.99055,0.37144-1.48586,0.61911c-1.60965,0.86674-3.40505,2.16684-3.40505,4.39558
	c0,2.47641,1.7954,3.77654,3.59081,4.82901c0-0.43336-0.06194-4.2099-0.06194-4.2718
	c0.06194-0.74292,0.74293-1.23819,1.36203-1.48586c0.92865-0.43333,1.91919-0.80481,2.90977-1.11436
	c0.55717-0.18573,0.99055-0.37144,1.48582-0.49527C87.5405,160.55566,91.75037,159.19363,91.75037,154.73611z M88.90253,177.20944
	c0.37144-4.9528-2.41451-7.05772-5.13852-8.54358l-0.06194,2.84789C85.93085,172.62811,88.03577,174.23776,88.90253,177.20944z
	 M236.61978,182.78134c0,1.36201,0.12383,2.72404,0.30956,4.08607h-5.07663c-0.24762-1.05247-0.37144-2.10495-0.30956-3.15742
	h-0.06189c-1.42392,1.91922-3.15739,3.52887-6.50055,3.52887c-3.59077,0-6.93393-2.47639-6.93393-6.8101
	c0-6.31482,5.13852-7.92447,12.25816-7.92447h1.11438v-0.86676c0-2.29063-1.11438-4.45749-4.33369-4.45749
	c-2.29068,0.0619-4.51942,0.86673-6.37672,2.29065l-0.37144-4.45749c2.29068-1.17632,4.82896-1.73352,7.36729-1.73352
	c7.24348,0,8.91502,3.52888,8.91502,9.34843V182.78134z M231.41936,176.89992l-0.06192-1.36201h-0.49529
	c-4.76707,0-7.61491,0.99054-7.61491,4.39558c-0.12383,1.8573,1.30013,3.46698,3.15742,3.59077c0.12384,0,0.24762,0,0.43338,0
	C230.18117,183.52426,231.41936,181.04787,231.41936,176.89992z M277.41849,132.57234h9.34839v13.99164h5.75763v-31.5741h-5.75763
	v12.81538h-9.34839v-12.81538h-5.81955v31.51221h5.81955V132.57234z M263.79828,159.25554h5.81958v-5.50998h-5.81958V159.25554z
	 M210.49376,163.71306h5.07661c-0.06189,1.2382-0.18571,2.41451-0.18571,3.65271v17.14903
	c0,7.30542-2.22874,12.44394-10.77232,12.44394c-2.72404,0-5.44807-0.49527-7.9864-1.42392l0.24767-4.9528
	c2.1049,1.2382,4.45752,1.9192,6.87199,1.98112c5.26234,0,6.1291-3.65269,6.1291-7.3054v-2.22874h-0.06194
	c-0.92865,1.79536-2.47639,3.96222-6.12907,3.96222c-3.21933,0-8.11023-2.16685-8.11023-11.57715
	c0-6.43864,2.29068-12.07245,8.41978-12.07245c3.40504,0,4.9528,1.9192,6.12907,3.96222h0.18571
	C210.30803,166.06563,210.43185,164.88937,210.49376,163.71306z M209.93658,175.04259c0-4.89087-1.8573-7.4911-4.51942-7.4292
	c-2.97166,0.06194-4.08604,2.78595-4.08604,7.49113c-0.00003,5.44807,1.73347,7.73874,3.65266,7.73874
	C208.51266,182.84326,209.93658,180.30493,209.93658,175.04259z M263.92212,186.92931h5.5719v-23.27814h-5.5719V186.92931z
	 M243.36798,146.87354c-5.75761,0-8.17212-5.50996-8.17212-11.94862c0-7.61492,3.03357-12.01052,8.04829-12.01052
	c2.60023-0.12383,4.9528,1.36199,6.00528,3.7146h0.0619v-13.99168h5.63382v29.90253c0,1.30013,0.0619,2.66216,0.18573,3.96225
	h-5.26234c-0.12384-1.1763-0.18573-2.41451-0.18573-3.59077h-0.12383C248.63034,144.89244,246.95876,146.87354,243.36798,146.87354z
	 M244.85384,142.72559c3.28123,0,4.3956-3.59081,4.3956-7.9245c0-4.51942-1.2382-7.80065-4.33369-7.80065
	c-3.0955,0-4.20987,3.03361-4.20987,7.67686C240.76776,140.06343,241.63452,142.72559,244.85384,142.72559z M222.50435,128.05292
	c0.49527,0,1.05247,0.12383,1.54774,0.24762v-5.26235c-0.30954-0.0619-0.61909-0.12379-0.92865-0.12379
	c-3.52887,0-5.26234,2.78595-5.94337,4.58132h-0.0619c0-1.42393-0.12383-2.84785-0.18571-4.27177h-5.07663
	c0.12379,1.30009,0.18571,2.53829,0.18571,3.83839l0.06194,19.50165h5.5719v-12.75345
	C217.67537,129.47684,220.21367,128.05292,222.50435,128.05292z M310.29269,182.78134c0,1.36201,0.12381,2.72404,0.30954,4.08607
	h-5.07663c-0.24762-1.05247-0.37143-2.10495-0.30954-3.15742h-0.06189c-1.42392,1.91922-3.15741,3.52887-6.50055,3.52887
	c-3.59079,0-6.93393-2.47639-6.93393-6.8101c0-6.31482,5.13852-7.92447,12.25815-7.92447h1.11438v-0.86676
	c0-2.29063-1.11438-4.45749-4.33368-4.45749c-2.29068,0.0619-4.51944,0.86673-6.37674,2.29065l-0.37143-4.45749
	c2.29068-1.17632,4.82895-1.73352,7.36728-1.73352c7.2435,0,8.91504,3.52888,8.91504,9.34843V182.78134z M305.09225,175.5379
	h-0.06192h-0.49527c-4.76709,0-7.61493,0.99054-7.61493,4.39558c-0.12381,1.8573,1.30014,3.46698,3.15744,3.59077
	c0.12384,0,0.24762,0,0.43338,0c3.34311,0,4.5813-2.47639,4.5813-6.62434V175.5379z M252.6545,163.34161
	c-3.7765,0-5.38618,2.47641-6.19101,3.90033h-0.06189c0-1.17627-0.12383-2.41447-0.18573-3.59077h-5.26234
	c0.12379,1.30009,0.18571,2.5383,0.18571,3.83842v19.37782h5.5719v-13.55827c0-2.97171,1.05244-5.4481,3.96222-5.4481
	c2.29068,0,3.21933,1.48586,3.21933,5.07663v13.99164h5.63383v-14.98218
	C259.52652,167.24194,257.91684,163.34161,252.6545,163.34161z M289.42905,168.41821v-4.76704h-15.22989v4.27176h9.65799
	l-9.96753,14.17741h-0.06189v4.82896h15.91086v-4.2718h-10.09131L289.42905,168.41821z M368.79761,132.94379
	c0-2.97168,1.05246-5.44807,3.96225-5.44807c2.29068,0,3.21933,1.48586,3.21933,5.07663v13.92975h5.5719v-14.98222
	c0-4.70515-1.60965-8.60548-6.87201-8.60548c-3.46692,0-4.76706,1.9192-5.7576,3.34312h-0.12384v-13.6202h-5.5719l-0.00003,33.86478
	h5.5719V132.94379z M356.78711,116.72339l-5.5719,1.73347h-0.06189v4.82897h-3.7146v4.08604h3.7146v12.69155
	c0,4.89091,2.35257,6.8101,6.50055,6.8101c1.30011,0,2.60019-0.24762,3.77649-0.74289v-3.96227
	c-0.61908,0.30956-1.362,0.49529-2.10495,0.49529c-1.60965,0-2.5383-0.74294-2.5383-3.21933v-12.13435h4.64325v-4.08604h-4.64325
	V116.72339z M375.23627,163.34161c-3.77652,0-5.3862,2.47641-6.19101,3.90033h-0.06189c0-1.17627-0.12384-2.41447-0.18573-3.59077
	h-5.26236c0.12384,1.30009,0.18573,2.5383,0.18573,3.83842l0.06186,19.37782h5.5719v-13.55827
	c0-2.97171,1.05249-5.4481,3.96225-5.4481c2.29068,0,3.21933,1.48586,3.21933,5.07663v13.99164h5.5719v-14.98218
	C382.10825,167.24194,380.4986,163.34161,375.23627,163.34161z M359.26352,175.22835c0,9.78177-5.44806,12.01051-10.21515,12.01051
	s-10.27704-2.22874-10.27704-12.01051c0.06189-9.41032,5.57187-11.94867,10.27704-11.94867
	C353.81546,163.27968,359.26352,165.75609,359.26352,175.22835z M353.50589,175.29024c0-3.90031-0.80481-7.9864-4.45752-7.9864
	s-4.45752,4.08609-4.45752,7.9864c0,3.90033,0.8667,8.04831,4.45752,8.04831
	C352.63913,183.33855,353.50589,179.19057,353.50589,175.29024z M334.3757,146.4402h-5.07663
	c-0.24762-1.05249-0.37146-2.10497-0.30957-3.15744h-0.06189c-1.42392,1.91924-3.15744,3.52888-6.50055,3.52888
	c-3.59076,0-6.93393-2.47641-6.93393-6.8101c0-6.31483,5.13852-7.92447,12.25818-7.92447h1.11438v-0.86676
	c0-2.29068-1.11438-4.45753-4.33371-4.45753c-2.29068,0.06193-4.51941,0.86675-6.37671,2.29067l-0.37146-4.45753
	c2.29068-1.11437,4.82898-1.73347,7.36728-1.73347c7.24347,0,8.91504,3.52888,8.91504,9.34843v10.15321
	C334.06613,143.71614,334.18997,145.07817,334.3757,146.4402z M328.86572,135.11063h-0.06192h-0.49527
	c-4.76709,0-7.61493,0.99059-7.61493,4.39565c-0.12384,1.8573,1.30014,3.46693,3.15744,3.59077c0.12381,0,0.30954,0,0.43335,0
	c3.34314,0,4.58133-2.47641,4.58133-6.62439V135.11063z M329.9801,159.25554h5.75763v-5.50998h-5.75763V159.25554z
	 M45.07026,165.32274l1.30009,2.04303l0.06189-0.30956l-0.6191-1.42392L45.07026,165.32274z M330.16577,186.92931h5.5719v-23.27814
	h-5.63379L330.16577,186.92931z M321.93179,157.15062l-5.5719,1.73347l-0.06192,4.76707h-3.7146v4.08604h3.7146v12.75345
	c0,4.82896,2.35257,6.7482,6.50055,6.7482c1.30011,0.06189,2.60022-0.18571,3.77652-0.74292v-3.96222
	c-0.61911,0.37144-1.36203,0.49527-2.10495,0.49527c-1.60965,0-2.5383-0.74294-2.5383-3.21933v-12.07245h4.64325v-4.08604h-4.64325
	V157.15062z M37.88867,127.06233c-0.99055,1.36203-1.67158,1.98112-4.27177,4.08609
	c-3.90036,3.09549-6.62438,7.49109-7.55303,12.38199c0.24762-6.06717-3.46698-14.73457-0.99058-21.04939
	c-9.59601,13.55826,0.55721,21.6685,0.92865,26.62129C28.41645,139.6301,34.17407,139.56816,37.88867,127.06233z
	 M33.98835,139.75388c-2.78595,5.38618-7.18155,6.62439-6.68627,17.70628c-2.35257-9.8437-7.98641-13.5583-7.92447-19.81119
	c-3.90032,16.46803,6.50055,18.38727,9.22457,25.32117C28.16879,153.06453,34.48362,151.08345,33.98835,139.75388z
	 M35.16465,176.52844c-2.90978-10.83426,2.22874-14.61075-1.67158-25.01166c-0.37148,5.88145-4.3337,8.72934-1.67158,19.43976
	c-4.64325-9.10078-11.8248-12.50583-13.92975-18.69684C18.01558,169.28496,31.69767,171.82329,35.16465,176.52844z
	 M36.65047,164.33217c0.99058,4.51941-1.8573,11.1438,2.66212,17.39673c-4.64325-5.20045-14.54885-6.56248-18.573-14.48695
	c5.01473,19.37782,18.13966,15.4156,24.02111,19.62547C39.93169,179.8716,43.89395,175.22835,36.65047,164.33217z
	 M26.99253,136.34883c5.38618-11.70097,13.37255-9.22456,16.7776-20.30647c-1.98113,3.34315-10.71042,4.76708-14.73458,13.49637
	c2.10496-5.20041,1.05248-13.12489,4.51942-17.45859C23.0922,119.88079,27.54969,132.38661,26.99253,136.34883z M76.64436,103.41274
	c0.0619,0.43337,0.12383,0.74293,0.18572,1.11437c0,0,0.0619,0.12383,0.0619,0.30955
	c-9.53412,0.99055-18.38724,5.13853-25.19738,11.7629l5.07663,5.07663c2.22878-2.16685,4.70518-4.02415,7.4292-5.51001
	c-0.43338,0.49528-0.80482,0.99059-1.11438,1.48586c-0.18572,0.30956-0.24765,0.681-0.37144,1.05248
	c-1.7954,1.17627-3.46698,2.53829-5.01473,4.02415l2.90978,2.90974c-0.37144,0.18576-0.86676,0.30955-1.30009,0.37148
	c-0.12383,0-0.18576,0-0.30955,0l-2.29068-2.29068c-5.88145,6.191-9.16267,14.3012-9.2865,22.78288h7.24348
	c0.12383-6.56245,2.66212-12.87727,7.18155-17.64435l-0.55717-0.55717c0.24762-0.55721,0.49527-0.99058,0.68099-1.30013
	l0.86676,0.86676c3.96222-3.83843,9.10074-6.31483,14.54885-7.11965c0,0.43338,0,0.92865,0,1.42392
	c-5.07663,0.80482-9.8437,3.0955-13.55831,6.68628l5.07663,5.07663c-1.42397,1.8573-2.10496,4.20987-2.04306,6.56244
	c-0.0619,3.52888,1.73351,6.8101,4.70518,8.6055c0.80482,0.55717,1.67158,0.99055,2.5383,1.36203
	c0.30955,0.61911,0.74293,1.2382,1.2382,1.79536l0.99059-0.99054c0.49527,0.18573,0.99054,0.37144,1.48582,0.49527l-1.42393,1.42392
	c0.49528,0.37149,1.05248,0.74294,1.67158,0.99059c0,0.49527,0,1.05247,0,1.54776c-0.92865-0.30956-1.8573-0.86676-2.66216-1.48586
	l-5.07659,5.07663c1.05247,0.92865,2.29068,1.73346,3.59077,2.41451c-0.24766,0.43333-0.37148,0.86671-0.49528,1.36198
	c-1.54774-0.74289-2.90977-1.67154-4.14797-2.78595l-5.07663,5.07663c3.96226,3.65269,8.91505,5.88144,14.2393,6.50055
	c0,0.37148,0,0.86674,0,1.42392c-4.82897-0.49527-9.41032-2.35257-13.24872-5.26234l0.12379,0.37148l-0.37144,0.92865
	l-2.60023-0.12383l-0.99054,1.05247l-1.8573-0.18576l-1.30013,1.36203c5.5719,5.32425,12.75349,8.48167,20.4303,9.10078
	c0,0.49527,0,0.99054,0,1.42392c-8.04829-0.61911-15.66322-3.96227-21.54467-9.47223l-5.07663,5.07663
	c16.34426,15.60129,42.16074,15.60129,58.44306-0.12383l-5.07663-5.07663c-5.94334,5.63383-13.6202,9.03888-21.79229,9.59605
	c0-0.43338,0-0.92865,0-1.42392c1.8573-0.12384,3.7765-0.43338,5.6338-0.86676c0.49527-0.12379,1.11437-0.55717,1.1763-2.16685
	c0.37144-6.43861-3.40504-8.72929-6.56248-10.27704l0.06193-3.90033c1.98109-0.61909,4.27177-1.23819,6.00524-2.41451
	l0.12383-0.12383l0.12383-0.06189c1.98112-1.30009,3.21932-3.52888,3.15739-5.88145c0-5.5719-4.64325-7.67685-8.97695-9.16267
	c0-2.47639,0.12383-7.4292,0.12383-7.4292l1.8573,0.92865l0.74293-0.12383l0.74289,0.12383l-0.06189-0.61909l-0.43338-0.18576
	v-0.61911l-0.37144,0.06194l1.2382-1.60968l0.49528,0.24765l-1.30009,1.2382l0.43337-0.06189l0.49528-0.49532l2.10491-0.37144
	l0.12383,0.18571l1.98112-2.04301l-0.30955-0.24765h-0.49528l-0.68103,0.18576l-0.12379,0.18571l-0.37148,0.18573l-0.0619,0.24765
	l-0.49527-0.06194l-0.74293,0.18576l-0.30956-0.49532l1.05248-0.37144l0.37144,0.37144l0.24765-0.61909l0.6191-0.30956
	l0.24762-0.2476l-0.43338-0.30956c0.49531-0.18573,0.99059-0.37149,1.48586-0.61909c0.30955,0.30954,0.6191,0.55716,0.92865,0.86671
	l5.13852-5.0766l-0.37144-0.30954c0.49528-0.74294,0.92865-1.60969,1.2382-2.4764l0.68099,1.2382l1.67158-1.67158l-0.55717-0.86675
	l0.86672-0.18572l-1.8573-2.35258c0-0.30955,0-0.55721,0-0.86675c0-2.22874-0.681-4.45753-1.98113-6.31483l0.68103-0.18572
	l0.30956-0.37144l3.7765,1.98112l1.1763,1.30009l0.55717,1.98113l-0.18572,0.55717l0.80482-0.0619l0.6191,0.30955l-0.18572,0.86676
	l4.82897-4.82902c-6.87199-6.74816-15.84895-10.95804-25.445-11.88669c0.0619-0.37148,0.18572-0.74293,0.24766-1.1763
	l0.0619-0.24766c22.2876,2.29068,39.25095,21.0494,39.25095,43.46082c0.0619,24.14491-19.50165,43.77039-43.64659,43.77039
	c-22.34949,0.06189-41.04632-16.83952-43.3989-39.0652C35.16465,127.37188,52.56135,105.88914,76.64436,103.41274z
	 M106.60877,122.72863c0.68104,0.74293,1.30013,1.48586,1.91924,2.22878l1.79536,1.48582l1.54775,2.10496l1.30013,2.22874
	l-0.12383,0.37149l-0.49528-0.24767l-0.06193,0.12383c2.41451,4.76709,3.6527,10.02943,3.7146,15.35368h7.18158
	c-0.12383-10.71043-4.2718-20.98747-11.701-28.72623L106.60877,122.72863z M100.47971,128.73392
	c0.92865,1.05247,1.79537,2.16684,2.60023,3.34315l0.37144-0.86676l0.43338,0.24765l-0.24766,1.11438l0.68104-0.24767
	l0.18572,0.24767l-0.49528,0.24762l0.18572,0.43336l-0.12383,0.12384l-0.37144-0.18573
	c0.24762,0.30956,0.43338,0.681,0.6191,1.05247l0.55717-0.06194l0.43337,0.55721v0.80482l0.6191,0.86676l-0.30955,0.49527
	c0.24765,0.55721,0.92865,1.8573,0.92865,1.8573l0.61909-0.06189l-0.30955-2.10497l-0.18572-1.23819l-0.6191-1.8573l-0.92865-1.8573
	l-1.60968-2.29068l0.12383-0.37144l1.60969,1.11436l-0.24766,0.24767l-0.49527-0.24767l1.98112,2.90979l0.86671,2.78595
	l0.30956,2.41446l-0.43338,2.29068l-0.30955,0.43338c0.43337,1.79539,0.68099,3.59077,0.68099,5.44807h7.18159
	c-0.06194-4.70515-1.11438-9.41034-3.0955-13.6821l-1.2382,0.43338l-3.03361-3.52888l-0.49527,0.0619l-2.41447-1.48582
	l0.18572-0.74293l-0.43338-0.49527l-1.73347-0.06194L100.47971,128.73392z M101.84174,144.08759l-0.06194,0.37148l-0.86671,0.12384
	l-0.30955,0.2476l-0.12383,0.37149l-0.74293,0.55716l0.12383,0.55721h6.31483c-0.06194-1.23819-0.18576-2.53833-0.37148-3.77652
	l-0.86676,1.42395v-0.68103l0.68104-2.04303c-0.12383-0.37144-0.18572-0.74292-0.30956-1.11436l-0.24765,1.05247l-0.30956,0.61909
	l-0.74289,0.43335l-0.30955,0.61909l-1.30013,0.18576l-1.30009,0.681L101.84174,144.08759z M93.29813,139.01099l0.18572,0.30956
	l0.30955-0.74292h-0.24762l-0.24765-0.49529l0.55721-0.12383l0.68099,0.49527l0.24766-0.80481
	c-0.43338-0.61911-0.86676-1.17632-1.36203-1.73347l-0.74293,0.80482l-0.18572,1.36201l0.6191,0.43338v0.12379l-0.6191,0.12383
	L93.29813,139.01099z M95.46497,162.35107l-0.49527-0.49532l-0.99055-0.49527l-1.30013-0.92865
	c-0.37144,0.30956-0.74293,0.61909-1.17627,0.92865l0.80482,0.30956l0.86671,0.68103l0.49532-0.18576l1.54774,0.43338
	L95.46497,162.35107z M96.02218,137.02986H96.827l-0.30956-0.43338c0.0619,0,0.6191-0.12383,0.6191-0.12383l0.49527,0.18573
	l-0.49527,0.18576l-0.18572,0.18571l0.55721,0.43338l1.54775,1.8573l0.30955-0.06194v-0.24762h0.43334l0.12383,0.61911
	l-0.30955,0.12378l-0.18572-0.37144l-0.37148,0.24767l0.24766,0.61909l0.68099,0.55717l0.6191-0.681l0.24765-0.99059
	l0.99055-0.37144l1.36203,1.30009l-0.49528,0.30956l-0.30955,1.42395l-0.37148,0.55717h0.68103l0.37144,0.18576l0.37148-0.49532
	l0.49528-0.24762l0.18572-1.05247l0.68103-0.49527l0.30955-0.49532c-0.30955-1.11436-0.68099-2.16684-1.1763-3.21928l-1.8573-1.1763
	l-0.0619-1.11438l0.6191-0.18571c-0.92865-1.48586-1.98113-2.90977-3.15743-4.20992l-5.07663,5.07663
	C95.03159,135.54401,95.52691,136.22504,96.02218,137.02986z M97.01273,161.91769l1.11441-1.67157l0.55717,2.22878l-0.30956,0.99054
	l0.74293,0.74294c4.20988-4.39563,6.68628-10.21515,6.93393-16.34425h-5.51l0.99059,1.98112l1.2382,0.24762l1.17627-0.43335
	l0.18576,0.74289l-0.37148,0.18576l-0.92865-0.43336l0.12383,0.68098l0.30955,0.55721l-1.73347,0.49527l-0.68104,0.37149h-1.11437
	l-0.55721-0.24765l-0.30955,0.06189l0.37148,0.43338l-0.43338,0.49527l-0.18572-0.18573l-0.37148,0.49529l-0.6191,0.24765
	c-0.43333,0.86671-0.92865,1.79536-1.48582,2.60022l0.37144,0.12379l0.24766-0.49527l0.6191,0.18571l0.24761,0.92865
	l0.06194,0.92867l-0.43338,0.99057l0.24766,0.37144l-0.68103,1.36203l-0.49528,0.681L97.01273,161.91769z M104.2562,171.20416
	l-5.07659-5.07663c-0.37148,0.37148-0.80486,0.74292-1.2382,1.11441l0.49527,0.80482h0.80482l1.05247,1.11436l-1.05247,1.36203
	l-0.681,1.42392l0.86672,0.55721v0.49527l-0.99055,0.86676l0.24762,0.61909l-0.681,1.42393
	C100.29398,174.60924,102.3989,172.99956,104.2562,171.20416z M114.78091,147.7403h-7.18155
	c-0.24766,6.50055-2.84785,12.62965-7.3673,17.33479l2.16685,2.16685l0.24766-0.24767l0.12383-1.23819l0.24762-0.99055
	l1.1763,0.37144l-0.24765,0.49532l0.37148,0.12379l0.55717,2.78595l-0.55717,0.61909l0.99054,0.99059
	C111.19013,164.14644,114.53329,156.16003,114.78091,147.7403z M111.31396,176.21889
	c7.4911-7.61491,11.7629-17.83008,12.01052-28.47859h-7.18155c-0.18572,8.72929-3.7146,17.08714-9.8437,23.40196
	L111.31396,176.21889z M68.16268,159.19363c-2.97168-3.09549-4.70515-7.11964-4.9528-11.39145h-1.1763l0.37148,0.55721
	l-0.37148,2.10495l0.06193,1.17627v0.55721l0.24762,0.30956l-0.12379,0.86671h-0.24766l-0.49527-0.92865l-0.30955-0.80482
	l0.12379-0.12383l0.30955,0.37148l0.43338-0.24765l-0.6191-1.36203l0.18572-0.30954l0.37148-1.67154l-0.24765-0.49529h-1.67158
	l-0.37144,0.55717h-0.99054l-0.37148,0.92865l0.37148,0.80482l-0.37148,1.05247l0.86675,0.43338l1.05248,1.98112l-0.18576,1.05244
	l0.86676,1.67157l0.18572,2.72406l0.74293,1.73347l-0.24766,1.79539c0.43338,0.55717,0.99059,1.11438,1.48586,1.67154
	L68.16268,159.19363z M61.47641,146.31636h1.73347c0.0619-0.80481,0.12383-1.67157,0.24762-2.47639l-0.24762-0.24765
	l-1.54775-0.24762l-0.86676,0.49527l-0.12383,1.42392L61.47641,146.31636z M66.67682,149.78331h-0.99054l-1.05248-1.11436
	c0.43338,3.59076,1.98113,6.93391,4.45753,9.53415l5.07662-5.07663c-0.68103-0.74292-1.2382-1.60968-1.67158-2.53833
	l-0.30955,1.54774l-0.55721,0.37149l0.12383,0.30954l-0.74293,0.43338l-0.49527-0.99059l1.11437-0.30954l-0.6191-0.86671
	l-0.61909-0.61911l-0.55717,0.92865l0.06189,0.74289l-1.05247-0.68098l0.43338-0.30956l-0.92865-0.681l-0.37145,0.18573
	L66.67682,149.78331z M56.02829,146.37827h3.21933l0.12383-1.2382l0.86676-0.99054l-0.30955-0.55721l1.54775-2.90979
	l1.05244,0.12384l1.11441-0.86673h0.37145l0.74293-0.4953l0.18572-0.24762l-0.86676,0.18571l-0.99054,0.12384l0.74293-0.68105
	h0.24762l0.74293-0.18571H65.191c0.681-1.42392,1.60965-2.72401,2.66212-3.90033l-5.07663-5.07661
	C58.5047,134.18198,56.09023,140.12537,56.02829,146.37827z M56.02829,147.80219c0.06193,1.11441,0.18576,2.29068,0.37148,3.40504
	l0.0619,0.06194h1.1763l0.681-1.05247l-0.6191-0.681l0.49531-1.73351H56.02829z M55.40919,168.60397
	c0.49531,0.61909,0.99058,1.17625,1.54775,1.73346l1.17631-1.1763l-0.30955-0.24762l-1.60965-0.92865L55.40919,168.60397z
	 M47.42282,147.7403c0.12383,3.21931,0.6191,6.31482,1.60965,9.34842h1.05248l1.8573-0.61909l-0.06189-3.21933l1.8573-2.35257
	l0.18572-0.86676l0.86671-0.18571c-0.12379-0.74294-0.18572-1.42397-0.18572-2.10495H47.42282z M38.81732,146.37827h7.18158
	c0.12379-8.85313,3.59077-17.3967,9.71984-23.77342l-5.07659-5.07663C43.15102,125.26697,38.94115,135.54401,38.81732,146.37827z
	 M38.81732,147.80222c0.24765,10.71043,4.58136,20.92558,12.13438,28.5405l5.07659-5.07663
	c-1.91919-1.91919-3.52884-4.08604-4.9528-6.37671l-0.24762,1.05247l-0.80482-0.24767l-1.36203-2.22874l-0.6191-0.12383
	l-0.49527-0.61909v-0.86676l-0.18576-0.12378l-0.49527,0.37144l-1.11437-0.30956l-0.12383-0.61909l-0.43338-0.24767v1.17632
	l-0.24762-0.12384l-1.11437-1.60963l-0.68103-0.12383l0.18572,0.61909l-0.24762,0.24765l0.24762,1.11438l1.17631,2.22874
	l-0.43338-0.12379l-0.74293-1.1763l-1.54775-3.7146l-0.18572-2.04303l0.49527-0.86676l1.36203-0.55721l0.43338,0.43338
	l-0.49527,0.43338l1.8573,0.37144l-0.6191-0.86671l2.04302,0.18571l0.43338,0.43338l0.43338,0.0619
	c-0.92865-2.97168-1.48586-6.1291-1.54775-9.22458H38.81732z M102.58463,114.86609l-0.43334-0.68103l-0.92865-0.49527
	l-0.74293,0.55721l0.92865,0.49527l1.05248,0.74293L102.58463,114.86609z M41.47944,114.68033
	c2.41451-2.90974,3.21933-6.87199,7.05776-9.71983c-7.86258,1.67154-14.42503,8.60546-16.22043,17.14904
	C34.79317,119.19979,39.06498,117.52821,41.47944,114.68033z M122.76731,181.7289
	c4.51942-6.25293,1.67154-12.81538,2.60019-17.39673c-7.24344,10.89618-3.28123,15.53943-8.1102,22.53525
	c5.94334-4.20987,19.00639-0.24765,24.02108-19.62547C137.25423,175.16641,127.41056,176.52844,122.76731,181.7289z
	 M167.65205,146.56398l4.9528-25.87837h0.0619l4.76707,25.87837h6.93393l6.50055-31.57406h-5.26236l-4.64325,24.33062h-0.06194
	l-4.70514-24.33062h-7.05775l-4.76704,24.33062h-0.06194l-4.45752-24.33066h-5.44807l6.43866,31.5741H167.65205z
	 M179.78641,171.14226c0,11.32953-6.00528,16.22043-12.56772,16.22043c-6.56248,0-12.56773-4.8909-12.56773-16.22043
	c0-11.32951,6.00528-16.22043,12.56773-16.22043C173.78113,154.92183,179.78641,159.81274,179.78641,171.14226z
	 M173.84306,171.14226c0-8.72929-2.97171-11.76289-6.62437-11.76289c-3.65271,0-6.62439,3.0955-6.62439,11.76289
	c0,8.6674,2.97168,11.82484,6.62439,11.82484C170.87135,182.9671,173.84306,179.8716,173.84306,171.14226z M128.58682,151.51678
	c-3.90032,10.40088,1.2382,14.1774-1.67154,25.01166c3.46695-4.70515,17.14905-7.24348,17.27287-24.26874
	c-2.10492,6.25294-9.2865,9.59605-13.92975,18.69684C132.92053,160.24612,128.95831,157.39824,128.58682,151.51678z
	 M56.15212,194.66806c-4.02415-5.5719-1.30009-8.72929-12.56772-18.82062c2.41451,3.7146-0.0619,8.35785,7.55303,15.5394
	c-7.4292-4.3956-17.76818-2.5383-22.72098-8.41974C36.96002,199.31131,51.94225,192.62505,56.15212,194.66806z M187.27754,167.92297
	h-0.06194c0-1.42397-0.12379-2.84789-0.18571-4.2718h-5.07663c0.12383,1.30009,0.18571,2.5383,0.18571,3.83842l0.00005,19.50165
	h5.5719v-12.75348c0-4.33369,2.53828-5.75763,4.82896-5.75763c0.55717,0,1.11438,0.12384,1.60965,0.24767v-5.26236
	c-0.30956-0.06192-0.61909-0.12383-0.92865-0.12383C189.75394,163.34161,187.95854,166.12756,187.27754,167.92297z
	 M104.68958,195.47289c-4.02415-1.05244-8.17213-1.73347-12.382-1.8573c-3.83842-0.06189-7.67686,0.55721-11.26763,1.91924
	c-3.59077-1.36203-7.4292-1.98112-11.26762-1.91924c-4.20988,0.12383-8.35785,0.80486-12.382,1.8573
	c-6.8101,1.79541-12.69155,3.21933-17.83007,0.61909c4.8909,4.33371,10.64853,5.94339,18.94448,5.01474
	c6.87199-0.74294,12.4439-4.20987,18.94445-4.14798h0.24765c-4.08608,2.04303-7.73875,4.8909-10.71046,8.35785l3.15743,0.43338
	c0,0,3.28122-6.62437,10.89614-8.35785c7.61493,1.73347,10.89615,8.35785,10.89615,8.35785l3.15743-0.43338
	c-2.97167-3.46695-6.62437-6.31482-10.71042-8.35785h0.24761c6.50055-0.06189,12.07245,3.40504,18.94449,4.14798
	c8.29591,0.86671,13.99165-0.68103,18.94444-5.01474C117.38113,198.69221,111.49968,197.2683,104.68958,195.47289z
	 M110.94247,191.38684c7.61496-7.24348,5.13856-11.88673,7.55303-15.53943c-11.32953,10.09135-8.54358,13.24875-12.62962,18.82065
	c4.27177-2.04301,19.254,4.64325,27.73568-11.701C128.71065,188.91045,118.37167,186.99124,110.94247,191.38684z"/>
</svg>
