<?xml version="1.0" encoding="utf-8"?>
<!-- Generator: Adobe Illustrator 23.0.3, SVG Export Plug-In . SVG Version: 6.00 Build 0)  -->
<svg version="1.1" id="logosvg.com" xmlns="http://www.w3.org/2000/svg" xmlns:xlink="http://www.w3.org/1999/xlink" x="0px"
	 y="0px" viewBox="0 0 400 300" style="enable-background:new 0 0 400 300;" xml:space="preserve">
<style type="text/css">
	.st0{fill:#243882;}
</style>
<path id="logo" class="st0" d="M271.7,138.6c0.4,0,0.6-0.3,0.6-0.7l0,0c0-0.4-0.3-0.6-0.7-0.6c-0.4,0-0.6,0.3-0.6,0.7l0,0
	C271.1,138.4,271.4,138.6,271.7,138.6 M231,117.9c0,1,0.8,1.9,1.9,1.9s1.9-0.8,1.9-1.9c0-1-0.8-1.9-1.9-1.9
	C231.9,116,231,116.8,231,117.9L231,117.9L231,117.9 M242.9,121.9c0,1,0.8,1.9,1.9,1.9c1,0,1.9-0.8,1.9-1.9c0-1-0.8-1.9-1.9-1.9l0,0
	l0,0C243.7,120,242.9,120.8,242.9,121.9C242.9,121.8,242.9,121.8,242.9,121.9L242.9,121.9 M198.3,170.6c0,1,0.8,1.9,1.9,1.9
	c1,0,1.9-0.8,1.9-1.9c0-1-0.8-1.9-1.9-1.9l0,0C199.1,168.8,198.3,169.6,198.3,170.6L198.3,170.6L198.3,170.6 M207.5,178.4
	c0,1,0.8,1.9,1.9,1.9c1,0,1.9-0.8,1.9-1.9c0-1-0.8-1.9-1.9-1.9l0,0l0,0C208.3,176.5,207.5,177.4,207.5,178.4 M219.2,182
	c0,1,0.8,1.9,1.9,1.9c1,0,1.9-0.8,1.9-1.9c0-1-0.8-1.9-1.9-1.9l0,0l0,0C220.1,180.1,219.3,181,219.2,182L219.2,182 M231.3,181.9
	c0,1,0.9,1.8,1.9,1.8c1,0,1.8-0.9,1.8-1.9s-0.9-1.8-1.8-1.8C232.1,180,231.3,180.8,231.3,181.9C231.3,181.8,231.3,181.8,231.3,181.9
	L231.3,181.9 M242.9,178.2c0,1,0.9,1.9,1.9,1.8c1,0,1.9-0.9,1.8-1.9c0-1-0.8-1.8-1.8-1.8l0,0C243.8,176.3,242.9,177.1,242.9,178.2
	C242.9,178.2,242.9,178.2,242.9,178.2 M252.1,170.8c0,1,0.8,1.9,1.9,1.9c1,0,1.9-0.8,1.9-1.9c0-1.1-0.8-1.9-1.9-1.9l0,0l0,0
	C252.9,168.9,252.1,169.7,252.1,170.8C252.1,170.7,252.1,170.7,252.1,170.8 M252,129.3c0,1,0.9,1.8,1.9,1.8c1,0,1.8-0.9,1.8-1.9
	s-0.8-1.8-1.9-1.8C252.8,127.4,252,128.2,252,129.3L252,129.3L252,129.3 M238.9,124.3c0-1.3-1.1-2.4-2.4-2.4c-1.3,0-2.4,1.1-2.4,2.4
	c0,1.3,1.1,2.4,2.4,2.4C237.8,126.7,238.9,125.6,238.9,124.3L238.9,124.3L238.9,124.3 M246.9,129.3c0-1.3-1.1-2.4-2.4-2.4
	s-2.4,1.1-2.4,2.4c0,1.3,1.1,2.4,2.4,2.4C245.8,131.6,246.9,130.6,246.9,129.3L246.9,129.3L246.9,129.3 M253.1,136.3
	c0-1.3-1.1-2.4-2.4-2.4c-1.3,0-2.4,1.1-2.4,2.4c0,1.4,1.1,2.4,2.4,2.4l0,0l0,0C252.1,138.7,253.1,137.6,253.1,136.3
	C253.1,136.3,253.1,136.3,253.1,136.3L253.1,136.3 M236,109.5c0-0.4-0.2-0.7-0.6-0.7c-0.4,0-0.7,0.2-0.7,0.6s0.2,0.7,0.6,0.7
	C235.7,110.1,236,109.9,236,109.5C236,109.6,236,109.6,236,109.5L236,109.5 M252,115.3c0-0.3-0.2-0.7-0.6-0.7l0,0l0,0
	c-0.4,0-0.6,0.3-0.6,0.7c0,0.3,0.2,0.6,0.5,0.6C251.6,115.9,252,115.7,252,115.3 M264.5,124.3c0-0.4-0.2-0.7-0.6-0.7l0,0l0,0
	c-0.3,0-0.7,0.2-0.7,0.6l0,0l0,0c-0.1,0.4,0.2,0.7,0.5,0.8C264.1,125,264.4,124.8,264.5,124.3C264.5,124.4,264.5,124.3,264.5,124.3
	 M242.8,116c0-0.7-0.5-1.3-1.2-1.3s-1.3,0.5-1.3,1.2c0,0.7,0.5,1.2,1.1,1.3C242.1,117.2,242.7,116.7,242.8,116
	C242.8,116,242.8,116,242.8,116L242.8,116 M255,122.1c0.1-0.7-0.4-1.3-1.1-1.3h0l0,0c-0.7-0.1-1.3,0.3-1.4,1s0.3,1.3,1,1.4
	c0,0,0.1,0,0.1,0h0.1C254.3,123.2,254.9,122.7,255,122.1C255,122,255,122,255,122.1L255,122.1 M263.3,130.7c-0.7,0-1.3,0.5-1.3,1.2
	c0,0.7,0.5,1.3,1.2,1.3c0.7,0,1.2-0.5,1.3-1.1C264.5,131.4,264,130.8,263.3,130.7C263.3,130.7,263.3,130.7,263.3,130.7L263.3,130.7
	 M227,112.7c-0.7,0-1.2,0.5-1.2,1.2c0,0.7,0.5,1.2,1.2,1.2c0.7,0,1.2-0.5,1.2-1.2l0,0C228.2,113.2,227.7,112.7,227,112.7
	C227,112.7,227,112.7,227,112.7 M221.1,116c-1,0-1.9,0.8-1.9,1.9c0,1,0.8,1.9,1.9,1.9c1,0,1.9-0.8,1.9-1.9l0,0
	C222.9,116.9,222.1,116,221.1,116L221.1,116L221.1,116 M209.2,120c-1,0-1.9,0.8-1.9,1.9c0,1,0.8,1.9,1.9,1.9c1,0,1.9-0.8,1.9-1.9
	l0,0C211.1,120.9,210.3,120,209.2,120 M191.9,148.2c-1,0-1.9,0.8-1.9,1.9c0,1,0.8,1.9,1.9,1.9c1,0,1.9-0.8,1.9-1.9l0,0
	C193.8,149.1,193,148.2,191.9,148.2L191.9,148.2L191.9,148.2 M194.2,137.2c-1,0-1.9,0.8-1.9,1.9c0,1,0.8,1.9,1.9,1.9
	c1,0,1.9-0.8,1.9-1.9l0,0C196.1,138.1,195.3,137.2,194.2,137.2L194.2,137.2 M200.2,127.4c-1,0-1.9,0.8-1.9,1.9c0,1,0.8,1.9,1.9,1.9
	c1,0,1.9-0.8,1.9-1.9l0,0C202.1,128.2,201.3,127.4,200.2,127.4 M227,179.6c1.3,0,2.4-1.1,2.4-2.4c0-1.3-1.1-2.4-2.4-2.4
	s-2.4,1.1-2.4,2.4l0,0C224.6,178.5,225.7,179.6,227,179.6 M227,125.3c1.3,0,2.4-1.1,2.4-2.4c0-1.3-1.1-2.4-2.4-2.4s-2.4,1.1-2.4,2.4
	l0,0C224.6,124.2,225.7,125.3,227,125.3 M217.5,126.7c1.3,0,2.4-1.1,2.4-2.4c0-1.3-1.1-2.4-2.4-2.4s-2.4,1.1-2.4,2.4l0,0
	C215.1,125.6,216.2,126.7,217.5,126.7C217.5,126.7,217.5,126.7,217.5,126.7L217.5,126.7 M209.5,131.6c1.3,0,2.4-1.1,2.4-2.4
	s-1.1-2.4-2.4-2.4s-2.4,1.1-2.4,2.4l0,0C207.1,130.5,208.2,131.6,209.5,131.6L209.5,131.6L209.5,131.6 M203.1,138.7
	c1.3,0.1,2.4-1,2.5-2.3c0.1-1.3-1-2.4-2.3-2.5s-2.4,1-2.5,2.3v0l0,0C200.9,137.5,201.9,138.6,203.1,138.7L203.1,138.7L203.1,138.7
	 M200.6,147.5c1.3,0,2.4-1.1,2.4-2.4c0-1.3-1.1-2.4-2.4-2.4s-2.4,1.1-2.4,2.4l0,0C198.3,146.4,199.3,147.5,200.6,147.5L200.6,147.5
	L200.6,147.5 M218.7,110.1c0.4,0,0.6-0.3,0.6-0.7c0-0.4-0.3-0.6-0.7-0.6s-0.6,0.3-0.6,0.7c0,0,0,0,0,0
	C218,109.9,218.3,110.1,218.7,110.1C218.6,110.1,218.6,110.1,218.7,110.1L218.7,110.1 M202.7,115.9c0.4,0,0.6-0.3,0.6-0.7l0,0l0,0
	c0-0.4-0.3-0.6-0.7-0.6c-0.4,0-0.6,0.3-0.6,0.7l0,0l0,0C202.1,115.7,202.4,115.9,202.7,115.9 M271.7,165.9c0.4,0,0.6-0.3,0.6-0.6
	c0-0.4-0.3-0.6-0.6-0.6h-0.1c-0.4,0-0.6,0.3-0.6,0.7l0,0l0,0C271.1,165.6,271.4,165.9,271.7,165.9 M264.1,176.5
	c0.4,0,0.6-0.4,0.6-0.7c0-0.4-0.3-0.6-0.7-0.6s-0.6,0.3-0.6,0.7C263.4,176.2,263.7,176.5,264.1,176.5L264.1,176.5 M251.4,185.4
	c0.4,0,0.6-0.3,0.6-0.7l0,0l0,0c0-0.4-0.3-0.6-0.6-0.7c-0.4,0-0.6,0.3-0.7,0.6l0,0c0,0,0,0.1,0,0.1
	C250.7,185.2,251,185.5,251.4,185.4C251.4,185.5,251.4,185.5,251.4,185.4L251.4,185.4 M235.5,191.2c0.4,0,0.6-0.3,0.6-0.7
	c0-0.4-0.3-0.6-0.7-0.6l0,0l0,0c-0.4,0-0.6,0.3-0.6,0.7C234.8,190.9,235.1,191.2,235.5,191.2 M218.7,191.2c0.4,0,0.6-0.3,0.6-0.7
	c0-0.4-0.3-0.6-0.7-0.6l0,0l0,0c-0.4,0-0.6,0.3-0.6,0.7C218,190.9,218.3,191.2,218.7,191.2L218.7,191.2 M202.7,185.4
	c0.4,0,0.6-0.3,0.6-0.7l0,0l0,0c0-0.4-0.3-0.6-0.7-0.6c-0.4,0-0.6,0.3-0.6,0.7l0,0l0,0C202.1,185.1,202.4,185.4,202.7,185.4
	 M190.1,176.4c0.4,0,0.6-0.3,0.6-0.7l0,0c0-0.4-0.3-0.6-0.7-0.6s-0.6,0.3-0.6,0.7l0,0l0,0C189.5,176.1,189.8,176.4,190.1,176.4
	 M182.3,165.9c0.4,0,0.6-0.3,0.6-0.6c0-0.4-0.3-0.6-0.6-0.6h-0.1c-0.4,0.1-0.6,0.4-0.5,0.8C181.7,165.7,181.9,165.9,182.3,165.9
	 M190.2,124.8c0.4,0,0.6-0.3,0.6-0.7l0,0c0-0.4-0.3-0.6-0.7-0.6s-0.6,0.3-0.6,0.7l0,0l0,0C189.5,124.6,189.8,124.9,190.2,124.8
	 M212.5,117c0.7-0.1,1.1-0.7,1.1-1.4c-0.1-0.6-0.6-1.1-1.3-1.1c-0.7,0.1-1.1,0.7-1,1.4C211.3,116.6,211.8,117,212.5,117L212.5,117
	 M200.2,123.1c0.6,0,1.1-0.6,1.1-1.2c0-0.6-0.6-1.1-1.2-1.1c-0.6,0-1.1,0.6-1.1,1.2C199.1,122.6,199.6,123.1,200.2,123.1
	L200.2,123.1 M189.5,132c0,0.6,0.5,1.2,1.2,1.2h0.2c0.7,0,1.2-0.6,1.2-1.2c0-0.7-0.6-1.2-1.2-1.2c0,0-0.1,0-0.1,0
	C190,130.8,189.5,131.3,189.5,132 M268,155c-0.7,0.1-1.2,0.7-1.1,1.3c0.1,0.7,0.7,1.2,1.3,1.1l0,0c0.7-0.1,1.2-0.7,1.1-1.3
	C269.3,155.5,268.7,155,268,155L268,155L268,155 M263.3,166.8c-0.7,0.1-1.1,0.7-1.1,1.4c0.1,0.6,0.6,1.1,1.3,1.1
	c0.7-0.1,1.1-0.7,1-1.4C264.4,167.3,263.9,166.8,263.3,166.8L263.3,166.8 M254,176.8c-0.7,0-1.2,0.6-1.2,1.2c0,0.7,0.6,1.2,1.2,1.2
	c0,0,0.1,0,0.1,0c0.7,0,1.2-0.6,1.2-1.3c0-0.6-0.5-1.2-1.2-1.2L254,176.8 M241.5,182.9c-0.7,0-1.2,0.6-1.2,1.3l0,0
	c0,0.7,0.6,1.2,1.3,1.2c0.7,0,1.2-0.6,1.2-1.3l0,0c0,0,0-0.1,0-0.1C242.7,183.3,242.2,182.8,241.5,182.9L241.5,182.9L241.5,182.9
	 M226.9,184.9c-0.7,0-1.2,0.6-1.2,1.3s0.6,1.2,1.3,1.2h0.1c0.7-0.1,1.1-0.7,1.1-1.4C228,185.3,227.5,184.9,226.9,184.9 M212.8,183.3
	c-0.7,0.1-1.2,0.7-1.1,1.3c0.1,0.7,0.7,1.2,1.3,1.1c0.7-0.1,1.2-0.6,1.1-1.3C214.1,183.7,213.6,183.2,212.8,183.3
	C212.8,183.3,212.8,183.3,212.8,183.3L212.8,183.3 M200.1,176.9c-0.7,0-1.2,0.6-1.2,1.3s0.6,1.2,1.3,1.2l0,0h0.1
	c0.7-0.1,1.1-0.7,1.1-1.4C201.3,177.3,200.7,176.8,200.1,176.9 M190.7,166.9c-0.7,0.1-1.1,0.7-1.1,1.4c0.1,0.6,0.6,1.1,1.3,1.1
	c0.7-0.1,1.1-0.7,1-1.4C191.8,167.3,191.3,166.9,190.7,166.9L190.7,166.9 M185.5,143.6c-0.7,0.1-1.1,0.7-1.1,1.4
	c0.1,0.6,0.6,1.1,1.3,1.1c0.7-0.1,1.1-0.7,1-1.4C186.6,144.1,186.1,143.6,185.5,143.6L185.5,143.6 M220,175.7c0-1.3-1.1-2.4-2.4-2.4
	s-2.4,1.1-2.4,2.4c0,1.3,1.1,2.4,2.4,2.4l0,0C218.9,178,220,177,220,175.7L220,175.7L220,175.7 M236.4,173.3c-1.3,0-2.4,1.1-2.4,2.4
	c0,1.3,1.1,2.4,2.4,2.4c1.3,0,2.4-1.1,2.4-2.4l0,0C238.8,174.3,237.7,173.3,236.4,173.3C236.4,173.3,236.4,173.3,236.4,173.3
	L236.4,173.3 M244.5,168.5c-1.3,0-2.4,1-2.4,2.3c0,1.3,1,2.4,2.3,2.4c1.3,0,2.4-1,2.4-2.3v0C246.9,169.6,245.8,168.5,244.5,168.5
	C244.5,168.5,244.5,168.5,244.5,168.5 M253.1,163.7c0-1.3-1.1-2.4-2.4-2.4s-2.4,1.1-2.4,2.4c0,1.3,1.1,2.4,2.4,2.4
	C252,166.1,253.1,165.1,253.1,163.7L253.1,163.7L253.1,163.7 M209.5,168.4c-1.3,0-2.4,1.1-2.4,2.4s1.1,2.4,2.4,2.4
	c1.3,0,2.4-1.1,2.4-2.4l0,0C211.9,169.5,210.9,168.4,209.5,168.4L209.5,168.4L209.5,168.4 M203.2,161.4c-1.3,0-2.4,1.1-2.4,2.4
	s1.1,2.4,2.4,2.4c1.3,0,2.4-1.1,2.4-2.4v0l0,0C205.6,162.4,204.5,161.3,203.2,161.4L203.2,161.4L203.2,161.4 M298.7,140.8h14.8v19.7
	h5.2v-19.7h13.4l1.3-3.4H300L298.7,140.8z M179.2,137.4H174v23.1h23.6l1.3-3.4h-19.7V137.4z M227.4,137.4l12.5,22.9h5.5l-12.5-22.8
	L227.4,137.4z M208.5,160.3h5.5l12.5-22.8H221L208.5,160.3z M282.9,154.6l-21.7-17.1H256v22.8h5.2v-17.2l21.7,17.2h5.2v-22.8h-5.2
	L282.9,154.6z M387.6,147.2h-15.9c-1.6,0.1-3-1-3.1-2.6l0,0c0-0.1,0-0.2,0-0.3v-0.6c0-1.6,1.3-2.8,2.9-2.8c0,0,0,0,0,0h21.6l1.3-3.4
	h-24.2c-4.3,0-6.6,2.9-6.6,5.9v1.5c0,3,2.3,6,6.8,6h15.9c1.6-0.1,3,1,3.1,2.6l0,0c0,0.1,0,0.1,0,0.2v0.6c0,1.6-1.3,2.8-2.9,2.8l0,0
	h-21.6l-1.3,3.4h24.2c4.3,0,6.6-2.9,6.6-5.9v-1.5C394.4,150.2,392.1,147.1,387.6,147.2 M29.7,147.1H13.8c-1.6,0.1-3-1-3.1-2.6l0,0
	c0-0.1,0-0.1,0-0.2v-0.6c0-1.6,1.3-2.8,2.9-2.8l0,0h21.6l1.3-3.4H12.2c-4.3,0.1-6.6,3-6.6,5.9v1.5c0,3,2.3,6,6.8,6h15.9
	c1.6-0.1,3,1,3.1,2.6l0,0c0,0.1,0,0.1,0,0.2v0.6c0,1.6-1.3,2.8-2.9,2.8l0,0H6.9l-1.3,3.4h24.2c4.3,0,6.6-2.9,6.6-5.9v-1.6
	C36.4,150.2,34.2,147.1,29.7,147.1 M344.3,160.3h5.2v-22.8h-5.2V160.3z M47.7,140.8h14.7v19.7h5.2v-19.7h13.4l1.3-3.4H49L47.7,140.8
	z M118.6,140.8l1.3-3.4H93.6v23.1h25l1.3-3.4h-21v-6.5h14.7l1.3-3.4h-16v-6.4H118.6z M140.6,157.1h19.7l-1.3,3.4h-23.6v-23.1h5.2
	V157.1z"/>
</svg>
