<?xml version="1.0" encoding="utf-8"?>
<!-- Generator: Adobe Illustrator 23.0.3, SVG Export Plug-In . SVG Version: 6.00 Build 0)  -->
<svg version="1.1" id="logosvg.com" xmlns="http://www.w3.org/2000/svg" xmlns:xlink="http://www.w3.org/1999/xlink" x="0px"
	 y="0px" viewBox="0 0 400 300" style="enable-background:new 0 0 400 300;" xml:space="preserve">
<style type="text/css">
	.st0{fill:#CC0000;}
</style>
<path id="red" class="st0" d="M89.1,126.2H91c4.2,0.1,8.6,1,12.3,3.3c3.1,1.9,5.4,4.7,6.7,8.1c0.9,2.2,1.4,4.6,1.5,6.9
	c-4.6,0-9.2,0-13.9,0c-0.1-1.9-0.8-4-2.3-5.3c-1.5-1.4-3.7-1.8-5.8-1.7c-1.8,0-3.6,0.6-4.9,1.9c-1.5,1.5-2.3,3.6-2.7,5.6
	c-0.5,2.4-0.5,5-0.3,7.4c0.3,2.4,0.8,5,2.3,6.9c1.2,1.5,2.8,2.4,4.7,2.7c1.9,0.3,4,0.1,5.8-0.8c1.4-0.8,2.4-2.1,3-3.5
	c0.4-0.9,0.5-1.9,0.6-3c4.6,0,9.1,0,13.7,0c-0.3,4-1.4,8-3.7,11.2c-2.2,3-5.3,5-8.7,6.3c-2.6,0.9-5.4,1.3-8.1,1.4h-2.2
	c-3.7-0.1-7.4-0.9-10.8-2.6c-3.3-1.7-6-4.2-8-7.4c-2.3-3.9-3.3-8.5-3.5-12.8c-0.3-4.9,0.5-9.6,2.7-13.7c1.7-3.3,4.2-6.2,7.4-8
	C80.8,127.3,84.9,126.2,89.1,126.2z M169.8,126.2h2.1c4.1,0.1,8.3,0.9,11.8,3.2c1.8,1.2,3.3,2.7,4.4,4.5c1.2,2.1,1.8,4.2,2.1,6.5
	c-4.6,0-9.1,0-13.7,0c-0.1-1-0.6-1.9-1.3-2.6c-0.9-0.9-2.3-1.2-3.6-1.3c-1.2-0.1-2.4,0-3.6,0.3c-0.8,0.3-1.5,0.8-1.8,1.7
	c-0.3,0.8-0.3,1.8,0.3,2.4c0.4,0.6,1.2,1,1.9,1.3c1.3,0.5,2.6,0.8,3.9,1.2c2.7,0.8,5.4,1.3,8.1,2.1c1.8,0.5,3.5,1.2,5,2.1
	c1.7,1,3.2,2.4,4.4,4.1s1.7,3.7,1.8,5.8c0.1,2.4-0.3,5-1.3,7.3c-0.8,1.8-2.1,3.5-3.6,4.7c-3,2.3-6.5,3.5-10.3,4
	c-1.4,0.1-2.7,0.3-4.1,0.3h-2.1c-3.3-0.1-6.7-0.6-9.8-2.1c-3-1.3-5.6-3.6-7.2-6.4c-1.2-2.1-1.8-4.5-2.1-6.8c4.7,0,9.4,0,14.1,0
	c0.3,1,0.6,2.2,1.4,3c0.6,0.6,1.4,1.2,2.3,1.3c1.2,0.3,2.4,0.4,3.6,0.3c1.2-0.1,2.4-0.3,3.5-0.9c0.6-0.4,1.2-1.2,1.3-1.9
	c0.1-0.8,0-1.7-0.6-2.3c-0.5-0.6-1.4-0.9-2.2-1.2c-1.4-0.4-2.7-0.8-4.1-1.2c-2.6-0.6-5-1.3-7.6-2.2c-1.8-0.6-3.6-1.2-5.3-2.2
	c-1.8-1.2-3.3-2.7-4.4-4.6c-1-2.1-1.4-4.5-1.4-6.8c0.1-2.2,0.6-4.2,1.7-6.2c1-1.8,2.6-3.3,4.4-4.5
	C161.4,127,165.6,126.4,169.8,126.2z M15.7,128.2c1.2-1.2,2.8-1.9,4.6-1.9c1.8,0,3.6,0.6,4.9,1.9c2.6,2.6,5.3,5.3,7.8,7.8
	c2.6-2.6,5.3-5.3,7.8-7.8c1.2-1.2,3-1.9,4.6-1.9c1.8,0,3.5,0.6,4.7,1.9c3.2,3.2,6.4,6.4,9.6,9.6c1.3,1.3,2.1,3.2,1.9,5
	c-0.1,1.7-0.8,3.2-1.9,4.4C50.9,156,42,165,33,173.8l0,0C24,165,15.2,156,6.2,147.1c-1.2-1.2-1.8-2.7-1.9-4.2v-1
	c0.1-1.5,0.8-3.1,1.9-4.2C9.4,134.6,12.5,131.4,15.7,128.2z M108.6,127.4c4.9,0,9.9,0,14.8,0c2.6,9.8,5,19.4,7.6,29.1
	c2.7-9.8,5.4-19.4,8.1-29.1c4.7,0,9.5,0,14.2,0c-5,15-10.1,30-15.3,45.1c-4.9,0-9.6,0-14.5,0C118.8,157.5,113.7,142.5,108.6,127.4z"
	/>
<path id="text" d="M195.5,131.6c0-1.4,0-2.8,0-4.2c4.7,0,9.5,0,14.4,0c0,1.4,0,2.8,0,4.2c-1.5,0-3,0-4.5,0c0,4.9,0,9.8,0,14.6
	c7.6,0,15.1,0,22.7,0c0-4.9,0-9.8,0-14.6c-1.5,0-3.1,0-4.5,0c0-1.4,0-2.8,0-4.2c4.7,0,9.5,0,14.4,0c0,1.4,0,2.8,0,4.2
	c-1.5,0-3.1,0-4.5,0c0,12.2,0,24.5,0,36.7c1.5,0,3.1,0,4.5,0c0,1.4,0,2.8,0,4.2c-4.7,0-9.5,0-14.4,0c0-1.4,0-2.8,0-4.2
	c1.5,0,3.1,0,4.5,0c0-6,0-11.9,0-18c-7.6,0-15.1,0-22.7,0c0,6,0,11.9,0,18c1.5,0,3.1,0,4.5,0c0,1.4,0,2.8,0,4.2c-4.7,0-9.5,0-14.4,0
	c0-1.4,0-2.8,0-4.2c1.5,0,3.1,0,4.5,0c0-12.2,0-24.5,0-36.7C198.5,131.6,196.9,131.6,195.5,131.6z M313.5,127.4c3.1,0,6.2,0,9.4,0
	c0,11.4,0,23,0,34.4c0,1,0,2.1,0,3.2c0.1,0.9,0.3,2.1,0.8,2.8c0.5,0.6,1.3,0.9,2.1,0.9c0.9,0,1.7,0,2.6-0.3c0,1.4,0,2.7,0,4.1
	c-1.5,0.5-3.2,0.5-4.7,0.3c-1.3-0.3-2.7-0.8-3.6-1.7c-1-0.9-1.5-2.3-1.8-3.6c-0.4-1.7-0.3-3.5-0.3-5.1c0-10.3,0-20.7,0-30.9
	c-1.4,0-2.8,0-4.2,0C313.5,130.2,313.5,128.8,313.5,127.4z M347.1,127.4c3.1,0,6.2,0,9.2,0c0,5.8,0,11.7,0,17.5
	c1.4-1.9,3.6-3.2,5.9-3.9c2.3-0.6,4.7-0.6,7.2-0.1c2.4,0.5,4.6,1.8,6.3,3.6c2.1,2.2,3.1,5,3.5,8c0.1,1.4,0.1,2.8,0.1,4.1
	c0,4,0,8,0,11.9c1.4,0,2.8,0,4.2,0c0,1.4,0,2.7,0,4.1c-4.5,0-9,0-13.6,0c0-1.4,0-2.7,0-4.1c1.4,0,2.8,0,4.2,0c0-4.7,0-9.5,0-14.4
	c0-2.4-0.6-4.9-2.2-6.8c-1.4-1.5-3.5-2.4-5.5-2.6c-2.2-0.1-4.5,0.1-6.4,1.3c-1.4,0.9-2.4,2.3-3.1,3.9c-0.5,1.4-0.6,2.8-0.6,4.4
	c0,4.7,0,9.4,0,14.1c1.4,0,2.8,0,4.2,0c0,1.4,0,2.7,0,4.1c-4.5,0-9,0-13.5,0c0-1.4,0-2.7,0-4.1c1.4,0,2.8,0,4.2,0
	c0-12.3,0-24.6,0-37c-1.4,0-2.8,0-4.2,0C347.1,130.2,347.1,128.8,347.1,127.4z M332.8,133.4c1.7,0,3.3,0,5.1,0c0,2.7,0,5.3,0,8
	c2.1,0,4.2,0,6.3,0c0,1.4,0,2.7,0,4.1c-2.1,0-4.2,0-6.3,0c0,6.4,0,12.7,0,19.1c0,1,0.1,2.1,0.6,3c0.5,0.6,1.3,1,2.1,1
	c1.2,0.1,2.4,0,3.6-0.1c0,1.4,0,2.7,0,4.1c-1.7,0.5-3.3,0.5-5,0.3c-1.7-0.3-3.3-0.8-4.5-2.1c-1.7-1.7-1.9-4.2-1.9-6.5
	c0-6.3,0-12.6,0-18.9c-1.7,0-3.2,0-4.9,0c0-1.4,0-2.7,0-4.1c1.7,0,3.2,0,4.9,0C332.8,138.8,332.8,136.1,332.8,133.4z M251.5,141.1
	c2.8-0.8,5.9-0.8,8.7-0.3c3.3,0.6,6.4,2.4,8.5,5c1.5,1.9,2.4,4.1,3,6.4c0.5,2.1,0.4,4.2,0.4,6.3c-9,0-18,0-26.8,0
	c0.1,2.6,1,5.1,2.7,7.1c1.4,1.7,3.5,2.8,5.6,3.2c2.3,0.5,4.7,0.4,6.9-0.3c2.4-0.6,4.6-2.3,5.8-4.5c1.7,0,3.3,0,5.1,0
	c-1.4,3.2-3.9,5.9-7.1,7.4c-2.3,1.2-4.9,1.7-7.4,1.8c-4,0.1-8-1-11-3.5c-3-2.3-4.9-5.9-5.5-9.6c-0.8-4.5,0-9.4,2.6-13.1
	C244.7,144.2,247.9,142,251.5,141.1z M253.7,145c-2.2,0.4-4.4,1.4-5.9,3.1c-1.7,1.8-2.6,4.2-2.8,6.5c7.3,0,14.5,0,21.8,0
	c-0.3-2.3-1-4.6-2.6-6.4c-1-1.3-2.6-2.3-4.1-3C258.1,144.6,255.8,144.6,253.7,145z M283.9,142.3c3.3-1.8,7.3-2.2,11-1.3
	c3,0.8,5.6,2.6,7.6,5c0-1.5,0-3.1,0-4.6c3.1,0,6.2,0,9.2,0c0,1.4,0,2.7,0,4.1c-1.4,0-2.8,0-4.2,0c0,7.7,0,15.3,0,23
	c1.4,0,2.8,0,4.2,0c0,1.4,0,2.7,0,4.1c-3.1,0-6.2,0-9.2,0c0-1.5,0-3.1,0-4.6c-1.9,2.6-4.7,4.4-8,5.1c-4.2,1-9,0.1-12.4-2.4
	c-3.1-2.3-5.3-5.8-6-9.5c-0.9-4-0.5-8.2,1.3-11.8C278.7,146.2,281,143.8,283.9,142.3z M290.5,144.8c-3,0.3-5.8,1.9-7.4,4.5
	c-2.2,3.2-2.7,7.3-1.9,11c0.6,3.1,2.6,6,5.5,7.6c3.5,1.8,8,1.7,11-0.6c1.7-1.2,2.8-2.7,3.7-4.6c1.3-3.1,1.5-6.7,0.6-9.9
	c-0.8-3-2.8-5.8-5.6-7.2C294.6,145,292.5,144.6,290.5,144.8z M388.2,164.6c1.7-1.5,4.6-1.4,6.2,0.3c0.8,0.8,1.2,1.8,1.4,2.8v1
	c-0.1,1-0.5,2.1-1.3,2.8c-1.3,1.4-3.3,1.8-5.1,1.2c-1.3-0.5-2.3-1.5-2.6-2.8C386.2,167.8,386.7,165.8,388.2,164.6z M390.5,164.3
	c-0.6,0.1-1.2,0.4-1.7,0.9c-1.5,1.4-1.5,4.1-0.1,5.6c1.2,1.3,3.5,1.4,4.7,0.3c1.8-1.5,1.8-4.6,0-6
	C392.5,164.5,391.4,164.2,390.5,164.3z M389.4,165.6c0.8,0,1.7,0,2.4,0c0.5,0,1.2,0.3,1.3,0.9c0.1,0.5,0.1,1-0.1,1.5
	c-0.3,0.4-0.6,0.5-1,0.5c0.5,0.8,1,1.5,1.4,2.2c-0.3,0-0.6,0-0.9,0c-0.5-0.8-0.9-1.4-1.3-2.2c-0.3,0-0.5,0-0.8,0c0,0.8,0,1.4,0,2.2
	c-0.3,0-0.5,0-0.9,0C389.4,169.1,389.4,167.4,389.4,165.6z M390.2,166.4c0,0.5,0,1,0,1.5c0.5,0,1.2,0,1.7-0.1c0.6-0.1,0.6-1.2,0-1.3
	C391.4,166.3,390.9,166.4,390.2,166.4z"/>
</svg>
