<?xml version="1.0" encoding="utf-8"?>
<!-- Generator: Adobe Illustrator 19.2.1, SVG Export Plug-In . SVG Version: 6.00 Build 0)  -->
<svg version="1.1" id="layer" xmlns="http://www.w3.org/2000/svg" xmlns:xlink="http://www.w3.org/1999/xlink" x="0px" y="0px"
	 viewBox="0 0 652 652" style="enable-background:new 0 0 652 652;" xml:space="preserve">
<style type="text/css">
	.st0{fill:#000586;}
	.st1{fill:#1267D0;}
</style>
<path id="Fill-1" class="st0" d="M170.5,394c0,2.7-2.1,4.6-4.6,4.6c-2.5,0-4.6-1.9-4.6-4.6c0-2.7,2.1-4.6,4.6-4.6
	C168.5,389.4,170.5,391.3,170.5,394z M169.8,394c0-2.2-1.7-3.9-3.8-3.9c-2.1,0-3.8,1.7-3.8,3.9s1.7,3.9,3.8,3.9
	C168.1,397.8,169.8,396.2,169.8,394z M166.9,396.2c-0.1-0.1-0.2-0.3-0.2-0.5l-0.1-0.7c-0.1-0.4-0.3-0.5-0.7-0.5h-0.7v1.7H164v-4.6
	h2.2c1,0,1.7,0.4,1.7,1.4c0,0.7-0.5,1.1-1,1.2c0.4,0.1,0.7,0.3,0.7,0.7l0.2,0.8c0,0.2,0.1,0.4,0.3,0.5H166.9z M166,392.5h-0.9v1.2
	h0.9c0.4,0,0.7-0.2,0.7-0.6C166.7,392.7,166.5,392.5,166,392.5z"/>
<path id="Fill-3" class="st0" d="M181.4,321c0-44.4-36-80.4-80.4-80.4c-44.4,0-80.4,36-80.4,80.4c0,44.4,36,80.4,80.4,80.4
	C145.4,401.4,181.4,365.4,181.4,321z M125.1,324.1h15.8l-15.8,53.6h-16.5l-7.4-33h-0.2l-7.4,33H77l-15.8-53.6H77l-15.8-53.6H78
	l7.7,34.6h0.2l8-34.6h14.4l8,34.6h0.2l7.7-34.6h16.8L125.1,324.1z M116.4,358.7l7.7-34.6h-15.5l-7.4-33h-0.2l-7.4,33H78l7.7,34.6
	h0.2l8-34.6h14.4l8,34.6H116.4z"/>
<path id="Fill-6" class="st0" d="M229.9,332.6c-5.5-1-9.3,2.1-10.5,7l-1.1-6.5h-8.1v28.8h9.4v-13.3c0-4.9,2.9-7.1,6.3-7.1
	c1.4,0,2.7,0.2,3.6,0.6L229.9,332.6z M244.6,355.6c-3.2,0-5.3-2.4-5.4-6.5h17.5c0.3-1,0.5-2.6,0.5-3.8c0-7.1-4.1-12.9-12.5-12.9
	c-9,0-14.5,6-14.5,15.4c0,9.3,5.6,14.8,14.2,14.8c5.6,0,10.8-2.4,12.5-8l-7.6-2.6C248.6,354.4,246.9,355.6,244.6,355.6z
	 M239.3,344.6c0.3-3.5,2.2-5.7,5.1-5.7c2.7,0,4.1,2.1,4.1,4.4c0,0.5,0,0.9-0.1,1.3H239.3z M271.7,324.9c0-3.2-2.6-5.1-5.5-5.1
	s-5.5,1.8-5.5,5.1c0,3.2,2.6,5,5.5,5S271.7,328.1,271.7,324.9z M261.5,361.8h9.4V333h-9.4V361.8z M303.2,338.4
	c-1.1-4-4.4-6.1-8.5-6.1c-4,0-7.5,2.2-8.8,6.2l-1.1-5.5h-8v28.8h9.4v-15.6c0-4.3,2.1-6,4.4-6c2.7,0,3.6,1.6,3.6,4.5v17.2h9.4v-15.6
	c0-4.3,2.1-6,4.4-6c2.8,0,3.6,1.6,3.6,4.5v17.2h9.4v-20.3c0-6.1-3.8-9.2-8.9-9.2C308.1,332.3,304.6,334.6,303.2,338.4z M350.7,342
	c0-6.1-3.7-9.7-11.9-9.7c-7.3,0-11.9,3.6-12.4,9.3l8.6,1.2c0-2.4,1.2-3.9,3.4-3.9c2.2,0,3.2,1.3,3.2,3.4v2.9c-1-0.1-2.4-0.2-3.6-0.2
	c-8.1,0-13.1,3.2-13.1,8.9c0,5.3,3.7,8.4,9.1,8.4c3.8,0,7.1-1.7,8.3-4.5c0.2,0.7,0.5,1.4,1,1.9c1.3,1.6,3.3,2.6,5.9,2.6
	c1.9,0,3.9-0.5,5.2-1.4l-0.3-6.1c-0.5,0.4-1,0.6-1.6,0.6c-1,0-1.8-0.6-1.8-2V342z M341.7,351.6c0,3.5-2.2,4.7-4.3,4.7
	c-2.2,0-3.4-1.2-3.4-3c0-2.3,1.9-3.5,5.7-3.5c0.7,0,1.5,0.1,2,0.1V351.6z M366.1,342c0-2.7,1.4-4.3,3.9-4.3c2.4,0,3.8,1.5,3.8,4.3
	c0,2.7-1.4,4.3-3.8,4.3C367.4,346.3,366.1,344.6,366.1,342z M385.9,363.1c0-5.6-3.9-8.7-11.8-8.7h-7.6c-1.1,0-2-0.4-2-1.4
	c0-0.9,0.5-1.4,1.4-1.8c1.3,0.3,2.7,0.4,4.1,0.4c7.4,0,13.1-3.1,13.1-9.5c0-1.9-0.6-3.5-1.5-4.9c2.4-0.6,4.9-2.4,5.3-5.3l-7.5-2.4
	c-0.2,1.8-0.6,3.6-1.5,4.7c-2.2-1.1-4.8-1.7-7.9-1.7c-7.8,0-13,3.4-13,9.7c0,3.8,2.1,6.5,5.5,8c-3,0.7-5.2,2.8-5.2,5.7
	c0,2.8,1.7,4.7,4.1,5.3c-3.6,0.5-6.2,2.4-6.2,5.5c0,5.4,7.2,7.2,13.9,7.2C377.4,373.8,385.9,370.9,385.9,363.1z M362.6,365
	c0-1.6,1.3-2.5,3.3-2.5h8.1c2.3,0,3.7,0.7,3.7,2.3c0,2.3-3.3,3.4-8.4,3.4C365.1,368.2,362.6,367.2,362.6,365z M399.6,324.9
	c0-3.2-2.6-5.1-5.5-5.1c-2.8,0-5.5,1.8-5.5,5.1c0,3.2,2.6,5,5.5,5C397,330,399.6,328.1,399.6,324.9z M389.4,361.8h9.4V333h-9.4
	V361.8z M412.6,333h-8v28.8h9.4v-15.6c0-4.4,2.2-6.1,4.8-6.1c2.7,0,3.8,1.7,3.8,4.6v17.1h9.4v-20.1c0-6.1-3.8-9.3-9-9.3
	c-4.3,0-7.8,2.2-9.2,6.2L412.6,333z M450.5,355.6c-3.2,0-5.3-2.4-5.4-6.5h17.5c0.3-1,0.5-2.6,0.5-3.8c0-7.1-4.1-12.9-12.5-12.9
	c-9,0-14.5,6-14.5,15.4c0,9.3,5.6,14.8,14.2,14.8c5.6,0,10.8-2.4,12.5-8l-7.6-2.6C454.5,354.4,452.9,355.6,450.5,355.6z
	 M445.2,344.6c0.3-3.5,2.2-5.7,5.1-5.7c2.7,0,4.1,2.1,4.1,4.4c0,0.5,0,0.9-0.1,1.3H445.2z M486.1,348.6c0,4.5-2.3,6.7-5.1,6.7
	c-3.2,0-5.3-2.6-5.3-7.5c0-5.7,2.1-8.5,5.5-8.5c2.5,0,5,1.9,5,6V348.6z M487.4,361.8h8.1v-41.1h-9.4v16c-1-2.6-3.9-4.4-7.9-4.4
	c-7.2,0-12.1,5.6-12.1,15.7c0,9.2,5.1,14.5,11.6,14.5c4.2,0,7.5-2,8.7-6L487.4,361.8z"/>
<path id="Fill-8" class="st1" d="M227.6,281.8l-4.2,18.6h-0.1l-4-18.6h-9.3l7.8,28.8h9.1l4.2-17.7h0.1l4.2,17.7h9.1l7.8-28.8h-9
	l-4,18.6H239l-4.3-18.6H227.6z M267.4,304.3c-3.2,0-5.3-2.4-5.4-6.5h17.5c0.3-1,0.5-2.6,0.5-3.8c0-7.1-4.1-12.9-12.5-12.9
	c-9,0-14.5,6-14.5,15.4c0,9.3,5.6,14.8,14.2,14.8c5.6,0,10.8-2.4,12.5-8l-7.6-2.6C271.4,303.2,269.7,304.3,267.4,304.3z
	 M262.1,293.4c0.3-3.5,2.2-5.7,5.1-5.7c2.7,0,4.1,2.1,4.1,4.4c0,0.5,0,0.9-0.1,1.3H262.1z M294.5,273.7c0-3.2-2.6-5.1-5.5-5.1
	c-2.8,0-5.5,1.8-5.5,5.1c0,3.2,2.6,5,5.5,5C291.9,278.7,294.5,276.9,294.5,273.7z M284.3,310.6h9.4v-28.8h-9.4V310.6z M307.5,290.8
	c0-2.7,1.4-4.3,3.9-4.3c2.4,0,3.8,1.5,3.8,4.3c0,2.7-1.4,4.3-3.8,4.3C308.9,295.1,307.5,293.4,307.5,290.8z M327.4,311.9
	c0-5.6-3.9-8.7-11.8-8.7h-7.6c-1.1,0-2-0.4-2-1.4c0-0.9,0.5-1.4,1.4-1.8c1.3,0.3,2.7,0.4,4.1,0.4c7.4,0,13.1-3.1,13.1-9.5
	c0-1.9-0.6-3.5-1.5-4.9c2.4-0.6,4.9-2.4,5.3-5.4l-7.5-2.4c-0.2,1.8-0.6,3.6-1.5,4.7c-2.2-1.1-4.8-1.7-7.9-1.7c-7.8,0-13,3.4-13,9.7
	c0,3.8,2.1,6.5,5.5,8c-3,0.7-5.2,2.8-5.2,5.7c0,2.8,1.7,4.7,4.1,5.3c-3.6,0.5-6.2,2.4-6.2,5.5c0,5.4,7.2,7.2,13.9,7.2
	C318.9,322.6,327.4,319.7,327.4,311.9z M304.1,313.8c0-1.6,1.3-2.5,3.3-2.5h8.1c2.3,0,3.7,0.7,3.7,2.3c0,2.3-3.3,3.4-8.4,3.4
	C306.6,317,304.1,316,304.1,313.8z M340.4,269.5H331v41.1h9.4V295c0-4.4,2.2-6.1,4.8-6.1c2.7,0,3.8,1.7,3.8,4.6v17.1h9.4v-20.1
	c0-6.1-3.8-9.3-9-9.3c-4.1,0-7.5,2-9,5.8V269.5z M382.1,302.3c-1.5,1-2.8,1.5-4.3,1.5c-2.1,0-3.2-1.1-3.2-3.5v-11.6h7.5v-6.9h-7.5
	v-7.2l-9.4,1.1v6.1h-3.8v6.9h3.7v12.9c0,6.8,4.2,9.7,10.3,9.7c3,0,5.8-0.9,7.9-2.4L382.1,302.3z M402.2,281.8l-4.2,18.6h-0.1
	l-4-18.6h-9.3l7.8,28.8h9l4.2-17.7h0.1l4.2,17.7h9.1l7.8-28.8h-9l-4,18.6h-0.1l-4.3-18.6H402.2z M453.1,290.8
	c0-6.1-3.7-9.7-11.9-9.7c-7.3,0-11.9,3.6-12.4,9.3l8.6,1.2c0-2.4,1.2-3.9,3.4-3.9c2.2,0,3.2,1.3,3.2,3.4v2.9c-1-0.1-2.4-0.2-3.6-0.2
	c-8.1,0-13.1,3.2-13.1,8.9c0,5.3,3.7,8.4,9.1,8.4c3.8,0,7.1-1.7,8.3-4.5c0.2,0.7,0.5,1.4,1,1.9c1.3,1.7,3.3,2.6,5.9,2.6
	c1.9,0,3.9-0.5,5.2-1.4l-0.3-6.1c-0.5,0.4-1,0.6-1.6,0.6c-1,0-1.8-0.6-1.8-2V290.8z M444.1,300.4c0,3.5-2.2,4.7-4.3,4.7
	c-2.2,0-3.4-1.2-3.4-3c0-2.3,1.9-3.5,5.7-3.5c0.7,0,1.5,0.1,2,0.1V300.4z M477.9,302.3c-1.5,1-2.8,1.5-4.3,1.5c-2,0-3.2-1.1-3.2-3.5
	v-11.6h7.5v-6.9h-7.5v-7.2l-9.4,1.1v6.1h-3.8v6.9h3.7v12.9c0,6.8,4.2,9.7,10.3,9.7c3,0,5.8-0.9,7.9-2.4L477.9,302.3z M480.8,296.2
	c0,9.4,5.6,15.1,14.4,15.1c6.4,0,11.2-3.4,12.2-9l-8.1-2.5c-0.3,2.9-1.8,4.6-4.2,4.6c-3.4,0-5-3-5-8.1c0-4.9,1.5-8.2,5-8.2
	c2.6,0,3.8,2.1,4,4.7l8.1-1.8c-0.6-5.9-5.1-9.8-12.3-9.8C486.4,281.1,480.8,286.8,480.8,296.2z M520.7,269.5h-9.4v41.1h9.4V295
	c0-4.4,2.2-6.1,4.8-6.1c2.7,0,3.8,1.7,3.8,4.6v17.1h9.4v-20.1c0-6.1-3.8-9.3-9-9.3c-4.1,0-7.5,2-9,5.8V269.5z M557.2,304.3
	c-3.2,0-5.4-2.4-5.4-6.5h17.5c0.3-1,0.5-2.6,0.5-3.8c0-7.1-4.1-12.9-12.5-12.9c-9,0-14.5,6-14.5,15.4c0,9.3,5.6,14.8,14.2,14.8
	c5.6,0,10.8-2.4,12.5-8l-7.6-2.6C561.2,303.2,559.5,304.3,557.2,304.3z M551.9,293.4c0.3-3.5,2.2-5.7,5.1-5.7c2.7,0,4.1,2.1,4.1,4.4
	c0,0.5,0,0.9-0.1,1.3H551.9z M593.9,281.3c-5.5-1-9.3,2.1-10.5,7l-1.1-6.5h-8.1v28.8h9.4v-13.3c0-4.9,2.8-7.1,6.3-7.1
	c1.4,0,2.7,0.2,3.6,0.6L593.9,281.3z M595.2,303.4c1.3,5.3,6.3,7.9,12.5,7.9c7.5,0,12.9-3.4,12.9-9.6c0-11.5-15.7-6.8-15.7-11.8
	c0-1.7,1.3-2.7,3.5-2.7c2.4,0,3.9,1.3,4.1,3.3l7.8-0.9c-0.9-5.3-5.1-8.4-12-8.4c-6.7,0-12.2,3.4-12.2,9.7c0,11.2,15.5,6.7,15.5,11.7
	c0,1.8-1.5,2.7-3.9,2.7c-2.4,0-4.3-1.4-4.7-3.5L595.2,303.4z"/>
</svg>
