<svg fill="none" xmlns="http://www.w3.org/2000/svg" viewBox="0 0 172 32"><g clip-path="url(#clip0)" fill="#fff"><path d="M21.516 22.148H6.599c.317 2.622 1.537 4.114 4.385 4.114 1.808 0 2.938-.724 3.525-2.08l6.51 1.447c-1.763 3.752-5.153 6.283-9.854 6.283C4.882 31.912 0 27.753 0 20.43 0 14.826 3.932 9.357 11.029 9.357c6.283 0 10.667 4.927 10.667 11.029 0 .587-.045 1.13-.18 1.762zm-14.69-4.61h8.316c-.27-1.492-1.537-3.074-4.113-3.074-2.08 0-3.57.95-4.204 3.074z"/><path d="M29.21 20.612l-8.137-11.03h7.865l4.068 6.012 4.068-6.011h8L36.94 20.612l8.136 11.029h-8l-4.069-5.967-4.068 5.967h-7.865l8.136-11.03zM54.935 15.007v7.774c0 1.311.95 2.26 2.26 2.26h3.164v6.6h-4.023c-4.52 0-8.136-3.616-8.136-8.182v-8.452h-2.35V9.583h2.35V3.66h6.735v5.922h5.47v5.424h-5.47zM63.33 9.583h6.056v2.486c.995-1.673 3.21-2.803 5.108-2.803.542 0 1.13.09 1.627.317v6.102c-.994-.09-1.808-.09-2.576-.09-2.758 0-4.023 1.807-4.023 5.559v10.487h-6.193V9.583zM98.935 22.148H84.019c.316 2.622 1.536 4.114 4.384 4.114 1.808 0 2.938-.724 3.526-2.08l6.509 1.447c-1.763 3.752-5.153 6.283-9.854 6.283-6.283 0-11.165-4.159-11.165-11.481 0-5.605 3.933-11.074 11.03-11.074 6.282 0 10.667 4.927 10.667 11.029 0 .587-.046 1.13-.181 1.762zm-14.69-4.61h8.316c-.27-1.492-1.536-3.074-4.113-3.074-2.079 0-3.57.95-4.203 3.074zM101.815 9.583h6.554v2.214c1.492-1.853 3.526-2.621 5.876-2.621 2.577 0 4.746 1.537 5.515 2.938 1.988-2.215 4.294-2.893 6.418-2.893 5.605 0 8.227 4.023 8.227 8v14.42h-6.735V18.939c0-2.712-1.13-3.706-3.119-3.706-2.034 0-3.119 1.717-3.119 3.887v12.52h-6.735V18.895c0-2.667-1.085-3.661-3.074-3.661-2.26 0-3.118 1.717-3.118 3.887v12.52h-6.69V9.584zM137.511 3.752c0-2.08 1.672-3.752 3.797-3.752 2.079 0 3.796 1.672 3.796 3.752a3.79 3.79 0 01-3.796 3.797 3.762 3.762 0 01-3.797-3.797zm.542 5.83h6.645v22.059h-6.645V9.583zM147.181 25.358l5.65-1.492c.271 1.989 1.717 3.029 3.299 3.029 1.356 0 2.351-.814 2.351-1.718 0-1.672-2.758-1.989-5.47-2.803-2.712-.858-5.378-2.214-5.378-6.102 0-4.475 4.068-7.141 8.407-7.141s7.413 2.53 8.362 6.056l-5.288 1.357c-.272-1.311-1.402-2.35-3.119-2.35-1.311 0-2.26.541-2.26 1.626 0 1.401 2.757 1.537 5.469 2.396 2.757.859 5.514 2.396 5.514 6.69 0 4.475-3.887 7.187-8.226 7.187-4.927 0-8.272-2.758-9.311-6.735zM168.964 8.995c1.478 0 2.683 1.104 2.683 2.693 0 1.598-1.205 2.686-2.683 2.686-1.495 0-2.693-1.088-2.693-2.686 0-1.592 1.198-2.693 2.693-2.693zm0 4.898c1.23 0 2.153-.891 2.153-2.209 0-1.323-.923-2.208-2.153-2.208-1.214 0-2.16.885-2.16 2.208 0 1.318.949 2.209 2.16 2.209zm.087-1.963H168.502v1.088h-.588V10.17h.875c.846 0 1.347.142 1.347.878 0 .314-.158.604-.517.76l.659 1.213h-.649l-.578-1.091zm-.165-1.301h-.384v.846h.417c.445 0 .632-.143.632-.423 0-.336-.274-.423-.665-.423z"/></g><defs><clipPath id="clip0"><path d="M0 0h172v32H0V0z" fill="#fff"/></clipPath></defs></svg>