<svg version="1.1" id="Layer_1" xmlns="http://www.w3.org/2000/svg" x="0" y="0" xml:space="preserve" viewBox="0 0 570 75"><style>.st0,.st1{fill:#fff}</style><path class="st0" d="M2.1 21.9h4.1l10.3 29.8 10.3-29.8h4.1L19.1 56h-5.4L2.1 21.9zM35.7 21.9h4V56h-4V21.9zM46.1 51.4c.9.4 2.1.7 3.4 1 1.3.3 2.7.4 4.1.4 2 0 4-.4 5.4-1.2 1.4-.9 2.4-2.2 2.4-4.4 0-2.3-1.1-3.6-3-4.8-1.3-.9-3.2-1.8-5-2.7-1.7-.9-3.4-1.7-4.4-2.6-1.7-1.3-2.7-3.4-2.7-6.5 0-3.4 1.3-5.7 3.3-7.2 2-1.4 4.6-2 7.3-2 2.1 0 4.1.4 6 .9v3.4l-.1.1c-1.6-.3-3.8-.7-5.9-.7-1.8 0-3.5.3-4.8 1-1.3.8-2.1 2.1-2.1 4.2 0 1.7.5 2.7 1.5 3.6.9.8 2.4 1.6 4.2 2.5 1.8.9 3.7 1.8 5.4 2.9 1.2.8 2.3 1.6 3.1 2.7.8 1.1 1.2 2.5 1.2 4.4 0 3.5-1.5 6.1-3.8 7.7-2.3 1.7-5.3 2.5-8.4 2.5-2.5 0-4.9-.5-7-1.5v-3.7zM71.7 21.9h4V56h-4V21.9zM81 21.9h25.1v3.7H95.5V56h-4V25.7H81v-3.8zM110.6 21.9h21v5.8h-15v8.4h14.5V42h-14.5v14h-6.1V21.9zM136.3 21.9h6.1v28.3h14.2V56h-20.3V21.9zM158.3 56l11.9-34.6h7.1l12 34.6h-6.4l-2.4-7.1h-13.2l-2.4 7.1h-6.6zm10.9-12.8h9.2l-4.6-13.4-4.6 13.4zM199.5 33.4V56h-6.1V21.9h6.1l14.2 22.7V21.9h6.1V56h-6.1l-14.2-22.6zM226.4 56V21.9h11.3c5.6 0 10.1 1.9 13.2 5 3.2 3.1 4.9 7.3 4.9 12 0 4.2-1.4 8.5-4.4 11.7-2.9 3.2-7.4 5.4-13.5 5.4h-11.5zm6.1-28.2v22.5h4.5c4.8 0 7.9-1.6 9.9-3.8 1.9-2.2 2.7-5 2.7-7.5 0-2.8-1.1-5.6-3.3-7.7-2.2-2.1-5.4-3.5-9.8-3.5h-4zM260.8 21.9H281v5.8h-14.2v8.4h13.8V42h-13.8v8.2H281V56h-20.3V21.9zM286.4 56V21.9h9.8c2.2 0 4.7.3 7 1s4.3 1.9 5.8 3.8c1.5 1.8 2.5 4.2 2.5 7.5 0 2.4-.6 4.3-1.6 5.9-1 1.6-2.5 2.8-4.2 3.7.7 1.6 2.1 3.4 3.6 4.9 1.6 1.6 3.4 2.9 4.9 3.5v.3l-2.7 4c-1.7 0-3.4-.7-5-1.9-1.6-1.1-3.1-2.7-4.3-4.3-1.2-1.6-2.1-3.3-2.6-4.7-1.1.2-2.3.2-3.4.2h-3.7V56h-6.1zm6.1-28.2V40h3.8c3.5 0 5.8-.6 7.2-1.6 1.4-1 1.9-2.5 1.9-4.3 0-1.9-.5-3.4-1.9-4.5s-3.7-1.8-7.2-1.8h-3.8zM334.7 27.7c-1.6-.3-3.9-.6-6.2-.6-2 0-3.6.2-4.8.7-1.1.5-1.7 1.2-1.7 2.5 0 1.2.7 2.3 1.9 3.2 1.1.9 2.7 1.7 4.2 2.3.8.3 1.5.6 2.2.9 1.4.5 2.8 1.1 4.4 2.2 1.6 1.1 2.8 2.6 3.5 4.4.3.9.5 1.9.5 3 0 3.5-2 6.1-4.8 7.8-2.8 1.7-6.4 2.6-9.8 2.6-2.7 0-5.3-.5-7.6-1.5v-5.7h.1c1 .4 2.2.7 3.6 1 1.4.3 2.9.5 4.4.5 2.4 0 4.3-.5 5.7-1.3 1.3-.8 2.1-1.9 2.1-3.1 0-1.2-.7-2.3-1.9-3.2-1.1-.9-2.6-1.6-4.1-2.2-.7-.3-1.5-.6-2.2-.9-1.4-.5-2.8-1.1-4.3-2.2-1.6-1.1-2.8-2.5-3.5-4.4-.4-.9-.6-2-.6-3.1 0-3.3 1.7-5.6 4.1-7 2.4-1.4 5.6-2.1 8.8-2.1 2.2 0 4.3.3 6.1.8l-.1 5.4z"/><path class="st1" d="M428 22.3h-10.1v16.4h2.9v-6.8h7v-2.8h-7v-4h7.2zM432.7 20.7h-.3l-2.6.2v17.8h2.9z"/><g><path class="st1" d="M440.4 25.5c-1.6 0-3.4.4-4.7 1.1l.7 2.5c.5-.2 1.1-.5 1.7-.6.6-.2 1.2-.3 1.8-.3.7 0 1.3.1 1.8.5s.7 1 .7 1.9v.6c-1.1-.1-2-.1-2.6-.1-1.7 0-2.9.3-3.6.9-.7.6-1 1.5-1 2.6s.3 2 .7 2.6c.4.6 1 1 1.7 1.2s1.3.3 1.9.3c.8 0 1.4-.1 2-.4.5-.2 1-.6 1.5-1 .5.5 1 .9 1.5 1.1.5.2 1 .3 1.4.3l1.3-2.4c-.6-.1-1-.3-1.4-.6-.3-.3-.5-.7-.5-1.3v-4.8c0-1.6-.6-2.6-1.4-3.3-1-.5-2.2-.8-3.5-.8m-.5 11c-1.1 0-1.8-.6-1.8-1.6 0-.8.4-1.1 1.1-1.3.6-.1 1.3-.2 2.3-.2h.9v.8c0 1-.4 1.6-.9 1.9-.6.4-1.3.4-1.6.4M455.6 25.5c-1.4 0-2.9.5-4.1 1.3l-.3-1h-2.5v12.9h2.9v-9.6c.8-.5 1.8-.8 2.8-.8.8 0 1.5.2 2 .6.5.4.9 1.1.9 2.1v7.7h2.9v-8.6c0-1.6-.6-2.8-1.4-3.5-.8-.7-1.9-1.1-3.2-1.1M474.3 20.7h-.4l-2.5.2v4.7c-.7-.1-1.3-.1-1.9-.1-2 0-3.7.6-4.9 1.8-1.2 1.2-2 3-2 5.5 0 1.6.4 3.1 1.4 4.3.9 1.1 2.3 1.9 4.1 1.9 1.4 0 2.5-.5 3.5-1.2l.5 1h2.2V20.7zm-5.6 15.4c-1 0-1.8-.5-2.3-1.2-.5-.7-.8-1.7-.8-2.7 0-1.3.4-2.3 1-3 .6-.7 1.6-1 2.7-1 .6 0 1.3.1 2.1.3v6.8c-.8.5-1.8.8-2.7.8M482.5 25.5c-1.5 0-2.9.6-4 1.7s-1.8 2.8-1.8 5 .8 3.9 2 5 2.9 1.7 4.7 1.7c.5 0 1.2-.1 1.8-.2.6-.1 1.3-.3 1.8-.6v-2.8h-.1c-1 .5-2.1.8-3.2.8-.8 0-1.7-.2-2.3-.6-.7-.4-1.2-1.2-1.5-2.2h7.8v-1.9c0-1.8-.4-3.1-1.1-3.9-.6-.9-1.5-1.4-2.2-1.6-.8-.3-1.5-.4-1.9-.4m-2.7 5.5c.2-.9.6-1.6 1.1-2.1.5-.4 1.1-.6 1.7-.6.6 0 1.1.2 1.6.6.4.4.8 1.1.8 2.1h-5.2zM496.1 25.5c-1.3 0-2.4.5-3.3 1.3l-.3-1.1H490v12.9h2.9v-9.4c.8-.6 1.7-.9 2.6-.9.7 0 1.5.2 2.2.6l.9-2.9c-.3-.2-.8-.3-1.3-.4-.4 0-.9-.1-1.2-.1M504 25.5c-1.2 0-2.3.3-3.1.9-.8.6-1.4 1.6-1.4 2.9 0 .5.1 1 .2 1.4.3.7.8 1.2 1.5 1.6.6.3 1.3.5 2 .7l.9.3c.5.3.8.6.8 1.3 0 .6-.3.9-.7 1.2-.4.2-1 .3-1.5.3-.6 0-1.2-.1-1.8-.3-.6-.2-1.1-.4-1.4-.6l-.1.1V38c.9.6 2 .9 3.3.9 1.3 0 2.5-.3 3.4-1 .9-.7 1.5-1.8 1.5-3.3 0-.6-.1-1-.2-1.4-.3-.8-.8-1.3-1.5-1.7-.6-.4-1.3-.6-2-.8l-.9-.3c-.5-.2-.8-.5-.8-1 0-.4.2-.7.6-.9.4-.2.9-.3 1.4-.3.8 0 1.5.2 2.2.5l.1-.1V26c-.4-.3-1.5-.5-2.5-.5M374.4 20s.7 1.4 3.3 13.9c.1.5 1 6 1.7 7.8.2.7.7 2 1 2.7.8 1.8 3 4.5 3.1 7 .1 1.4.2 2.6.3 3.7 0 .3.2 1.6.4 2.2.5 1.5 4.8 6.3 9.4 6.3v-3.7c-4.5 0-8.8-2.5-8.9-2.8-.1-.1.2-1.8.5-2.6.6-1.5 1.7-2.8 3.7-3h.7c1.8 0 2.9.5 4 .5V40.3c-.6-.4-1-.6-1.4-.6-.4 0-.7.1-1 .2-.3.1-.6.2-.9.2h-.1c-.8-.1-1.5-1.2-2.2-1.2-.1 0-.2 0-.2.1-1.3.7.5 3 1.3 3.5.7.4 1.6.8 1.8.9 1 .5 1.5 1.2 1.6 2.4 0 .3 0 .9-.1 1.2-.4 1.5-2.5 3-4.4 3-.6 0-1.2-.1-1.7-.5-1-.7-1.8-1.5-2.1-3-.6-2.7-2.5-4.6-3.1-7.3-.4-1.6-.7-3.3-1.1-4.9-.4-1.7-.9-3.3-1.2-4.8-.3-1.4-1-3.5-1.5-4.8-1.8-4.4-2.7-4.7-2.9-4.7M373.9 27c-.2 2.7-4.4 6.5-5.7 8.9-.6 1.2-1.4 3.2-1.7 4.4-.6 3.3.2 5.3.9 7.2 1.2 2.8.3 4.1.5 4.1.1 0 .2-.1.4-.2 1.4-1.1 1.1-3.7 1.1-5.3-.1-1.3-.2-2.8 0-4.3.4-2.9 2.1-6 3.6-8.2 1.9-2.7 1.2-5.4.9-6.6M374.7 34.8s.5 2.2-1.5 7.7c-5 14.6 4.6 16 7.3 19.4 0 0 1.1-1.5-3.3-6.2-1.6-1.7-3-5.6-1.8-11 1.9-8-.7-9.9-.7-9.9M370.7 15.6c-.2 1-1.6 1.9-1.6 1.9-.8.5-3.9 1.9-4.1 5.3-.1.7 0 1.5.2 2.3.8-1.6 1.9-2.8 3.6-3.9 3.3-2 1.9-5.6 1.9-5.6M371.7 20.9s1.3 1.1-5.2 6.5-.9 8.5-.9 8.5-1.6-3.1 3.6-7.5c5.3-4.4 4-6.2 3.8-6.6-.4-.9-1.2-.9-1.3-.9M382.9 23.2c-.8 0-1.8.1-2.9.4.9.1 1.5 3 3.6 3.6 1.6.5 3.2.2 3.6 1.1-.7.3-.2 1.4.4 1.4h.2c.4-1.4.7-6.5-4.9-6.5m1.7 3.5c-1 0-2.1-.7-1.8-1.9.1-.2.2 0 .4-.2s.5-.6.9-.7h.4c.2 0 .4 0 .6.1.2 0 .1.5-.1.6-.3.2-1.1-.1-1.1.5 0 .3.2.5.4.5s.5-.1.8-.2c.3-.1.6-.2.9-.2.1 1-.6 1.5-1.4 1.5"/></g><path transform="rotate(-19.209 403.87 40.852)" class="st1" d="M403.7 6.6h.3v68.6h-.3z"/><g><path class="st1" d="M416.9 56.2c.3.1.6.2 1 .3.4.1.8.1 1.2.1.6 0 1.2-.1 1.6-.4.4-.3.7-.7.7-1.3 0-.7-.3-1.1-.9-1.5-.4-.3-1-.5-1.5-.8-.5-.3-1.1-.5-1.4-.8-.5-.4-.8-1-.8-2s.4-1.7 1-2.2c.6-.4 1.4-.6 2.2-.6.6 0 1.2.1 1.8.3v1c-.5-.1-1.1-.2-1.8-.2-.5 0-1 .1-1.4.3-.4.2-.6.6-.6 1.3 0 .5.2.8.4 1.1.3.2.7.5 1.3.7.5.3 1.1.6 1.6.9.4.2.7.5.9.8.2.3.4.8.4 1.3 0 1.1-.5 1.8-1.1 2.3-.7.5-1.6.7-2.5.7-.7 0-1.5-.1-2.1-.5v-.8zM423.7 49.5h.9V48l1.1-.2h.1v1.7h2.2v1.1h-2.2v4c0 .7.2 1.2.4 1.6.3.3.6.5 1 .5.5 0 1-.2 1.5-.5l.3 1.1c-.7.3-1.4.5-2 .5-.7 0-1.3-.2-1.8-.7-.5-.5-.7-1.3-.7-2.4v-4h-.9v-1.2zM434.5 54.1c-1.1 0-2 0-2.6.1-.6.2-.9.5-.9 1.1 0 .6.3.9.6 1.1.3.2.6.2.8.2.4 0 1-.1 1.4-.3.4-.3.8-.8.8-1.6v-.6zm1.7 3.7c-.6-.2-1-.6-1.2-1.1-.3.3-.6.6-1.1.8-.4.2-.9.3-1.4.3-.5 0-1.2-.1-1.7-.5s-.9-1-.9-2c0-.7.2-1.3.7-1.7.5-.4 1.3-.6 2.4-.6.4 0 .9 0 1.6.1v-1c0-.6-.2-1-.4-1.2-.3-.2-.7-.3-1.1-.3s-.8 0-1.2.1c-.4.1-.8.2-1.2.5l-.3-1.1c.5-.2 1-.4 1.4-.5.4-.1.9-.2 1.6-.2.7 0 1.3.1 1.8.6.5.4.8 1.1.8 2.1v2.6c0 .4 0 .9.2 1.2.2.4.4.7.9.8l-.9 1.1zM437.5 49.5h.9V48l1.1-.2h.1v1.7h2.2v1.1h-2.2v4c0 .7.2 1.2.4 1.6.3.3.6.5 1 .5.5 0 1-.2 1.5-.5l.3 1.1c-.7.3-1.4.5-2 .5-.7 0-1.3-.2-1.8-.7-.5-.5-.7-1.3-.7-2.4v-4h-.9v-1.2zM448.7 52.8c0-.6-.1-1.2-.3-1.6-.2-.4-.6-.7-1.3-.7-.6 0-1.1.2-1.5.6s-.6 1-.7 1.6h3.8zm1.2 1.1h-5c.1.9.4 1.6.9 2.1s1.1.7 1.8.7 1.4-.2 2.2-.6v1.1c-.8.4-1.6.6-2.3.6-1 0-2-.3-2.6-1-.7-.7-1.1-1.8-1.1-3.3 0-1.2.3-2.2.8-2.9.6-.7 1.4-1.2 2.6-1.2.8 0 1.4.2 1.8.5.4.3.6.8.8 1.3.1.5.2 1.1.2 1.6v1.1zM456.9 53.5c0 .8.2 1.6.6 2.2.4.6 1.1.9 1.9.9.8 0 1.4-.3 1.8-.9.4-.5.6-1.3.6-2.2 0-.9-.2-1.6-.6-2.2-.4-.6-1-.9-1.9-.9-.8 0-1.4.3-1.9.9-.2.6-.5 1.4-.5 2.2m-1.2.1c0-1.2.4-2.2 1.1-3 .7-.8 1.6-1.2 2.7-1.2s2 .5 2.7 1.2c.6.8 1 1.8 1 3s-.4 2.2-1 3c-.7.8-1.6 1.2-2.7 1.2s-2-.5-2.7-1.2c-.7-.8-1.1-1.8-1.1-3M464.1 49.5h1.3c0-1.2.3-2 .7-2.5.4-.5 1-.7 1.7-.7.6 0 1.2.1 1.9.3l-.3 1.1c-.5-.2-1-.3-1.4-.3-.4 0-.7.1-1 .4-.2.3-.4.8-.4 1.6h1.8v1.1h-1.8v7h-1.2v-7h-1.3v-1zM473.8 49.5h.9V48l1.1-.2h.1v1.7h2.2v1.1h-2.2v4c0 .7.2 1.2.4 1.6.3.3.6.5 1 .5.5 0 1-.2 1.5-.5l.3 1.1c-.7.3-1.4.5-2 .5-.7 0-1.3-.2-1.8-.7-.5-.5-.7-1.3-.7-2.4v-4h-.9v-1.2zM480.6 46.5l1.1-.2h.1v3.8c.3-.2.7-.4 1.1-.5.4-.1.8-.2 1.1-.2.8 0 1.5.2 2 .7.5.5.9 1.2.9 2.4v5.2h-1.2v-5.1c0-.8-.2-1.3-.5-1.6-.3-.3-.8-.4-1.3-.4-.4 0-.8.1-1.1.2-.4.2-.7.4-1 .5v6.4h-1.2V46.5zM493.8 52.8c0-.6-.1-1.2-.3-1.6-.2-.4-.6-.7-1.3-.7-.6 0-1.1.2-1.5.6s-.6 1-.7 1.6h3.8zm1.2 1.1h-5c.1.9.4 1.6.9 2.1s1.1.7 1.8.7 1.4-.2 2.2-.6v1.1c-.8.4-1.6.6-2.3.6-1 0-2-.3-2.6-1-.7-.7-1.1-1.8-1.1-3.3 0-1.2.3-2.2.8-2.9.6-.7 1.4-1.2 2.6-1.2.8 0 1.4.2 1.8.5.4.3.6.8.8 1.3.1.5.2 1.1.2 1.6v1.1z"/></g><path class="st1" d="M502.8 54.1h3.8l-1.9-5.5-1.9 5.5zm4.2 1.1h-4.5l-.8 2.4h-1.2l3.5-10.3h1.6l3.5 10.3h-1.2l-.9-2.4z"/><g><path class="st1" d="M510.5 49.5h.8l.3.9c.6-.7 1.2-1.1 2-1.1.2 0 .4 0 .7.1.2 0 .5.1.7.2l-.4 1.1c-.3-.1-.8-.2-1.1-.2-.7 0-1.3.5-1.7 1.1v6.1h-1.2v-8.2zM515.6 49.5h.9V48l1.1-.2h.1v1.7h2.2v1.1h-2.2v4c0 .7.2 1.2.4 1.6.3.3.6.5 1 .5.5 0 1-.2 1.5-.5l.3 1.1c-.7.3-1.4.5-2 .5-.7 0-1.3-.2-1.8-.7-.5-.5-.7-1.3-.7-2.4v-4h-.9v-1.2z"/></g></svg>