<?xml version="1.0" encoding="utf-8"?>
<!-- Generator: Adobe Illustrator 17.0.0, SVG Export Plug-In . SVG Version: 6.00 Build 0)  -->
<!DOCTYPE svg PUBLIC "-//W3C//DTD SVG 1.1//EN" "http://www.w3.org/Graphics/SVG/1.1/DTD/svg11.dtd">
<svg version="1.1" id="Layer_1" xmlns="http://www.w3.org/2000/svg" xmlns:xlink="http://www.w3.org/1999/xlink" x="0px" y="0px"
	 width="570px" height="75px" viewBox="0 0 570 75" style="enable-background:new 0 0 570 75;" xml:space="preserve">
<style type="text/css">
	.st0{fill:#fff;}
	.st1{fill:#fff;}
</style>
<g>
	<path class="st0" d="M2.1,21.9h4.1l10.3,29.8l10.3-29.8h4.1L19.1,56h-5.4L2.1,21.9z"/>
	<path class="st0" d="M35.7,21.9h4V56h-4V21.9z"/>
	<path class="st0" d="M46.1,51.4L46.1,51.4c0.9,0.4,2.1,0.7,3.4,1c1.3,0.3,2.7,0.4,4.1,0.4c2,0,4-0.4,5.4-1.2
		c1.4-0.9,2.4-2.2,2.4-4.4c0-2.3-1.1-3.6-3-4.8c-1.3-0.9-3.2-1.8-5-2.7C51.7,38.8,50,38,49,37.1c-1.7-1.3-2.7-3.4-2.7-6.5
		c0-3.4,1.3-5.7,3.3-7.2c2-1.4,4.6-2,7.3-2c2.1,0,4.1,0.4,6,0.9v3.4l-0.1,0.1c-1.6-0.3-3.8-0.7-5.9-0.7c-1.8,0-3.5,0.3-4.8,1
		c-1.3,0.8-2.1,2.1-2.1,4.2c0,1.7,0.5,2.7,1.5,3.6c0.9,0.8,2.4,1.6,4.2,2.5c1.8,0.9,3.7,1.8,5.4,2.9c1.2,0.8,2.3,1.6,3.1,2.7
		c0.8,1.1,1.2,2.5,1.2,4.4c0,3.5-1.5,6.1-3.8,7.7c-2.3,1.7-5.3,2.5-8.4,2.5c-2.5,0-4.9-0.5-7-1.5V51.4z"/>
	<path class="st0" d="M71.7,21.9h4V56h-4V21.9z"/>
	<path class="st0" d="M81,21.9h25.1v3.7H95.5V56h-4V25.7H81V21.9z"/>
	<path class="st0" d="M110.6,21.9h21v5.8h-15v8.4h14.5V42h-14.5v14h-6.1V21.9z"/>
	<path class="st0" d="M136.3,21.9h6.1v28.3h14.2V56h-20.3V21.9z"/>
	<path class="st0" d="M158.3,56l11.9-34.6h7.1L189.3,56h-6.4l-2.4-7.1h-13.2l-2.4,7.1H158.3z M169.2,43.2h9.2l-4.6-13.4L169.2,43.2z
		"/>
	<path class="st0" d="M199.5,33.4V56h-6.1V21.9h6.1l14.2,22.7V21.9h6.1V56h-6.1L199.5,33.4z"/>
	<path class="st0" d="M226.4,56V21.9h11.3c5.6,0,10.1,1.9,13.2,5c3.2,3.1,4.9,7.3,4.9,12c0,4.2-1.4,8.5-4.4,11.7
		c-2.9,3.2-7.4,5.4-13.5,5.4H226.4z M232.5,27.8v22.5h4.5c4.8,0,7.9-1.6,9.9-3.8c1.9-2.2,2.7-5,2.7-7.5c0-2.8-1.1-5.6-3.3-7.7
		c-2.2-2.1-5.4-3.5-9.8-3.5H232.5z"/>
	<path class="st0" d="M260.8,21.9H281v5.8h-14.2v8.4h13.8V42h-13.8v8.2H281V56h-20.3V21.9z"/>
	<path class="st0" d="M286.4,56V21.9h9.8c2.2,0,4.7,0.3,7,1c2.3,0.7,4.3,1.9,5.8,3.8c1.5,1.8,2.5,4.2,2.5,7.5c0,2.4-0.6,4.3-1.6,5.9
		c-1,1.6-2.5,2.8-4.2,3.7c0.7,1.6,2.1,3.4,3.6,4.9c1.6,1.6,3.4,2.9,4.9,3.5v0.3l-2.7,4c-1.7,0-3.4-0.7-5-1.9
		c-1.6-1.1-3.1-2.7-4.3-4.3c-1.2-1.6-2.1-3.3-2.6-4.7c-1.1,0.2-2.3,0.2-3.4,0.2h-3.7V56H286.4z M292.5,27.8V40h3.8
		c3.5,0,5.8-0.6,7.2-1.6c1.4-1,1.9-2.5,1.9-4.3c0-1.9-0.5-3.4-1.9-4.5c-1.4-1.1-3.7-1.8-7.2-1.8H292.5z"/>
	<path class="st0" d="M334.7,27.7c-1.6-0.3-3.9-0.6-6.2-0.6c-2,0-3.6,0.2-4.8,0.7c-1.1,0.5-1.7,1.2-1.7,2.5c0,1.2,0.7,2.3,1.9,3.2
		c1.1,0.9,2.7,1.7,4.2,2.3c0.8,0.3,1.5,0.6,2.2,0.9c1.4,0.5,2.8,1.1,4.4,2.2c1.6,1.1,2.8,2.6,3.5,4.4c0.3,0.9,0.5,1.9,0.5,3
		c0,3.5-2,6.1-4.8,7.8c-2.8,1.7-6.4,2.6-9.8,2.6c-2.7,0-5.3-0.5-7.6-1.5v-5.7l0.1,0c1,0.4,2.2,0.7,3.6,1c1.4,0.3,2.9,0.5,4.4,0.5
		c2.4,0,4.3-0.5,5.7-1.3c1.3-0.8,2.1-1.9,2.1-3.1c0-1.2-0.7-2.3-1.9-3.2c-1.1-0.9-2.6-1.6-4.1-2.2c-0.7-0.3-1.5-0.6-2.2-0.9
		c-1.4-0.5-2.8-1.1-4.3-2.2c-1.6-1.1-2.8-2.5-3.5-4.4c-0.4-0.9-0.6-2-0.6-3.1c0-3.3,1.7-5.6,4.1-7c2.4-1.4,5.6-2.1,8.8-2.1
		c2.2,0,4.3,0.3,6.1,0.8L334.7,27.7z"/>
</g>
<polygon class="st1" points="428,22.3 417.9,22.3 417.9,38.7 420.8,38.7 420.8,31.9 427.8,31.9 427.8,29.1 420.8,29.1 420.8,25.1 
	428,25.1 "/>
<polygon class="st1" points="432.7,20.7 432.4,20.7 429.8,20.9 429.8,38.7 432.7,38.7 "/>
<g>
	<path class="st1" d="M440.4,25.5c-1.6,0-3.4,0.4-4.7,1.1l0.7,2.5c0.5-0.2,1.1-0.5,1.7-0.6c0.6-0.2,1.2-0.3,1.8-0.3
		c0.7,0,1.3,0.1,1.8,0.5c0.5,0.4,0.7,1,0.7,1.9v0.6c-1.1-0.1-2-0.1-2.6-0.1c-1.7,0-2.9,0.3-3.6,0.9c-0.7,0.6-1,1.5-1,2.6
		c0,1.1,0.3,2,0.7,2.6c0.4,0.6,1,1,1.7,1.2s1.3,0.3,1.9,0.3c0.8,0,1.4-0.1,2-0.4c0.5-0.2,1-0.6,1.5-1c0.5,0.5,1,0.9,1.5,1.1
		c0.5,0.2,1,0.3,1.4,0.3l1.3-2.4c-0.6-0.1-1-0.3-1.4-0.6c-0.3-0.3-0.5-0.7-0.5-1.3v-4.8c0-1.6-0.6-2.6-1.4-3.3
		C442.9,25.8,441.7,25.5,440.4,25.5 M439.9,36.5c-1.1,0-1.8-0.6-1.8-1.6c0-0.8,0.4-1.1,1.1-1.3c0.6-0.1,1.3-0.2,2.3-0.2
		c0.3,0,0.6,0,0.9,0v0.8c0,1-0.4,1.6-0.9,1.9C440.9,36.5,440.2,36.5,439.9,36.5"/>
	<path class="st1" d="M455.6,25.5c-1.4,0-2.9,0.5-4.1,1.3l-0.3-1h-2.5v12.9h2.9v-9.6c0.8-0.5,1.8-0.8,2.8-0.8c0.8,0,1.5,0.2,2,0.6
		c0.5,0.4,0.9,1.1,0.9,2.1v7.7h2.9v-8.6c0-1.6-0.6-2.8-1.4-3.5C458,25.9,456.9,25.5,455.6,25.5"/>
	<path class="st1" d="M474.3,20.7h-0.4l-2.5,0.2v4.7c-0.7-0.1-1.3-0.1-1.9-0.1c-2,0-3.7,0.6-4.9,1.8c-1.2,1.2-2,3-2,5.5
		c0,1.6,0.4,3.1,1.4,4.3c0.9,1.1,2.3,1.9,4.1,1.9c1.4,0,2.5-0.5,3.5-1.2l0.5,1h2.2V20.7z M468.7,36.1c-1,0-1.8-0.5-2.3-1.2
		c-0.5-0.7-0.8-1.7-0.8-2.7c0-1.3,0.4-2.3,1-3c0.6-0.7,1.6-1,2.7-1c0.6,0,1.3,0.1,2.1,0.3v6.8C470.6,35.8,469.6,36.1,468.7,36.1"/>
	<path class="st1" d="M482.5,25.5c-1.5,0-2.9,0.6-4,1.7c-1.1,1.1-1.8,2.8-1.8,5c0,2.2,0.8,3.9,2,5c1.2,1.1,2.9,1.7,4.7,1.7
		c0.5,0,1.2-0.1,1.8-0.2c0.6-0.1,1.3-0.3,1.8-0.6v-2.8l-0.1,0c-1,0.5-2.1,0.8-3.2,0.8c-0.8,0-1.7-0.2-2.3-0.6
		c-0.7-0.4-1.2-1.2-1.5-2.2h7.8v-1.9c0-1.8-0.4-3.1-1.1-3.9c-0.6-0.9-1.5-1.4-2.2-1.6C483.6,25.6,482.9,25.5,482.5,25.5 M479.8,31
		c0.2-0.9,0.6-1.6,1.1-2.1c0.5-0.4,1.1-0.6,1.7-0.6c0.6,0,1.1,0.2,1.6,0.6c0.4,0.4,0.8,1.1,0.8,2.1H479.8z"/>
	<path class="st1" d="M496.1,25.5c-1.3,0-2.4,0.5-3.3,1.3l-0.3-1.1h-2.5v12.9h2.9v-9.4c0.8-0.6,1.7-0.9,2.6-0.9
		c0.7,0,1.5,0.2,2.2,0.6l0.9-2.9c-0.3-0.2-0.8-0.3-1.3-0.4C496.9,25.6,496.4,25.5,496.1,25.5"/>
	<path class="st1" d="M504,25.5c-1.2,0-2.3,0.3-3.1,0.9c-0.8,0.6-1.4,1.6-1.4,2.9c0,0.5,0.1,1,0.2,1.4c0.3,0.7,0.8,1.2,1.5,1.6
		c0.6,0.3,1.3,0.5,2,0.7c0.3,0.1,0.6,0.2,0.9,0.3c0.5,0.3,0.8,0.6,0.8,1.3c0,0.6-0.3,0.9-0.7,1.2c-0.4,0.2-1,0.3-1.5,0.3
		c-0.6,0-1.2-0.1-1.8-0.3c-0.6-0.2-1.1-0.4-1.4-0.6l-0.1,0.1V38c0.9,0.6,2,0.9,3.3,0.9c1.3,0,2.5-0.3,3.4-1c0.9-0.7,1.5-1.8,1.5-3.3
		c0-0.6-0.1-1-0.2-1.4c-0.3-0.8-0.8-1.3-1.5-1.7c-0.6-0.4-1.3-0.6-2-0.8c-0.3-0.1-0.6-0.2-0.9-0.3c-0.5-0.2-0.8-0.5-0.8-1
		c0-0.4,0.2-0.7,0.6-0.9c0.4-0.2,0.9-0.3,1.4-0.3c0.8,0,1.5,0.2,2.2,0.5l0.1-0.1V26C506.1,25.7,505,25.5,504,25.5"/>
	<path class="st1" d="M374.4,20C374.4,20,374.4,20,374.4,20c0,0,0.7,1.4,3.3,13.9c0.1,0.5,1,6,1.7,7.8c0.2,0.7,0.7,2,1,2.7
		c0.8,1.8,3,4.5,3.1,7c0.1,1.4,0.2,2.6,0.3,3.7c0,0.3,0.2,1.6,0.4,2.2c0.5,1.5,4.8,6.3,9.4,6.3v-3.7c-4.5,0-8.8-2.5-8.9-2.8
		c-0.1-0.1,0.2-1.8,0.5-2.6c0.6-1.5,1.7-2.8,3.7-3c0.2,0,0.5,0,0.7,0c1.8,0,2.9,0.5,4,0.5l0-11.7c-0.6-0.4-1-0.6-1.4-0.6
		c-0.4,0-0.7,0.1-1,0.2c-0.3,0.1-0.6,0.2-0.9,0.2c0,0-0.1,0-0.1,0c-0.8-0.1-1.5-1.2-2.2-1.2c-0.1,0-0.2,0-0.2,0.1
		c-1.3,0.7,0.5,3,1.3,3.5c0.7,0.4,1.6,0.8,1.8,0.9c1,0.5,1.5,1.2,1.6,2.4c0,0.3,0,0.9-0.1,1.2c-0.4,1.5-2.5,3-4.4,3
		c-0.6,0-1.2-0.1-1.7-0.5c-1-0.7-1.8-1.5-2.1-3c-0.6-2.7-2.5-4.6-3.1-7.3c-0.4-1.6-0.7-3.3-1.1-4.9c-0.4-1.7-0.9-3.3-1.2-4.8
		c-0.3-1.4-1-3.5-1.5-4.8C375.5,20.3,374.6,20,374.4,20"/>
	<path class="st1" d="M373.9,27c-0.2,2.7-4.4,6.5-5.7,8.9c-0.6,1.2-1.4,3.2-1.7,4.4c-0.6,3.3,0.2,5.3,0.9,7.2
		c1.2,2.8,0.3,4.1,0.5,4.1c0.1,0,0.2-0.1,0.4-0.2c1.4-1.1,1.1-3.7,1.1-5.3c-0.1-1.3-0.2-2.8,0-4.3c0.4-2.9,2.1-6,3.6-8.2
		C374.9,30.9,374.2,28.2,373.9,27"/>
	<path class="st1" d="M374.7,34.8c0,0,0.5,2.2-1.5,7.7c-5,14.6,4.6,16,7.3,19.4c0,0,1.1-1.5-3.3-6.2c-1.6-1.7-3-5.6-1.8-11
		C377.3,36.7,374.7,34.8,374.7,34.8"/>
	<path class="st1" d="M370.7,15.6c-0.2,1-1.6,1.9-1.6,1.9c-0.8,0.5-3.9,1.9-4.1,5.3c-0.1,0.7,0,1.5,0.2,2.3c0.8-1.6,1.9-2.8,3.6-3.9
		C372.1,19.2,370.7,15.6,370.7,15.6"/>
	<path class="st1" d="M371.7,20.9C371.7,20.9,371.7,20.9,371.7,20.9c0,0,1.3,1.1-5.2,6.5c-6.5,5.4-0.9,8.5-0.9,8.5s-1.6-3.1,3.6-7.5
		c5.3-4.4,4-6.2,3.8-6.6C372.6,20.9,371.8,20.9,371.7,20.9"/>
	<path class="st1" d="M382.9,23.2c-0.8,0-1.8,0.1-2.9,0.4c0.9,0.1,1.5,3,3.6,3.6c1.6,0.5,3.2,0.2,3.6,1.1c-0.7,0.3-0.2,1.4,0.4,1.4
		c0.1,0,0.1,0,0.2,0C388.2,28.3,388.5,23.2,382.9,23.2 M384.6,26.7c-1,0-2.1-0.7-1.8-1.9c0.1-0.2,0.2,0,0.4-0.2
		c0.2-0.2,0.5-0.6,0.9-0.7c0.1,0,0.2,0,0.4,0c0.2,0,0.4,0,0.6,0.1c0.2,0,0.1,0.5-0.1,0.6c-0.3,0.2-1.1-0.1-1.1,0.5
		c0,0.3,0.2,0.5,0.4,0.5c0.2,0,0.5-0.1,0.8-0.2c0.3-0.1,0.6-0.2,0.9-0.2c0,0,0,0,0,0C386.1,26.2,385.4,26.7,384.6,26.7"/>
</g>
<rect x="403.7" y="6.6" transform="matrix(0.9443 -0.329 0.329 0.9443 9.0438 135.1474)" class="st1" width="0.3" height="68.6"/>
<g>
	<path class="st1" d="M416.9,56.2L416.9,56.2c0.3,0.1,0.6,0.2,1,0.3c0.4,0.1,0.8,0.1,1.2,0.1c0.6,0,1.2-0.1,1.6-0.4
		c0.4-0.3,0.7-0.7,0.7-1.3c0-0.7-0.3-1.1-0.9-1.5c-0.4-0.3-1-0.5-1.5-0.8c-0.5-0.3-1.1-0.5-1.4-0.8c-0.5-0.4-0.8-1-0.8-2
		c0-1,0.4-1.7,1-2.2c0.6-0.4,1.4-0.6,2.2-0.6c0.6,0,1.2,0.1,1.8,0.3v1l0,0c-0.5-0.1-1.1-0.2-1.8-0.2c-0.5,0-1,0.1-1.4,0.3
		c-0.4,0.2-0.6,0.6-0.6,1.3c0,0.5,0.2,0.8,0.4,1.1c0.3,0.2,0.7,0.5,1.3,0.7c0.5,0.3,1.1,0.6,1.6,0.9c0.4,0.2,0.7,0.5,0.9,0.8
		c0.2,0.3,0.4,0.8,0.4,1.3c0,1.1-0.5,1.8-1.1,2.3c-0.7,0.5-1.6,0.7-2.5,0.7c-0.7,0-1.5-0.1-2.1-0.5V56.2z"/>
	<path class="st1" d="M423.7,49.5h0.9v-1.5l1.1-0.2h0.1v1.7h2.2v1.1h-2.2v4c0,0.7,0.2,1.2,0.4,1.6c0.3,0.3,0.6,0.5,1,0.5
		c0.5,0,1-0.2,1.5-0.5l0.3,1.1c-0.7,0.3-1.4,0.5-2,0.5c-0.7,0-1.3-0.2-1.8-0.7c-0.5-0.5-0.7-1.3-0.7-2.4v-4h-0.9V49.5z"/>
	<path class="st1" d="M434.5,54.1c-1.1,0-2,0-2.6,0.1c-0.6,0.2-0.9,0.5-0.9,1.1c0,0.6,0.3,0.9,0.6,1.1c0.3,0.2,0.6,0.2,0.8,0.2
		c0.4,0,1-0.1,1.4-0.3c0.4-0.3,0.8-0.8,0.8-1.6V54.1z M436.2,57.8c-0.6-0.2-1-0.6-1.2-1.1c-0.3,0.3-0.6,0.6-1.1,0.8
		c-0.4,0.2-0.9,0.3-1.4,0.3c-0.5,0-1.2-0.1-1.7-0.5c-0.5-0.4-0.9-1-0.9-2c0-0.7,0.2-1.3,0.7-1.7c0.5-0.4,1.3-0.6,2.4-0.6
		c0.4,0,0.9,0,1.6,0.1v-1c0-0.6-0.2-1-0.4-1.2c-0.3-0.2-0.7-0.3-1.1-0.3s-0.8,0-1.2,0.1c-0.4,0.1-0.8,0.2-1.2,0.5l-0.3-1.1
		c0.5-0.2,1-0.4,1.4-0.5c0.4-0.1,0.9-0.2,1.6-0.2c0.7,0,1.3,0.1,1.8,0.6c0.5,0.4,0.8,1.1,0.8,2.1v2.6c0,0.4,0,0.9,0.2,1.2
		c0.2,0.4,0.4,0.7,0.9,0.8L436.2,57.8z"/>
	<path class="st1" d="M437.5,49.5h0.9v-1.5l1.1-0.2h0.1v1.7h2.2v1.1h-2.2v4c0,0.7,0.2,1.2,0.4,1.6c0.3,0.3,0.6,0.5,1,0.5
		c0.5,0,1-0.2,1.5-0.5l0.3,1.1c-0.7,0.3-1.4,0.5-2,0.5c-0.7,0-1.3-0.2-1.8-0.7c-0.5-0.5-0.7-1.3-0.7-2.4v-4h-0.9V49.5z"/>
	<path class="st1" d="M448.7,52.8c0-0.6-0.1-1.2-0.3-1.6c-0.2-0.4-0.6-0.7-1.3-0.7c-0.6,0-1.1,0.2-1.5,0.6s-0.6,1-0.7,1.6H448.7z
		 M449.9,53.9h-5c0.1,0.9,0.4,1.6,0.9,2.1c0.5,0.5,1.1,0.7,1.8,0.7c0.7,0,1.4-0.2,2.2-0.6l0,0v1.1c-0.8,0.4-1.6,0.6-2.3,0.6
		c-1,0-2-0.3-2.6-1c-0.7-0.7-1.1-1.8-1.1-3.3c0-1.2,0.3-2.2,0.8-2.9c0.6-0.7,1.4-1.2,2.6-1.2c0.8,0,1.4,0.2,1.8,0.5
		c0.4,0.3,0.6,0.8,0.8,1.3c0.1,0.5,0.2,1.1,0.2,1.6V53.9z"/>
	<path class="st1" d="M456.9,53.5c0,0.8,0.2,1.6,0.6,2.2c0.4,0.6,1.1,0.9,1.9,0.9c0.8,0,1.4-0.3,1.8-0.9c0.4-0.5,0.6-1.3,0.6-2.2
		c0-0.9-0.2-1.6-0.6-2.2c-0.4-0.6-1-0.9-1.9-0.9c-0.8,0-1.4,0.3-1.9,0.9C457.2,51.9,456.9,52.7,456.9,53.5 M455.7,53.6
		c0-1.2,0.4-2.2,1.1-3c0.7-0.8,1.6-1.2,2.7-1.2c1.1,0,2,0.5,2.7,1.2c0.6,0.8,1,1.8,1,3c0,1.2-0.4,2.2-1,3c-0.7,0.8-1.6,1.2-2.7,1.2
		c-1.1,0-2-0.5-2.7-1.2C456.1,55.8,455.7,54.8,455.7,53.6"/>
	<path class="st1" d="M464.1,49.5h1.3v0c0-1.2,0.3-2,0.7-2.5c0.4-0.5,1-0.7,1.7-0.7c0.6,0,1.2,0.1,1.9,0.3l-0.3,1.1
		c-0.5-0.2-1-0.3-1.4-0.3c-0.4,0-0.7,0.1-1,0.4c-0.2,0.3-0.4,0.8-0.4,1.6v0h1.8v1.1h-1.8v7h-1.2v-7h-1.3V49.5z"/>
	<path class="st1" d="M473.8,49.5h0.9v-1.5l1.1-0.2h0.1v1.7h2.2v1.1h-2.2v4c0,0.7,0.2,1.2,0.4,1.6c0.3,0.3,0.6,0.5,1,0.5
		c0.5,0,1-0.2,1.5-0.5l0.3,1.1c-0.7,0.3-1.4,0.5-2,0.5c-0.7,0-1.3-0.2-1.8-0.7c-0.5-0.5-0.7-1.3-0.7-2.4v-4h-0.9V49.5z"/>
	<path class="st1" d="M480.6,46.5l1.1-0.2h0.1v3.8c0.3-0.2,0.7-0.4,1.1-0.5c0.4-0.1,0.8-0.2,1.1-0.2c0.8,0,1.5,0.2,2,0.7
		c0.5,0.5,0.9,1.2,0.9,2.4v5.2h-1.2v-5.1c0-0.8-0.2-1.3-0.5-1.6c-0.3-0.3-0.8-0.4-1.3-0.4c-0.4,0-0.8,0.1-1.1,0.2
		c-0.4,0.2-0.7,0.4-1,0.5v6.4h-1.2V46.5z"/>
	<path class="st1" d="M493.8,52.8c0-0.6-0.1-1.2-0.3-1.6c-0.2-0.4-0.6-0.7-1.3-0.7c-0.6,0-1.1,0.2-1.5,0.6s-0.6,1-0.7,1.6H493.8z
		 M495,53.9h-5c0.1,0.9,0.4,1.6,0.9,2.1c0.5,0.5,1.1,0.7,1.8,0.7c0.7,0,1.4-0.2,2.2-0.6l0,0v1.1c-0.8,0.4-1.6,0.6-2.3,0.6
		c-1,0-2-0.3-2.6-1c-0.7-0.7-1.1-1.8-1.1-3.3c0-1.2,0.3-2.2,0.8-2.9c0.6-0.7,1.4-1.2,2.6-1.2c0.8,0,1.4,0.2,1.8,0.5
		c0.4,0.3,0.6,0.8,0.8,1.3c0.1,0.5,0.2,1.1,0.2,1.6V53.9z"/>
</g>
<path class="st1" d="M502.8,54.1h3.8l-1.9-5.5L502.8,54.1z M507,55.2h-4.5l-0.8,2.4h-1.2l3.5-10.3h1.6l3.5,10.3h-1.2L507,55.2z"/>
<g>
	<path class="st1" d="M510.5,49.5h0.8l0.3,0.9c0.6-0.7,1.2-1.1,2-1.1c0.2,0,0.4,0,0.7,0.1c0.2,0,0.5,0.1,0.7,0.2l-0.4,1.1
		c-0.3-0.1-0.8-0.2-1.1-0.2c-0.7,0-1.3,0.5-1.7,1.1v6.1h-1.2V49.5z"/>
	<path class="st1" d="M515.6,49.5h0.9v-1.5l1.1-0.2h0.1v1.7h2.2v1.1h-2.2v4c0,0.7,0.2,1.2,0.4,1.6c0.3,0.3,0.6,0.5,1,0.5
		c0.5,0,1-0.2,1.5-0.5l0.3,1.1c-0.7,0.3-1.4,0.5-2,0.5c-0.7,0-1.3-0.2-1.8-0.7c-0.5-0.5-0.7-1.3-0.7-2.4v-4h-0.9V49.5z"/>
</g>
</svg>
