<svg version="1" xmlns="http://www.w3.org/2000/svg" width="682.667" height="682.667" viewBox="0 0 512.000000 512.000000"><path d="M40.5 1.2c-16 3-31.4 16.6-37.7 33.4L.5 40.5v431l2.3 5.9c6.4 16.9 21.3 30 38 33.5 7.5 1.6 422.9 1.6 430.4 0 18.9-3.9 35.8-20.8 39.7-39.7 1.6-7.5 1.6-422.9 0-430.4-3.5-16.7-16.6-31.6-33.5-38L471.5.5l-213-.1C126.2.3 43.6.6 40.5 1.2zm381 142.7c10.9 4.9 16.5 13.7 16.5 26.1 0 13.2-3.2 18.3-27.4 42.8l-16.1 16.3 4.5-.8c2.5-.4 12.3-.8 21.8-.8 20.4 0 20.2-.1 20.2 10.2v6.3h-72v-3.6c0-6.2 2.8-10.1 17.3-23.7 23.7-22.4 32.3-33.7 33.4-44.1 1.1-9.8-4.6-16.6-14-16.6-7.2 0-11.3 2.4-14.8 8.6-4.3 7.5-4.8 7.8-12.6 7.1-3.7-.4-7-1-7.4-1.4-.4-.5.2-3.7 1.3-7.2 2.8-9 10.7-17 19.9-20 8.7-2.8 22.1-2.5 29.4.8zm-67.7 36.8l.3 11.3H289v178h-28V192h-65v-10.8c0-6 .3-11.2.7-11.5.3-.4 35.8-.6 78.7-.5l78.1.3.3 11.2zm-200.5 46.7c4.1.8 10.3 2.8 13.8 4.4 6.7 3.1 17.9 10.9 17.9 12.5 0 1.6-7.1 10.7-9.2 11.8-1.5.8-2.9.5-6.1-1.2-16.9-8.9-22.9-10.5-35.1-8.9-9.4 1.2-15.5 3.9-21.6 9.6-6.1 5.7-9.1 10.7-12.1 20.4-2.1 6.6-2.4 9.4-2.4 23.5.1 14.8.3 16.6 2.8 23.8 3.2 9 6.1 14.1 11.4 19.2 7.9 7.8 21.8 11.7 34 9.5 8.6-1.5 12.1-3 19.9-8.5 8.6-6.2 10.7-6 16.3 1.2l4.5 5.6-5.7 5.3c-13.9 12.9-39.5 19.3-60.2 14.9-17.4-3.7-32.5-15.4-40.3-31.5-10.1-20.6-11.8-45.7-4.5-68.8 4.5-14.5 12.4-25.5 23.9-33.1 14.6-9.8 33.8-13.3 52.7-9.7z"/></svg>